<?xml version="1.0" encoding="UTF-8" standalone="no"?>
<!-- Created with Inkscape (http://www.inkscape.org/) -->

<svg
   width="250mm"
   height="250mm"
   viewBox="0 0 250 250"
   version="1.1"
   id="svg1"
   inkscape:version="1.3 (0e150ed6c4, 2023-07-21)"
   sodipodi:docname="icon-m-steps2.svg"
   inkscape:export-filename="icon-m-steps.png"
   inkscape:export-xdpi="26.0096"
   inkscape:export-ydpi="26.0096"
   xmlns:inkscape="http://www.inkscape.org/namespaces/inkscape"
   xmlns:sodipodi="http://sodipodi.sourceforge.net/DTD/sodipodi-0.dtd"
   xmlns="http://www.w3.org/2000/svg"
   xmlns:svg="http://www.w3.org/2000/svg">
  <sodipodi:namedview
     id="namedview1"
     pagecolor="#ffffff"
     bordercolor="#000000"
     borderopacity="0.25"
     inkscape:showpageshadow="2"
     inkscape:pageopacity="0.0"
     inkscape:pagecheckerboard="0"
     inkscape:deskcolor="#d1d1d1"
     inkscape:document-units="mm"
     inkscape:zoom="0.70911897"
     inkscape:cx="473.1223"
     inkscape:cy="468.1866"
     inkscape:window-width="1920"
     inkscape:window-height="1000"
     inkscape:window-x="0"
     inkscape:window-y="27"
     inkscape:window-maximized="1"
     inkscape:current-layer="layer1" />
  <defs
     id="defs1" />
  <g
     inkscape:label="Layer 1"
     inkscape:groupmode="layer"
     id="layer1"
     transform="translate(20,-23.5)">
    <g
       transform="matrix(-0.26458333,0,0,0.26458333,192.54212,40.794475)"
       id="g6"
       style="fill:#808080;fill-opacity:1"
       inkscape:export-filename="./g6.png"
       inkscape:export-xdpi="26.0096"
       inkscape:export-ydpi="26.0096">
      <path
         d="m 257.87,274.39 c 79.17,-8.33 65.87,-131.13 2.09,-164.58 -42.26,-22.161 -99.31,-21.193 -137.5,-6.25 -72.44,28.35 -91.669,64.58 -102.09,135.42 -10.413,70.83 24.49,258.2 108.34,279.16 75,18.75 103.94,-17.6 95.83,-52.08 -8.33,-35.42 -49.41,-81.29 -52.08,-112.5 -6.25,-72.92 85.41,-79.17 85.41,-79.17 z"
         id="path1"
         style="fill:#808080;fill-opacity:1" />
      <path
         d="m 398.94,101.5 c -21.21,30.8 -61.45,39.9 -89.88,20.33 -28.43,-19.58 -34.29,-60.414 -13.08,-91.214 21.21,-30.8 61.44,-39.898 89.88,-20.323 28.42,19.575 34.28,60.412 13.08,91.207 z"
         id="path2"
         style="fill:#808080;fill-opacity:1" />
      <path
         d="m 235.45,82.105 c -18.15,3.09 -35.28,-8.655 -38.28,-26.236 -2.99,-17.581 8.59,-44.006 26.74,-47.096 18.15,-3.092 35.29,8.655 38.28,26.236 3,17.581 -8.59,44.005 -26.74,47.096 z"
         id="path3"
         style="fill:#808080;fill-opacity:1" />
      <path
         d="m 176.6,69.41 c -10.28,14.576 -25.34,17.381 -40.38,6.774 -15.05,-10.607 -18.59,-40.858 -8.31,-55.435 10.28,-14.575 25.33,-17.38 40.38,-6.773 15.05,10.607 18.59,40.858 8.31,55.434 z"
         id="path4"
         style="fill:#808080;fill-opacity:1" />
      <path
         d="M 113.75,80.36 C 110.59,95.569 94.793,105.15 78.457,101.76 62.121,98.368 48.841,75.304 51.998,60.095 55.155,44.886 70.956,35.305 87.291,38.696 103.63,42.087 116.91,65.151 113.75,80.36 Z"
         id="path5"
         style="fill:#808080;fill-opacity:1" />
      <path
         d="M 47.389,102.14 C 56.68,116 54.914,133.46 43.446,141.15 31.978,148.84 15.15,143.84 5.859,129.98 -3.431,116.12 -1.665,98.657 9.803,90.969 21.271,83.281 38.099,88.281 47.389,102.14 Z"
         id="path6"
         style="fill:#808080;fill-opacity:1" />
    </g>
    <g
       id="g1"
       transform="translate(-178.88943,70.665246)"
       style="fill:#808080;fill-opacity:1">
      <path
         d="m 264.57541,119.70278 c 20.94601,-2.20477 17.42784,-34.69481 0.55113,-43.545123 -11.18103,-5.863695 -26.27603,-5.607579 -36.38021,-1.653645 -19.16562,7.499614 -24.25329,17.087585 -27.00866,35.829878 -2.75537,18.74229 6.47964,68.31541 28.66495,73.86108 19.84375,4.96094 27.5008,-4.65852 25.35582,-13.78029 -2.20477,-9.37075 -13.07253,-21.50931 -13.7803,-29.76563 -1.65364,-19.29342 22.59807,-20.94706 22.59807,-20.94706 z"
         id="path1-6"
         style="stroke-width:0.264583;fill:#808080;fill-opacity:1" />
      <path
         d="m 301.90018,73.95897 c -5.61102,8.149167 -16.25758,10.55661 -23.77969,5.377392 -7.52237,-5.179219 -9.07177,-15.984009 -3.46075,-24.133175 5.61102,-8.149167 16.25733,-10.556346 23.77969,-5.377127 7.51946,5.181335 9.06992,15.986125 3.46075,24.133968 z"
         id="path2-2"
         style="stroke-width:0.264583;fill:#808080;fill-opacity:1" />
      <path
         d="m 258.64346,68.827376 c -4.80193,0.817563 -9.33662,-2.289968 -10.12878,-6.941608 -0.79243,-4.651639 2.27303,-11.643254 7.07469,-12.460816 4.80166,-0.818092 9.33662,2.289968 10.12878,6.941608 0.79216,4.651639 -2.27277,11.642989 -7.07496,12.460816 z"
         id="path3-9"
         style="stroke-width:0.264583;fill:#808080;fill-opacity:1" />
      <path
         d="m 243.07273,65.468491 c -2.71886,3.856567 -6.70296,4.598723 -10.68388,1.792287 -3.98092,-2.806435 -4.91728,-10.810345 -2.19842,-14.667176 2.71886,-3.856303 6.70269,-4.598459 10.68387,-1.792023 3.98198,2.806435 4.91861,10.810345 2.19869,14.666912 z"
         id="path4-1"
         style="stroke-width:0.264583;fill:#808080;fill-opacity:1" />
      <path
         d="m 226.44366,68.365678 c -0.83529,4.024048 -5.01597,6.559021 -9.3382,5.661819 -4.32223,-0.897202 -7.83564,-6.999817 -7.00035,-11.023864 0.83529,-4.024048 5.01597,-6.559021 9.33794,-5.661819 4.32197,0.897202 7.8367,6.999552 7.00061,11.0236 z"
         id="path5-2"
         style="stroke-width:0.264583;fill:#808080;fill-opacity:1" />
      <path
         d="m 208.88565,74.128303 c 2.45824,3.666332 1.99099,8.287809 -1.04325,10.32219 -3.03424,2.034116 -7.48665,0.7112 -9.9449,-2.955396 -2.45798,-3.666331 -1.99072,-8.287808 1.04352,-10.321925 3.03424,-2.034117 7.48665,-0.710935 9.94463,2.955925 z"
         id="path6-7"
         style="stroke-width:0.264583;fill:#808080;fill-opacity:1" />
    </g>
  </g>
</svg>
