<?xml version="1.0" encoding="UTF-8" standalone="no"?>
<svg
   width="256"
   height="256"
   viewBox="0 0 67.733332 67.733335"
   version="1.1"
   id="svg8"
   xmlns="http://www.w3.org/2000/svg"
   xmlns:svg="http://www.w3.org/2000/svg"
   xmlns:rdf="http://www.w3.org/1999/02/22-rdf-syntax-ns#"
   xmlns:cc="http://creativecommons.org/ns#"
   xmlns:dc="http://purl.org/dc/elements/1.1/">
  <defs
     id="defs2" />
  <metadata
     id="metadata5">
    <rdf:RDF>
      <cc:Work
         rdf:about="">
        <dc:format>image/svg+xml</dc:format>
        <dc:type
           rdf:resource="http://purl.org/dc/dcmitype/StillImage" />
        <dc:title />
      </cc:Work>
    </rdf:RDF>
  </metadata>
  <g
     id="layer1">
    <path
       id="rect833"
       style="opacity:1;fill:#ffffff;fill-opacity:0.7;stroke-width:1.09855;stroke-linecap:round;stroke-linejoin:round;stroke-opacity:0.995575"
       d="M 15.692065 0 C 6.9985218 1.2533184e-15 0 6.9985218 0 15.692065 L 0 52.041268 C 1.2533184e-15 60.734811 6.9985218 67.733333 15.692065 67.733333 L 52.041268 67.733333 C 60.734811 67.733333 67.733333 60.734811 67.733333 52.041268 L 67.733333 15.692065 C 67.733333 6.9985218 60.734811 0 52.041268 0 L 15.692065 0 z M 44.240194 10.02006 C 47.240196 9.9765819 50.197031 10.107384 51.740511 10.433472 C 56.653559 11.476951 58.044633 14.867934 57.653328 24.737508 C 57.392459 31.694036 56.740252 34.259553 53.827205 40.259558 C 52.044595 43.955214 51.08819 45.346164 48.305579 48.172253 C 45.392533 51.0853 44.218527 51.911646 40.348958 53.781213 C 34.261996 56.737738 31.69662 57.389875 24.740092 57.650745 C 11.696602 58.172484 9.5665335 56.041899 10.088273 42.998409 C 10.349143 36.041881 11.00135 33.476881 13.914396 27.476876 C 15.697006 23.78122 16.653412 22.433161 19.436023 19.607072 C 23.87081 15.128807 29.609856 12.085297 36.479427 10.650513 C 38.19682 10.280947 41.240191 10.063539 44.240194 10.02006 z M 42.783952 15.172201 L 41.044523 15.216125 C 38.30539 15.259604 33.26209 16.781351 29.392521 18.737874 C 24.435995 21.216137 20.696649 25.04223 18.305343 29.955278 C 16.566211 33.650933 15.175301 38.650659 15.175301 41.346313 C 15.175301 42.694141 15.34888 42.520045 17.305404 39.215694 C 23.479322 28.82438 29.696697 22.607006 39.435836 17.085262 L 42.783952 15.172201 z M 49.092094 18.264001 C 48.577487 18.256783 47.54478 18.65069 45.696952 19.520256 C 36.653466 23.694172 27.827456 31.563662 22.566581 40.085409 C 20.218753 43.911499 17.914485 48.954967 18.349268 49.38975 C 18.871007 49.91149 24.349152 47.215979 29.001331 44.172498 C 37.131773 38.824667 44.131636 30.78109 48.001204 22.433256 C 48.827292 20.607167 49.523075 18.954819 49.523075 18.693949 C 49.523075 18.416775 49.400858 18.268332 49.092094 18.264001 z M 52.26451 25.767936 C 52.045277 25.774958 51.608473 26.505109 50.609831 28.302665 C 45.348956 37.780935 38.001427 45.128911 28.305766 50.650655 C 25.088372 52.520222 25.044667 52.563717 26.522929 52.563717 C 27.349017 52.563717 29.609649 52.172334 31.479215 51.650594 C 42.435747 48.781026 49.566316 41.520207 51.914144 30.781067 C 52.305449 28.954978 52.566441 26.911483 52.479484 26.302787 C 52.434647 25.959037 52.379347 25.764258 52.26451 25.767936 z " />
  </g>
  <g
     id="ICON_LAYER"
     transform="matrix(0.434783,0,0,0.434783,3.435968,3.4332643)">
    <metadata
       id="metadata1">
Created by potrace 1.16, written by Peter Selinger 2001-2019
</metadata>
    <g
       transform="matrix(0.1,0,0,-0.1,0,140)"
       fill="#000000"
       stroke="none"
       id="g1" />
  </g>
</svg>
