<?xml version="1.0" encoding="UTF-8" standalone="no"?>
<svg
   width="256"
   height="256"
   viewBox="0 0 67.733332 67.733335"
   version="1.1"
   id="svg8"
   sodipodi:docname="icon-m-darts.svg"
   inkscape:version="1.4.3 (0d15f75042, 2025-12-25)"
   xmlns:inkscape="http://www.inkscape.org/namespaces/inkscape"
   xmlns:sodipodi="http://sodipodi.sourceforge.net/DTD/sodipodi-0.dtd"
   xmlns="http://www.w3.org/2000/svg"
   xmlns:svg="http://www.w3.org/2000/svg"
   xmlns:rdf="http://www.w3.org/1999/02/22-rdf-syntax-ns#"
   xmlns:cc="http://creativecommons.org/ns#"
   xmlns:dc="http://purl.org/dc/elements/1.1/">
  <sodipodi:namedview
     id="namedview1"
     pagecolor="#ffffff"
     bordercolor="#000000"
     borderopacity="0.25"
     inkscape:showpageshadow="2"
     inkscape:pageopacity="0.0"
     inkscape:pagecheckerboard="true"
     inkscape:deskcolor="#d1d1d1"
     inkscape:zoom="3.0898438"
     inkscape:cx="127.83818"
     inkscape:cy="128"
     inkscape:window-width="1920"
     inkscape:window-height="1000"
     inkscape:window-x="1920"
     inkscape:window-y="27"
     inkscape:window-maximized="1"
     inkscape:current-layer="svg8" />
  <defs
     id="defs2" />
  <metadata
     id="metadata5">
    <rdf:RDF>
      <cc:Work
         rdf:about="">
        <dc:format>image/svg+xml</dc:format>
        <dc:type
           rdf:resource="http://purl.org/dc/dcmitype/StillImage" />
      </cc:Work>
    </rdf:RDF>
  </metadata>
  <path
     id="rect833"
     style="fill:#ffffff;fill-opacity:0.7;stroke-width:1.09855;stroke-linecap:round;stroke-linejoin:round;stroke-opacity:0.995575"
     d="M 15.692065 0 C 6.9985219 -2.5066369e-15 0 6.9985219 0 15.692065 L 0 52.041268 C -2.5066369e-15 60.734811 6.9985219 67.733333 15.692065 67.733333 L 52.041268 67.733333 C 60.734811 67.733333 67.733333 60.734811 67.733333 52.041268 L 67.733333 15.692065 C 67.733333 6.9985219 60.734811 0 52.041268 0 L 15.692065 0 z M 33.74161 8.6847412 C 36.138351 8.6793064 38.540825 8.8856134 40.127783 9.2986572 C 48.823443 11.559529 56.171221 18.907306 58.432092 27.602966 C 59.25818 30.863838 59.25818 36.863811 58.432092 40.124683 C 56.171221 48.820343 48.823443 56.168121 40.127783 58.428992 C 36.86691 59.25508 30.866423 59.25508 27.60555 58.428992 C 18.90989 56.168121 11.562113 48.820343 9.3012411 40.124683 C 8.4751534 36.863811 8.4751534 30.863838 9.3012411 27.602966 C 11.562113 19.037741 18.866762 11.646416 27.388509 9.3420655 C 28.953728 8.9072825 31.344869 8.690176 33.74161 8.6847412 z M 32.593359 13.658081 C 31.662652 13.684576 30.779745 13.766374 29.997135 13.907678 C 19.518865 15.733767 12.1712 26.212022 13.866854 36.994641 C 16.388595 53.342481 36.518965 59.907707 48.214628 48.212044 C 58.64942 37.777252 54.649447 19.602968 40.823348 14.776876 C 38.605954 13.994267 35.385482 13.578597 32.593359 13.658081 z M 32.418176 18.759578 C 35.026874 18.682133 38.442929 19.179427 40.171192 19.994645 C 42.910325 21.255516 46.431685 24.733468 47.779513 27.559558 C 48.649079 29.385646 48.823377 30.385819 48.823377 33.864083 C 48.823377 38.864088 47.910038 41.168316 44.51873 44.516146 C 41.779597 47.298757 38.910043 48.646669 35.214388 48.951017 C 28.649165 49.516235 22.866491 46.08149 19.866488 39.95105 C 18.431707 37.038004 18.475558 30.603039 19.953821 27.559558 C 21.823388 23.646511 26.127286 20.081593 30.170768 19.038114 C 30.768595 18.875071 31.54861 18.785394 32.418176 18.759578 z M 33.77985 23.864176 C 28.171149 23.907654 23.86676 28.29872 23.86676 33.950899 C 23.910238 42.690037 34.432109 47.124627 40.77994 41.124622 C 45.997336 36.168096 44.34497 27.298874 37.69279 24.559741 C 36.779746 24.168436 35.040721 23.864176 33.77985 23.864176 z M 33.775716 28.8401 C 35.850446 28.776921 37.790695 30.113809 38.605912 32.429028 C 39.17113 33.994247 39.127486 34.298742 38.388355 35.863961 C 37.214441 38.255267 34.866704 39.385798 32.562354 38.690145 C 28.084089 37.342318 27.5622 31.51624 31.692639 29.385803 C 32.377422 29.037977 33.08414 28.86116 33.775716 28.8401 z " />
</svg>
