<?xml version="1.0" encoding="UTF-8" standalone="no"?>
<svg
   width="256"
   height="256"
   viewBox="0 0 67.733332 67.733335"
   version="1.1"
   id="svg8"
   sodipodi:docname="icon-m-wakesurfing.svg"
   inkscape:version="1.4.3 (0d15f75042, 2025-12-25)"
   xmlns:inkscape="http://www.inkscape.org/namespaces/inkscape"
   xmlns:sodipodi="http://sodipodi.sourceforge.net/DTD/sodipodi-0.dtd"
   xmlns="http://www.w3.org/2000/svg"
   xmlns:svg="http://www.w3.org/2000/svg"
   xmlns:rdf="http://www.w3.org/1999/02/22-rdf-syntax-ns#"
   xmlns:cc="http://creativecommons.org/ns#"
   xmlns:dc="http://purl.org/dc/elements/1.1/">
  <sodipodi:namedview
     id="namedview1"
     pagecolor="#ffffff"
     bordercolor="#000000"
     borderopacity="0.25"
     inkscape:showpageshadow="2"
     inkscape:pageopacity="0.0"
     inkscape:pagecheckerboard="true"
     inkscape:deskcolor="#d1d1d1"
     inkscape:zoom="3.0898438"
     inkscape:cx="127.83818"
     inkscape:cy="128"
     inkscape:window-width="1920"
     inkscape:window-height="1000"
     inkscape:window-x="1920"
     inkscape:window-y="27"
     inkscape:window-maximized="1"
     inkscape:current-layer="svg8" />
  <defs
     id="defs2" />
  <metadata
     id="metadata5">
    <rdf:RDF>
      <cc:Work
         rdf:about="">
        <dc:format>image/svg+xml</dc:format>
        <dc:type
           rdf:resource="http://purl.org/dc/dcmitype/StillImage" />
      </cc:Work>
    </rdf:RDF>
  </metadata>
  <g
     id="layer1">
    <path
       id="rect833"
       style="opacity:1;fill:#ffffff;fill-opacity:0.7;stroke-width:1.09855;stroke-linecap:round;stroke-linejoin:round;stroke-opacity:0.995575"
       d="M 15.692065 0 C 6.9985219 -2.5066369e-15 0 6.9985219 0 15.692065 L 0 52.041268 C -2.5066369e-15 60.734811 6.9985219 67.733333 15.692065 67.733333 L 52.041268 67.733333 C 60.734811 67.733333 67.733333 60.734811 67.733333 52.041268 L 67.733333 15.692065 C 67.733333 6.9985219 60.734811 0 52.041268 0 L 15.692065 0 z M 46.331539 6.6838298 C 47.220509 6.648164 48.157641 6.8869945 49.127751 7.4005819 C 50.388622 8.0527564 51.692969 10.226896 51.692969 11.748637 C 51.692969 13.052986 50.388622 15.22682 49.127751 15.965951 C 47.040793 17.183343 44.866662 16.922632 43.171008 15.226978 C 41.910137 13.966107 41.692546 13.444361 41.692546 11.705229 C 41.692546 9.9660959 41.910137 9.4443505 43.171008 8.1834798 C 44.124814 7.2296746 45.188578 6.7296858 46.331539 6.6838298 z M 25.567432 13.048816 C 25.582067 13.048847 25.594803 13.050233 25.605672 13.05295 C 25.953498 13.139906 29.08409 13.705158 32.562354 14.313855 C 36.040618 14.922551 39.431683 15.661672 40.083858 15.922542 C 40.909945 16.22689 41.8668 17.400741 43.084192 19.487699 C 46.084195 24.748573 48.736408 26.965944 52.997282 27.83551 L 55.388351 28.270109 L 55.519092 30.835327 L 55.649317 33.357137 L 53.127507 33.052763 C 48.779677 32.574501 43.214348 29.140098 40.692607 25.444442 L 39.997042 24.400578 L 37.12745 26.270231 L 34.301266 28.139885 L 39.083919 31.879191 L 43.866573 35.617981 L 43.866573 40.400635 L 43.866573 45.183289 L 45.692818 46.835384 L 47.562472 48.444072 L 46.562533 49.313786 C 43.910357 51.531179 39.518958 51.444057 36.040694 49.096228 L 33.866667 47.618282 L 31.692639 49.096228 C 29.431767 50.617969 26.431751 51.357397 24.649141 50.835657 C 22.170878 50.053048 14.562097 43.444396 12.518616 40.227002 C 11.301224 38.313957 10.866879 35.791886 11.60601 34.66145 C 12.606011 33.052753 16.171007 32.835756 21.040576 34.096627 C 22.910143 34.574888 24.562561 34.965824 24.736475 34.965824 C 24.910388 34.965824 24.779857 33.53099 24.475509 31.791858 C 23.73638 27.617941 23.736308 25.357311 24.518917 24.270353 C 24.866744 23.748614 26.38863 22.531056 27.953849 21.487577 C 29.519068 20.487576 30.736319 19.487463 30.605884 19.31355 C 30.518928 19.139637 29.431691 18.879231 28.214299 18.705318 C 26.12734 18.444448 25.910373 18.487943 22.823413 20.61838 C 20.997325 21.792294 19.344906 22.791891 19.127515 22.791891 C 18.866645 22.791891 18.127734 21.922238 17.388603 20.922237 L 16.08429 19.009692 L 20.518644 15.965951 C 22.877341 14.323286 25.113741 13.047867 25.567432 13.048816 z M 29.497941 31.055469 C 29.401798 31.059776 29.508458 31.266803 29.605945 31.531409 C 29.73638 31.922714 29.996855 33.313693 30.170768 34.618042 C 30.344681 35.922391 30.605673 37.183356 30.736108 37.444226 C 30.996978 37.792052 38.475504 41.922506 38.910287 41.922506 C 38.997241 41.922506 39.083919 41.140117 39.083919 40.183594 C 39.083919 38.531419 38.953566 38.357368 34.866606 35.139974 C 30.818028 31.948395 29.701953 31.04633 29.497941 31.055469 z M 18.518766 53.705249 C 18.518766 53.661771 19.606003 54.1399 20.910352 54.748596 C 24.127746 56.226859 28.388429 56.270337 31.605823 54.748596 L 33.866667 53.705249 L 36.170919 54.748596 C 39.344834 56.226859 43.605658 56.226859 46.779574 54.748596 L 49.083826 53.705249 L 51.345186 54.748596 C 52.649535 55.313814 54.823281 55.879133 56.258065 55.966093 L 58.866691 56.139726 L 58.996916 58.618128 L 59.127657 61.053121 L 56.736072 61.053121 C 55.431723 61.053121 53.171161 60.661598 51.736377 60.226815 C 49.127679 59.400728 49.040489 59.400728 46.431791 60.226815 C 44.997007 60.661598 42.736376 61.053121 41.475505 61.053121 C 40.214634 61.053121 37.953485 60.661598 36.518701 60.226815 C 33.910003 59.400728 33.82333 59.400728 31.214632 60.226815 C 27.866803 61.270294 24.649371 61.270294 21.301542 60.226815 C 18.692844 59.400728 18.605654 59.400728 15.996956 60.226815 C 14.562173 60.661598 12.301611 61.053121 10.997262 61.053121 L 8.6056763 61.053121 L 8.7364177 58.618128 L 8.8666423 56.139726 L 11.475269 55.966093 C 12.953531 55.835658 15.04053 55.313814 16.257922 54.748596 C 17.475315 54.183379 18.475286 53.705249 18.518766 53.705249 z " />
  </g>
</svg>
