<?xml version="1.0" encoding="UTF-8" standalone="no"?>
<svg
   width="256"
   height="256"
   viewBox="0 0 67.733332 67.733335"
   version="1.1"
   id="svg8"
   sodipodi:docname="icon-m-hockey.svg"
   inkscape:version="1.4.3 (0d15f75042, 2025-12-25)"
   xmlns:inkscape="http://www.inkscape.org/namespaces/inkscape"
   xmlns:sodipodi="http://sodipodi.sourceforge.net/DTD/sodipodi-0.dtd"
   xmlns="http://www.w3.org/2000/svg"
   xmlns:svg="http://www.w3.org/2000/svg"
   xmlns:rdf="http://www.w3.org/1999/02/22-rdf-syntax-ns#"
   xmlns:cc="http://creativecommons.org/ns#"
   xmlns:dc="http://purl.org/dc/elements/1.1/">
  <sodipodi:namedview
     id="namedview1"
     pagecolor="#ffffff"
     bordercolor="#000000"
     borderopacity="0.25"
     inkscape:showpageshadow="2"
     inkscape:pageopacity="0.0"
     inkscape:pagecheckerboard="true"
     inkscape:deskcolor="#d1d1d1"
     inkscape:zoom="3.0898438"
     inkscape:cx="127.83818"
     inkscape:cy="128"
     inkscape:window-width="1920"
     inkscape:window-height="1000"
     inkscape:window-x="1920"
     inkscape:window-y="27"
     inkscape:window-maximized="1"
     inkscape:current-layer="svg8" />
  <defs
     id="defs2" />
  <metadata
     id="metadata5">
    <rdf:RDF>
      <cc:Work
         rdf:about="">
        <dc:format>image/svg+xml</dc:format>
        <dc:type
           rdf:resource="http://purl.org/dc/dcmitype/StillImage" />
      </cc:Work>
    </rdf:RDF>
  </metadata>
  <path
     id="rect833"
     style="fill:#ffffff;fill-opacity:0.7;stroke-width:1.09855;stroke-linecap:round;stroke-linejoin:round;stroke-opacity:0.995575"
     d="M 15.692065 0 C 6.9985219 -2.5066369e-15 0 6.9985219 0 15.692065 L 0 52.041268 C -2.5066369e-15 60.734811 6.9985219 67.733333 15.692065 67.733333 L 52.041268 67.733333 C 60.734811 67.733333 67.733333 60.734811 67.733333 52.041268 L 67.733333 15.692065 C 67.733333 6.9985219 60.734811 0 52.041268 0 L 15.692065 0 z M 23.806816 13.415719 C 25.768774 13.415719 27.801465 13.600124 28.084074 13.96969 C 28.301465 14.274038 29.649108 17.2309 31.083891 20.491773 C 32.475197 23.796123 33.736232 26.447998 33.866667 26.447998 C 33.997102 26.447998 35.258137 23.796123 36.649443 20.491773 C 38.084227 17.2309 39.431868 14.274038 39.64926 13.96969 C 40.257956 13.230561 47.779513 13.231006 47.779513 14.013615 C 47.779513 14.317963 45.649035 19.230917 42.996859 24.970052 C 40.388161 30.66571 38.214722 35.622001 38.214722 36.013306 C 38.214722 36.40461 38.910364 38.317505 39.823409 40.274028 L 41.388171 43.88311 L 46.562533 43.88311 L 51.692969 43.88311 L 51.692969 49.100362 L 51.692969 54.317615 L 45.431852 54.317615 C 40.1275 54.317615 39.040669 54.187408 38.301538 53.535234 C 37.431972 52.839581 19.953821 15.100125 19.953821 13.96969 C 19.953821 13.600124 21.844857 13.415719 23.806816 13.415719 z M 28.503687 39.686983 C 28.526511 39.685518 28.545777 39.6929 28.562081 39.709204 C 28.735994 39.883117 29.649292 41.839419 30.649292 44.013334 L 32.432129 47.969682 L 31.388265 50.361267 C 29.736089 54.230832 29.562357 54.317615 22.301481 54.317615 L 16.040365 54.317615 L 16.040365 49.100362 L 16.040365 43.88311 L 21.214726 43.88311 L 26.345162 43.88311 L 27.301693 41.622266 C 27.77452 40.519004 28.28305 39.701144 28.503687 39.686983 z M 11.997201 43.88311 L 13.431738 43.88311 L 13.431738 49.100362 L 13.431738 54.317615 L 11.04067 54.317615 L 8.6490845 54.317615 L 8.6490845 49.795927 C 8.6490845 45.578532 8.7360493 45.18737 9.6056153 44.578674 C 10.127355 44.187369 11.214591 43.88311 11.997201 43.88311 z M 54.301595 43.88311 L 55.736133 43.88311 C 56.518742 43.88311 57.605978 44.187369 58.127718 44.578674 C 58.997281 45.18737 59.084249 45.578532 59.084249 49.795927 L 59.084249 54.317615 L 56.692664 54.317615 L 54.301595 54.317615 L 54.301595 49.100362 L 54.301595 43.88311 z " />
</svg>
