<?xml version="1.0" encoding="UTF-8" standalone="no"?>
<svg
   width="256"
   height="256"
   viewBox="0 0 67.733332 67.733335"
   version="1.1"
   id="svg8"
   xmlns="http://www.w3.org/2000/svg"
   xmlns:svg="http://www.w3.org/2000/svg"
   xmlns:rdf="http://www.w3.org/1999/02/22-rdf-syntax-ns#"
   xmlns:cc="http://creativecommons.org/ns#"
   xmlns:dc="http://purl.org/dc/elements/1.1/">
  <defs
     id="defs2" />
  <metadata
     id="metadata5">
    <rdf:RDF>
      <cc:Work
         rdf:about="">
        <dc:format>image/svg+xml</dc:format>
        <dc:type
           rdf:resource="http://purl.org/dc/dcmitype/StillImage" />
        <dc:title />
      </cc:Work>
    </rdf:RDF>
  </metadata>
  <g
     id="layer1">
    <path
       id="rect833"
       style="opacity:1;fill:#ffffff;fill-opacity:0.7;stroke-width:1.09855;stroke-linecap:round;stroke-linejoin:round;stroke-opacity:0.995575"
       d="M 15.692065 0 C 6.9985218 1.2533184e-15 0 6.9985218 0 15.692065 L 0 52.041268 C 1.2533184e-15 60.734811 6.9985218 67.733333 15.692065 67.733333 L 52.041268 67.733333 C 60.734811 67.733333 67.733333 60.734811 67.733333 52.041268 L 67.733333 15.692065 C 67.733333 6.9985218 60.734811 0 52.041268 0 L 15.692065 0 z M 33.866667 8.6490845 C 38.736236 8.6490845 42.431911 11.084093 44.431913 15.562358 C 45.431914 17.823229 45.344791 22.38834 44.214355 24.605733 C 43.823051 25.388343 43.649322 26.127464 43.779757 26.214421 C 43.95367 26.301377 45.17085 26.38864 46.475199 26.345162 L 48.866785 26.345162 L 48.997009 28.823047 L 49.127751 31.25804 L 45.823043 31.25804 C 43.736084 31.25804 42.56226 31.431699 42.56226 31.736047 C 42.56226 31.996917 43.388504 33.779867 44.388505 35.692912 C 46.30155 39.432046 49.64919 43.344964 52.518758 45.388444 L 54.301595 46.605941 L 54.301595 52.823132 L 54.301595 59.084249 L 33.866667 59.084249 L 13.431738 59.084249 L 13.431738 52.823132 L 13.431738 46.605941 L 15.214575 45.388444 C 18.084143 43.344964 21.431783 39.432046 23.344828 35.692912 C 24.344829 33.779867 25.171073 31.996917 25.171073 31.736047 C 25.171073 31.431699 23.997249 31.25804 21.910291 31.25804 L 18.605583 31.25804 L 18.736324 28.823047 L 18.866549 26.345162 L 21.258134 26.345162 C 22.562483 26.38864 23.779663 26.301377 23.953577 26.214421 C 24.084012 26.127464 23.910283 25.388343 23.518978 24.605733 C 23.127673 23.866602 22.73622 21.91023 22.649264 20.345011 C 22.344915 15.649355 24.518835 11.866723 28.73623 9.7797648 C 30.475362 8.9101988 31.649273 8.6490845 33.866667 8.6490845 z M 33.774166 13.468945 C 33.723894 13.467841 33.681718 13.469712 33.649109 13.475146 C 28.040408 13.953408 25.562086 20.692826 29.518612 24.518917 C 30.779482 25.692831 31.171012 25.82323 33.866667 25.82323 C 36.562321 25.82323 36.953851 25.692831 38.214722 24.518917 C 41.736464 21.171088 40.257827 15.214681 35.56217 13.866854 C 34.877387 13.638593 34.126068 13.476673 33.774166 13.468945 z M 30.519067 31.25804 L 29.953727 33.084285 C 28.475465 38.040812 24.692561 43.823338 20.518644 47.562472 C 18.736034 49.12769 18.649508 49.301592 18.649508 51.736377 L 18.649508 54.301595 L 33.866667 54.301595 L 49.083826 54.301595 L 49.083826 51.736377 C 49.083826 49.301592 48.997229 49.12769 47.258097 47.562472 C 43.040702 43.823338 39.257868 38.040812 37.779606 33.084285 L 37.214266 31.25804 L 33.866667 31.25804 L 30.519067 31.25804 z " />
  </g>
  <g
     id="ICON_LAYER"
     transform="matrix(0.434783,0,0,0.434783,3.4318567,3.4318567)">
    <metadata
       id="metadata1">
Created by potrace 1.16, written by Peter Selinger 2001-2019
</metadata>
    <g
       transform="matrix(0.1,0,0,-0.1,0,140)"
       fill="#000000"
       stroke="none"
       id="g1" />
  </g>
</svg>
