<?xml version="1.0" encoding="UTF-8" standalone="no"?>
<svg
   width="256"
   height="256"
   viewBox="0 0 67.733332 67.733335"
   version="1.1"
   id="svg8"
   sodipodi:docname="icon-m-water.svg"
   inkscape:version="1.4.3 (0d15f75042, 2025-12-25)"
   xmlns:inkscape="http://www.inkscape.org/namespaces/inkscape"
   xmlns:sodipodi="http://sodipodi.sourceforge.net/DTD/sodipodi-0.dtd"
   xmlns="http://www.w3.org/2000/svg"
   xmlns:svg="http://www.w3.org/2000/svg"
   xmlns:rdf="http://www.w3.org/1999/02/22-rdf-syntax-ns#"
   xmlns:cc="http://creativecommons.org/ns#"
   xmlns:dc="http://purl.org/dc/elements/1.1/">
  <sodipodi:namedview
     id="namedview1"
     pagecolor="#ffffff"
     bordercolor="#000000"
     borderopacity="0.25"
     inkscape:showpageshadow="2"
     inkscape:pageopacity="0.0"
     inkscape:pagecheckerboard="true"
     inkscape:deskcolor="#d1d1d1"
     inkscape:zoom="3.0898438"
     inkscape:cx="127.83818"
     inkscape:cy="128"
     inkscape:window-width="1920"
     inkscape:window-height="1000"
     inkscape:window-x="1920"
     inkscape:window-y="27"
     inkscape:window-maximized="1"
     inkscape:current-layer="svg8" />
  <defs
     id="defs2" />
  <metadata
     id="metadata5">
    <rdf:RDF>
      <cc:Work
         rdf:about="">
        <dc:format>image/svg+xml</dc:format>
        <dc:type
           rdf:resource="http://purl.org/dc/dcmitype/StillImage" />
      </cc:Work>
    </rdf:RDF>
  </metadata>
  <path
     id="rect833"
     style="fill:#ffffff;fill-opacity:0.7;stroke-width:1.09855;stroke-linecap:round;stroke-linejoin:round;stroke-opacity:0.995575"
     d="M 15.692065 0 C 6.9985219 -2.5066369e-15 0 6.9985219 0 15.692065 L 0 52.041268 C -2.5066369e-15 60.734811 6.9985219 67.733333 15.692065 67.733333 L 52.041268 67.733333 C 60.734811 67.733333 67.733333 60.734811 67.733333 52.041268 L 67.733333 15.692065 C 67.733333 6.9985219 60.734811 0 52.041268 0 L 15.692065 0 z M 34.874874 19.902144 C 36.293353 19.924563 37.051589 20.234449 38.910287 21.180103 C 42.040725 22.7888 43.736015 22.745532 45.866451 21.049878 C 46.779496 20.354225 47.82341 20.049566 50.084282 19.962606 C 52.779936 19.788692 53.38826 19.919162 56.083915 21.223511 L 59.084249 22.701974 L 59.084249 25.049634 L 59.084249 27.397811 L 57.171187 27.180253 C 56.08423 27.049818 54.692803 26.527905 54.040629 26.006165 C 52.388453 24.701816 49.388228 24.789009 47.127356 26.180314 C 45.692572 27.04988 44.822965 27.26707 42.344702 27.26707 C 39.866439 27.26707 38.997349 27.04988 37.562565 26.180314 C 35.258215 24.745531 32.301608 24.701745 30.562476 26.049573 C 29.562475 26.87566 28.64932 27.093293 25.82323 27.180253 C 22.649314 27.310688 22.171056 27.223723 20.692794 26.223722 C 18.4754 24.70198 15.649482 24.702052 13.214697 26.180314 C 12.258175 26.789011 10.82327 27.26707 10.084139 27.26707 L 8.6490845 27.26707 L 8.6490845 24.876001 C 8.6490845 22.658608 8.7362155 22.48432 9.823173 22.22345 C 10.475347 22.049537 11.692529 21.440946 12.518616 20.875728 C 13.909922 19.919204 14.47511 19.832171 17.344678 19.962606 C 19.996854 20.093041 20.866601 20.310537 22.040515 21.180103 C 24.040517 22.658365 26.736229 22.658365 28.736231 21.180103 C 29.866667 20.354015 30.823274 20.093041 33.171102 19.962606 C 33.855885 19.919127 34.402047 19.894672 34.874874 19.902144 z M 15.92926 29.963546 C 18.065132 29.941127 20.812086 30.462617 21.822957 31.180009 C 22.518609 31.745227 23.996853 32.267071 25.040332 32.397506 C 26.605551 32.57142 27.214491 32.397638 28.736231 31.354159 C 30.344928 30.223723 30.910142 30.093254 33.866667 30.093254 C 36.823191 30.093254 37.388406 30.223723 38.997103 31.354159 C 40.518844 32.397638 41.127782 32.57142 42.693001 32.397506 C 43.73648 32.267071 45.258061 31.701819 45.997192 31.136601 C 47.214585 30.267035 47.910349 30.093254 50.736438 30.093254 C 53.692962 30.093254 54.301726 30.223862 55.823466 31.267342 C 56.779989 31.962994 57.910047 32.484322 58.301351 32.484322 C 58.953526 32.484322 59.084249 32.876072 59.084249 35.093465 L 59.084249 37.7455 L 57.475562 37.441126 C 56.562517 37.267213 55.04063 36.70203 54.040629 36.136812 C 51.649322 34.745507 49.388604 34.788775 47.214689 36.267037 C 45.736427 37.310516 45.083905 37.441126 42.301294 37.441126 C 39.649118 37.441126 38.910112 37.310753 37.736198 36.441187 C 36.866632 35.789013 35.47532 35.310716 34.214449 35.180282 C 32.431839 35.006368 31.866659 35.18015 30.344918 36.223629 C 28.7797 37.310586 28.127764 37.441126 25.388631 37.441126 C 22.649498 37.441126 21.996906 37.310516 20.518644 36.267037 C 18.344729 34.788775 16.084011 34.745507 13.692704 36.136812 C 12.692704 36.70203 11.170746 37.267213 10.30118 37.441126 L 8.6490845 37.7455 L 8.6490845 35.093465 C 8.6490845 32.876072 8.7798079 32.484322 9.4319824 32.484322 C 9.8232871 32.484322 10.866738 32.006193 11.692826 31.440975 C 12.562392 30.875757 13.605634 30.310505 14.083895 30.18007 C 14.573026 30.038766 15.217303 29.971019 15.92926 29.963546 z M 16.866671 40.310718 C 19.605804 40.310718 20.475507 40.484429 21.910291 41.397473 C 24.258119 42.832257 26.86676 42.832257 28.997197 41.397473 C 30.345024 40.484429 31.084055 40.310718 33.866667 40.310718 C 36.562321 40.354196 37.432094 40.527907 38.866878 41.397473 C 41.214706 42.832257 43.823347 42.832257 45.953784 41.397473 C 47.301611 40.484429 48.040643 40.310718 50.823255 40.310718 C 53.649344 40.310718 54.345037 40.484429 55.605908 41.397473 C 56.431995 42.00617 57.519092 42.484745 58.08431 42.484745 C 59.040831 42.484745 59.084249 42.658517 59.084249 45.13678 L 59.084249 47.832223 L 57.34482 47.571257 C 56.431775 47.440822 54.996871 46.876016 54.214262 46.354277 C 52.21426 44.919495 49.214621 44.919423 47.258097 46.397685 C 45.997226 47.354208 45.388183 47.48444 42.344702 47.48444 C 39.301221 47.48444 38.692695 47.354208 37.431824 46.397685 C 36.344867 45.571597 35.431885 45.310413 33.866667 45.310413 C 32.301448 45.310413 31.388468 45.571597 30.30151 46.397685 C 29.040639 47.354208 28.432112 47.48444 25.388631 47.48444 C 22.258194 47.48444 21.736081 47.353901 20.170862 46.266943 C 18.736078 45.223464 18.083897 45.049683 16.649113 45.223596 C 15.649112 45.310552 14.258132 45.832537 13.56248 46.354277 C 12.866827 46.919495 11.431853 47.440822 10.47533 47.571257 L 8.6490845 47.832223 L 8.6490845 45.13678 C 8.6490845 42.658517 8.6925009 42.484745 9.6490235 42.484745 C 10.214241 42.484745 11.301337 42.00617 12.127425 41.397473 C 13.388295 40.484429 14.08406 40.310718 16.866671 40.310718 z " />
</svg>
