<?xml version="1.0" encoding="UTF-8" standalone="no"?>
<svg
   width="256"
   height="256"
   viewBox="0 0 67.733332 67.733335"
   version="1.1"
   id="svg8"
   sodipodi:docname="icon-m-kitesurfing.svg"
   inkscape:version="1.4.3 (0d15f75042, 2025-12-25)"
   xmlns:inkscape="http://www.inkscape.org/namespaces/inkscape"
   xmlns:sodipodi="http://sodipodi.sourceforge.net/DTD/sodipodi-0.dtd"
   xmlns="http://www.w3.org/2000/svg"
   xmlns:svg="http://www.w3.org/2000/svg"
   xmlns:rdf="http://www.w3.org/1999/02/22-rdf-syntax-ns#"
   xmlns:cc="http://creativecommons.org/ns#"
   xmlns:dc="http://purl.org/dc/elements/1.1/">
  <sodipodi:namedview
     id="namedview1"
     pagecolor="#ffffff"
     bordercolor="#000000"
     borderopacity="0.25"
     inkscape:showpageshadow="2"
     inkscape:pageopacity="0.0"
     inkscape:pagecheckerboard="true"
     inkscape:deskcolor="#d1d1d1"
     inkscape:zoom="3.0898438"
     inkscape:cx="127.83818"
     inkscape:cy="128"
     inkscape:window-width="1920"
     inkscape:window-height="1000"
     inkscape:window-x="1920"
     inkscape:window-y="27"
     inkscape:window-maximized="1"
     inkscape:current-layer="svg8" />
  <defs
     id="defs2" />
  <metadata
     id="metadata5">
    <rdf:RDF>
      <cc:Work
         rdf:about="">
        <dc:format>image/svg+xml</dc:format>
        <dc:type
           rdf:resource="http://purl.org/dc/dcmitype/StillImage" />
      </cc:Work>
    </rdf:RDF>
  </metadata>
  <path
     id="rect833"
     style="fill:#ffffff;fill-opacity:0.7;stroke-width:1.09855;stroke-linecap:round;stroke-linejoin:round;stroke-opacity:0.995575"
     d="M 15.692065 0 C 6.9985219 -2.5066369e-15 0 6.9985219 0 15.692065 L 0 52.041268 C -2.5066369e-15 60.734811 6.9985219 67.733333 15.692065 67.733333 L 52.041268 67.733333 C 60.734811 67.733333 67.733333 60.734811 67.733333 52.041268 L 67.733333 15.692065 C 67.733333 6.9985219 60.734811 0 52.041268 0 L 15.692065 0 z M 41.9778 3.4979777 C 43.788688 3.4262215 45.46993 3.9931773 46.692757 5.1888306 C 47.518845 6.0149183 48.214628 6.9715534 48.214628 7.3628581 C 48.214628 7.7541628 47.127366 8.5800565 45.518669 9.4061442 C 43.996929 10.145275 41.649384 11.710571 40.2146 12.884485 C 35.127639 17.10188 35.692948 16.754104 34.388599 16.058451 C 33.736425 15.667146 32.866912 14.667243 32.432129 13.754199 C 31.649519 12.18898 31.649098 12.14561 32.692578 9.8412598 C 33.823013 7.3195184 35.518883 5.7973784 38.649321 4.3191162 C 39.758017 3.813681 40.891267 3.5410314 41.9778 3.4979777 z M 48.344853 3.8845174 C 49.344853 3.8845174 52.301602 5.7105246 55.258126 8.1018311 C 59.301608 11.362704 59.953447 12.884394 59.953447 18.710486 C 59.953447 24.058317 59.127571 27.841201 57.258004 31.362944 C 55.431915 34.841208 53.475246 36.49338 51.257853 36.49338 C 49.475242 36.49338 47.779513 35.363042 47.779513 34.189128 C 47.779513 33.841302 48.170895 32.449945 48.692635 31.015161 C 52.214377 20.884717 52.345145 12.015238 49.127751 6.2761027 C 48.258182 4.7543622 47.953548 3.8845174 48.344853 3.8845174 z M 27.502714 20.835938 C 28.095106 20.808764 28.670803 21.080454 28.866455 21.667411 C 28.99689 22.145672 28.344726 24.536957 27.257768 27.450004 L 25.388631 32.362883 L 22.692672 33.667196 C 20.823105 34.536762 19.953821 35.188742 19.953821 35.710482 C 19.953821 37.058309 19.214419 36.580487 18.518766 34.797876 C 18.127461 33.841354 17.605547 32.971395 17.344678 32.797481 C 16.692503 32.406177 16.866705 33.014967 18.127576 35.623665 L 19.301664 38.015251 L 23.996985 38.145475 L 28.692822 38.2757 L 27.127543 36.232414 C 25.518846 34.101978 25.388148 33.232597 26.649019 33.232597 C 27.562063 33.232597 36.95351 45.145643 36.823075 46.058687 C 36.562205 47.363036 35.388355 46.66713 33.257918 43.971476 L 31.083891 41.276034 L 24.69255 41.276034 C 21.170808 41.276034 17.996878 41.145503 17.649052 41.015068 C 17.301225 40.884633 16.910289 41.058431 16.779854 41.406258 C 16.649419 41.797563 18.170938 43.275744 21.083984 45.623572 C 24.51877 48.406183 25.866787 49.754366 26.736353 51.493498 L 27.953849 53.754342 L 31.344857 54.015308 C 37.170949 54.493569 42.171086 56.145662 44.084131 58.232621 L 44.953845 59.189152 L 43.475383 60.450057 C 40.21451 63.145712 33.214743 64.536674 24.736475 64.188847 C 18.649513 63.927977 14.214454 63.102058 12.084017 61.841187 C 10.649234 60.971621 10.040573 58.841028 10.779704 57.449723 C 11.388401 56.275808 15.518579 54.754255 18.953365 54.449907 C 20.475105 54.319472 21.823331 54.058479 21.910291 53.884566 C 22.258118 53.319348 19.736055 51.406281 14.736051 48.449756 C 8.6490897 44.841058 7.7798869 44.102227 7.7798869 42.49353 C 7.7798869 41.058746 13.214705 30.884463 14.171228 30.536637 C 14.519054 30.406202 15.475244 30.667195 16.301331 31.101978 C 17.736115 31.884586 17.82334 31.884657 20.301603 31.058569 L 22.779488 30.188855 L 24.214543 26.493473 C 24.997152 24.449993 25.823396 22.362853 26.040788 21.797636 C 26.301657 21.188939 26.910322 20.863111 27.502714 20.835938 z M 18.194238 22.089091 C 20.896686 22.188955 23.171135 25.058443 21.605916 27.928011 C 20.866785 29.362795 19.909906 29.928334 18.301209 29.971814 C 16.388164 29.971814 15.345168 29.363075 14.475602 27.754378 C 13.606036 26.058724 13.997279 24.189047 15.475541 23.015133 C 16.345107 22.330349 17.293422 22.055803 18.194238 22.089091 z " />
</svg>
