<?xml version="1.0" encoding="UTF-8" standalone="no"?>
<svg
   width="256"
   height="256"
   viewBox="0 0 67.733332 67.733335"
   version="1.1"
   id="svg8"
   xmlns="http://www.w3.org/2000/svg"
   xmlns:svg="http://www.w3.org/2000/svg"
   xmlns:rdf="http://www.w3.org/1999/02/22-rdf-syntax-ns#"
   xmlns:cc="http://creativecommons.org/ns#"
   xmlns:dc="http://purl.org/dc/elements/1.1/">
  <defs
     id="defs2" />
  <metadata
     id="metadata5">
    <rdf:RDF>
      <cc:Work
         rdf:about="">
        <dc:format>image/svg+xml</dc:format>
        <dc:type
           rdf:resource="http://purl.org/dc/dcmitype/StillImage" />
        <dc:title />
      </cc:Work>
    </rdf:RDF>
  </metadata>
  <g
     id="layer1">
    <path
       id="rect833"
       style="opacity:1;fill:#ffffff;fill-opacity:0.7;stroke-width:1.09855;stroke-linecap:round;stroke-linejoin:round;stroke-opacity:0.995575"
       d="M 15.692065 0 C 6.9985218 1.2533184e-15 0 6.9985218 0 15.692065 L 0 52.041268 C 1.2533184e-15 60.734811 6.9985218 67.733333 15.692065 67.733333 L 52.041268 67.733333 C 60.734811 67.733333 67.733333 60.734811 67.733333 52.041268 L 67.733333 15.692065 C 67.733333 6.9985218 60.734811 0 52.041268 0 L 15.692065 0 z M 33.866667 8.6490845 C 35.910147 8.6490845 36.475293 9.9535085 36.475293 14.692643 L 36.475293 18.779732 L 39.953634 15.431616 C 42.60581 12.909875 43.736427 12.127425 44.649471 12.127425 C 46.21469 12.127425 46.910315 12.866835 46.910315 14.51901 C 46.910315 15.649446 46.083854 16.649268 41.692546 21.040576 L 36.475293 26.257829 L 36.475293 28.73623 L 36.475293 31.25804 L 38.997103 31.25804 L 41.475505 31.25804 L 46.692757 26.040788 C 51.084065 21.649479 52.083887 20.823018 53.214323 20.823018 C 54.909977 20.823018 55.605908 21.518573 55.605908 23.127271 C 55.605908 24.127271 54.86649 25.127453 52.257792 27.823108 L 48.953601 31.25804 L 53.04069 31.25804 C 57.779825 31.25804 59.084249 31.823187 59.084249 33.866667 C 59.084249 35.910147 57.779755 36.475293 53.084098 36.475293 L 48.997009 36.475293 L 52.301717 40.04045 C 55.910416 43.996975 56.431988 45.431957 54.649377 46.649349 C 54.127638 47.040654 53.388517 47.344914 53.04069 47.344914 C 52.692864 47.344914 49.953796 44.910106 46.910315 41.910103 L 41.432096 36.475293 L 38.953695 36.475293 L 36.475293 36.475293 L 36.475293 38.997103 L 36.475293 41.475505 L 41.692546 46.692757 C 46.083854 51.084065 46.910315 52.083887 46.910315 53.214323 C 46.910315 54.909977 46.21476 55.605908 44.606063 55.605908 C 43.606062 55.605908 42.60588 54.86649 39.910225 52.257792 L 36.475293 48.953601 L 36.475293 53.214323 C 36.475293 57.996936 35.997173 59.084249 33.823258 59.084249 C 31.823257 59.084249 31.25804 57.736347 31.25804 53.04069 L 31.25804 48.953601 L 27.823108 52.257792 C 25.040497 54.953447 24.127412 55.605908 23.040454 55.605908 C 21.301322 55.605908 20.170914 54.040499 20.77961 52.518758 C 20.997002 51.95354 23.431809 49.214332 26.214421 46.475199 L 31.25804 41.475505 L 31.25804 38.997103 L 31.25804 36.475293 L 28.73623 36.475293 L 26.257829 36.475293 L 21.258134 41.518913 C 18.519001 44.301524 15.779793 46.736332 15.214575 46.953723 C 13.692835 47.562419 12.127425 46.432011 12.127425 44.692879 C 12.127425 43.605922 12.779887 42.692837 15.475541 39.910225 L 18.779732 36.475293 L 14.51901 36.475293 C 9.7363974 36.475293 8.6490845 35.997173 8.6490845 33.823258 C 8.6490845 31.823257 9.9969868 31.25804 14.692643 31.25804 L 18.779732 31.25804 L 15.475541 27.823108 C 12.866843 25.127453 12.127425 24.127271 12.127425 23.127271 C 12.127425 21.518573 12.823357 20.823018 14.51901 20.823018 C 15.649446 20.823018 16.649268 21.649479 21.040576 26.040788 L 26.257829 31.25804 L 28.73623 31.25804 L 31.25804 31.25804 L 31.25804 28.779639 L 31.25804 26.301237 L 25.82323 20.823018 C 22.823227 17.779537 20.38842 15.04047 20.38842 14.692643 C 20.38842 14.344817 20.69268 13.605695 21.083984 13.083956 C 22.301377 11.301346 23.736358 11.822917 27.692883 15.431616 L 31.25804 18.736324 L 31.25804 14.649235 C 31.25804 11.692711 31.431866 10.301268 31.953605 9.6056152 C 32.388388 8.996919 33.084057 8.6490845 33.866667 8.6490845 z " />
  </g>
  <g
     id="ICON_LAYER"
     transform="matrix(0.434783,0,0,0.434783,3.4318567,3.4318567)">
    <metadata
       id="metadata1">
Created by potrace 1.16, written by Peter Selinger 2001-2019
</metadata>
    <g
       transform="matrix(0.1,0,0,-0.1,0,140)"
       fill="#000000"
       stroke="none"
       id="g1" />
  </g>
</svg>
