<?xml version="1.0" encoding="UTF-8" standalone="no"?>
<svg
   width="256"
   height="256"
   viewBox="0 0 67.733332 67.733335"
   version="1.1"
   id="svg8"
   xmlns="http://www.w3.org/2000/svg"
   xmlns:svg="http://www.w3.org/2000/svg"
   xmlns:rdf="http://www.w3.org/1999/02/22-rdf-syntax-ns#"
   xmlns:cc="http://creativecommons.org/ns#"
   xmlns:dc="http://purl.org/dc/elements/1.1/">
  <defs
     id="defs2" />
  <metadata
     id="metadata5">
    <rdf:RDF>
      <cc:Work
         rdf:about="">
        <dc:format>image/svg+xml</dc:format>
        <dc:type
           rdf:resource="http://purl.org/dc/dcmitype/StillImage" />
        <dc:title />
      </cc:Work>
    </rdf:RDF>
  </metadata>
  <g
     id="layer1">
    <path
       id="rect833"
       style="opacity:1;fill:#ffffff;fill-opacity:0.7;stroke-width:1.09855;stroke-linecap:round;stroke-linejoin:round;stroke-opacity:0.995575"
       d="M 15.692065 0 C 6.9985218 1.2533184e-15 0 6.9985218 0 15.692065 L 0 52.041268 C 1.2533184e-15 60.734811 6.9985218 67.733333 15.692065 67.733333 L 52.041268 67.733333 C 60.734811 67.733333 67.733333 60.734811 67.733333 52.041268 L 67.733333 15.692065 C 67.733333 6.9985218 60.734811 0 52.041268 0 L 15.692065 0 z M 31.25804 14.759306 L 35.127572 14.759306 L 38.997103 14.759306 L 48.779968 23.846606 C 54.127799 28.846611 58.64937 33.281059 58.823283 33.672363 C 60.214588 37.32454 57.214537 41.890072 53.084098 42.45529 C 52.084097 42.585725 51.257853 42.846717 51.257853 43.02063 C 51.257853 43.498891 56.344933 47.803284 56.95363 47.803284 C 57.692761 47.803284 59.084249 46.498612 59.084249 45.759481 C 59.084249 45.368176 59.77983 45.194141 61.692875 45.194141 C 64.040703 45.194141 64.301501 45.281246 64.301501 46.063855 C 64.301501 47.411682 62.736258 50.19422 61.431909 51.237699 C 59.518864 52.75944 57.344939 53.064155 49.257975 52.93372 L 41.562321 52.802979 L 41.562321 50.41191 L 41.562321 48.020325 L 45.170886 47.8901 L 48.823376 47.759359 L 46.258158 45.194141 L 43.69294 42.585514 L 38.822953 42.585514 L 33.996891 42.585514 L 33.692517 44.368351 C 33.301212 46.890093 32.43164 48.324575 30.170768 50.324577 C 27.344679 52.80284 25.475218 53.107633 15.040426 52.93372 L 6.3882406 52.802979 L 4.9102946 51.194291 C 3.7798588 49.93342 3.4318319 49.194519 3.4318319 47.846692 C 3.4318319 45.716255 4.5189883 44.325023 7.4755127 42.672847 C 8.6929051 41.977195 10.910269 40.759497 12.301575 39.976888 L 14.866793 38.54235 L 11.43186 37.498486 C 9.5622935 36.933268 6.9969547 36.194287 5.736084 35.802983 L 3.4752401 35.150826 L 5.9536418 30.150614 C 8.30147 25.454958 8.4754859 25.194328 9.7363566 25.194328 C 10.432009 25.194328 15.25798 25.672387 20.38842 26.281083 C 25.518859 26.889779 30.127552 27.368355 30.649292 27.368355 C 31.127553 27.368355 32.997179 26.281189 34.779789 24.933362 C 39.040663 21.759446 38.953686 21.889752 37.997164 20.846273 C 37.344989 20.15062 36.649234 19.977075 34.214449 19.977075 L 31.25804 19.977075 L 31.25804 17.368449 L 31.25804 14.759306 z M 42.73641 25.281144 L 37.779606 29.020451 L 32.779911 32.759757 L 22.171257 31.585669 C 11.649508 30.455233 10.86659 30.454953 10.823112 31.759302 C 10.823112 31.889737 15.214222 33.324571 20.562052 34.933268 L 30.30151 37.846269 L 41.692546 37.716044 C 52.475164 37.585609 53.08415 37.542193 53.692847 36.716105 C 54.301543 35.890017 54.21429 35.715843 51.953418 33.672363 C 50.649069 32.454971 48.040392 30.107426 46.170825 28.368294 L 42.73641 25.281144 z M 21.822957 40.890011 C 21.388174 40.933489 18.301438 42.455446 14.953609 44.281535 L 8.8666423 47.585726 L 16.692521 47.715951 C 21.866439 47.802907 24.910326 47.672586 25.736414 47.32476 C 27.258154 46.672585 28.649414 44.933657 28.649414 43.672786 C 28.649414 42.80322 28.2143 42.542334 25.64908 41.759725 C 23.996905 41.237985 22.301219 40.890011 21.822957 40.890011 z " />
  </g>
  <g
     id="ICON_LAYER"
     transform="matrix(0.434783,0,0,0.434783,3.4318567,2.1508276)">
    <metadata
       id="metadata1">
Created by potrace 1.16, written by Peter Selinger 2001-2019
</metadata>
    <g
       transform="matrix(0.1,0,0,-0.1,0,140)"
       fill="#000000"
       stroke="none"
       id="g1" />
  </g>
</svg>
