<?xml version="1.0" encoding="UTF-8" standalone="no"?>
<svg
   width="256"
   height="256"
   viewBox="0 0 67.733332 67.733335"
   version="1.1"
   id="svg8"
   sodipodi:docname="icon-m-dumbbell.svg"
   inkscape:version="1.4.3 (0d15f75042, 2025-12-25)"
   xmlns:inkscape="http://www.inkscape.org/namespaces/inkscape"
   xmlns:sodipodi="http://sodipodi.sourceforge.net/DTD/sodipodi-0.dtd"
   xmlns="http://www.w3.org/2000/svg"
   xmlns:svg="http://www.w3.org/2000/svg"
   xmlns:rdf="http://www.w3.org/1999/02/22-rdf-syntax-ns#"
   xmlns:cc="http://creativecommons.org/ns#"
   xmlns:dc="http://purl.org/dc/elements/1.1/">
  <sodipodi:namedview
     id="namedview1"
     pagecolor="#ffffff"
     bordercolor="#000000"
     borderopacity="0.25"
     inkscape:showpageshadow="2"
     inkscape:pageopacity="0.0"
     inkscape:pagecheckerboard="true"
     inkscape:deskcolor="#d1d1d1"
     inkscape:zoom="3.0898438"
     inkscape:cx="127.83818"
     inkscape:cy="128"
     inkscape:window-width="1920"
     inkscape:window-height="1000"
     inkscape:window-x="1920"
     inkscape:window-y="27"
     inkscape:window-maximized="1"
     inkscape:current-layer="svg8" />
  <defs
     id="defs2" />
  <metadata
     id="metadata5">
    <rdf:RDF>
      <cc:Work
         rdf:about="">
        <dc:format>image/svg+xml</dc:format>
        <dc:type
           rdf:resource="http://purl.org/dc/dcmitype/StillImage" />
      </cc:Work>
    </rdf:RDF>
  </metadata>
  <path
     id="rect833"
     style="fill:#ffffff;fill-opacity:0.7;stroke-width:1.09855;stroke-linecap:round;stroke-linejoin:round;stroke-opacity:0.995575"
     d="M 15.692065 0 C 6.9985219 -2.5066369e-15 0 6.9985219 0 15.692065 L 0 52.041268 C -2.5066369e-15 60.734811 6.9985219 67.733333 15.692065 67.733333 L 52.041268 67.733333 C 60.734811 67.733333 67.733333 60.734811 67.733333 52.041268 L 67.733333 15.692065 C 67.733333 6.9985219 60.734811 0 52.041268 0 L 15.692065 0 z M 16.388147 20.38842 C 19.475106 20.38842 21.25809 20.562525 21.605916 20.910352 C 22.345047 21.649483 22.345047 46.083851 21.605916 46.822982 C 21.25809 47.170809 19.475106 47.344914 16.388147 47.344914 C 12.21423 47.344914 11.692494 47.257739 11.257711 46.518608 C 10.649015 45.388173 10.649015 22.345162 11.257711 21.214726 C 11.692494 20.475598 12.21423 20.38842 16.388147 20.38842 z M 51.345186 20.38842 C 55.519103 20.38842 56.04084 20.475595 56.475623 21.214726 C 56.736492 21.736465 56.910221 26.562313 56.910221 33.866667 C 56.910221 41.171021 56.736492 45.996869 56.475623 46.518608 C 56.04084 47.257736 55.519103 47.344914 51.345186 47.344914 C 48.258227 47.344914 46.475244 47.170809 46.127417 46.822982 C 45.388286 46.083851 45.388286 21.649483 46.127417 20.910352 C 46.475244 20.562525 48.258227 20.38842 51.345186 20.38842 z M 61.371965 26.045955 C 62.3774 26.04052 63.431743 26.214377 63.77957 26.562203 C 64.127396 26.910029 64.301502 29.170941 64.301502 33.910075 C 64.301502 41.649214 64.214424 41.823121 61.170943 41.605729 L 59.30129 41.475505 L 59.171065 34.301266 C 59.12759 30.388219 59.170922 26.909959 59.257882 26.605611 C 59.410056 26.236045 60.366529 26.05139 61.371965 26.045955 z M 5.6534017 26.110034 C 5.9156302 26.100523 6.1929648 26.105864 6.4755737 26.127604 L 8.4320435 26.257829 L 8.4320435 33.866667 L 8.4320435 41.475505 L 6.5623902 41.605729 C 3.5189096 41.823121 3.4318319 41.649213 3.4318319 33.910075 C 3.4318319 29.040506 3.6059374 26.910029 3.9537638 26.562203 C 4.2146336 26.301336 4.8667162 26.138567 5.6534017 26.110034 z M 24.736475 30.823442 L 33.866667 30.823442 L 42.996859 30.823442 L 42.996859 33.866667 L 42.996859 36.909892 L 33.866667 36.909892 L 24.736475 36.909892 L 24.736475 33.866667 L 24.736475 30.823442 z " />
</svg>
