<?xml version="1.0" encoding="UTF-8" standalone="no"?>
<svg
   width="256"
   height="256"
   viewBox="0 0 67.733332 67.733335"
   version="1.1"
   id="svg8"
   sodipodi:docname="icon-m-handball.svg"
   inkscape:version="1.4.3 (0d15f75042, 2025-12-25)"
   xmlns:inkscape="http://www.inkscape.org/namespaces/inkscape"
   xmlns:sodipodi="http://sodipodi.sourceforge.net/DTD/sodipodi-0.dtd"
   xmlns="http://www.w3.org/2000/svg"
   xmlns:svg="http://www.w3.org/2000/svg"
   xmlns:rdf="http://www.w3.org/1999/02/22-rdf-syntax-ns#"
   xmlns:cc="http://creativecommons.org/ns#"
   xmlns:dc="http://purl.org/dc/elements/1.1/">
  <sodipodi:namedview
     id="namedview1"
     pagecolor="#ffffff"
     bordercolor="#000000"
     borderopacity="0.25"
     inkscape:showpageshadow="2"
     inkscape:pageopacity="0.0"
     inkscape:pagecheckerboard="true"
     inkscape:deskcolor="#d1d1d1"
     inkscape:zoom="3.0898438"
     inkscape:cx="127.83818"
     inkscape:cy="128"
     inkscape:window-width="1920"
     inkscape:window-height="1000"
     inkscape:window-x="1920"
     inkscape:window-y="27"
     inkscape:window-maximized="1"
     inkscape:current-layer="svg8" />
  <defs
     id="defs2" />
  <metadata
     id="metadata5">
    <rdf:RDF>
      <cc:Work
         rdf:about="">
        <dc:format>image/svg+xml</dc:format>
        <dc:type
           rdf:resource="http://purl.org/dc/dcmitype/StillImage" />
      </cc:Work>
    </rdf:RDF>
  </metadata>
  <path
     id="rect833"
     style="fill:#ffffff;fill-opacity:0.7;stroke-width:1.09855;stroke-linecap:round;stroke-linejoin:round;stroke-opacity:0.995575"
     d="M 15.692065 0 C 6.9985219 -2.5066369e-15 0 6.9985219 0 15.692065 L 0 52.041268 C -2.5066369e-15 60.734811 6.9985219 67.733333 15.692065 67.733333 L 52.041268 67.733333 C 60.734811 67.733333 67.733333 60.734811 67.733333 52.041268 L 67.733333 15.692065 C 67.733333 6.9985219 60.734811 0 52.041268 0 L 15.692065 0 z M 37.722245 5.0472372 C 40.983118 5.0472372 42.678464 9.5693882 40.156722 11.525911 C 36.852371 14.09113 32.461014 10.699739 34.417538 7.0910401 C 34.678407 6.5693005 35.200321 5.9169254 35.591626 5.6125773 C 35.98293 5.3082292 36.939636 5.0472372 37.722245 5.0472372 z M 28.023096 5.4823527 C 28.024152 5.4822628 28.025177 5.4823527 28.026196 5.4823527 C 28.460979 5.4823527 31.634858 7.1777424 31.895728 7.5690471 C 32.026163 7.7864386 31.809026 8.7868584 31.417721 9.8738159 C 30.548155 12.482514 30.852485 17.264858 32.069877 19.656165 C 33.417705 22.264863 35.156762 23.830305 39.80894 26.569438 C 42.069811 27.917265 44.591812 29.612576 45.4179 30.308228 C 48.417902 32.960405 50.80911 40.090827 50.28737 44.743005 C 49.939544 47.438659 48.678841 51.177851 47.93971 51.438721 C 47.67884 51.569156 46.548265 51.134365 45.461308 50.48219 L 43.46143 49.308618 L 44.243811 47.96038 C 45.330769 45.9169 45.287501 40.177937 44.113587 37.917066 C 43.635325 36.960543 43.070073 36.178154 42.852682 36.178154 C 42.591812 36.134675 38.983162 42.047295 34.809245 49.264693 C 30.59185 56.482091 27.026539 62.52569 26.852625 62.656124 C 26.548277 62.960473 22.591386 60.830063 22.591386 60.39528 C 22.591386 60.177888 26.417883 53.395176 29.07006 48.916911 L 30.026591 47.308224 L 28.070121 46.17806 C 27.026642 45.569364 25.982743 45.04738 25.765352 45.04738 C 25.591439 45.04738 24.63511 46.438947 23.722066 48.091122 C 22.765543 49.786776 21.852623 51.134347 21.722188 51.134347 C 21.548275 51.134347 20.504447 50.612879 19.374011 50.004183 L 17.374133 48.873503 L 18.200439 47.525781 C 18.635222 46.743172 21.591567 41.65635 24.722005 36.221562 L 30.46119 26.308472 L 29.417843 25.047567 C 25.635231 20.569302 24.634881 12.917132 27.069666 7.0910401 C 27.457914 6.2282675 27.888983 5.4937746 28.023096 5.4823527 z M 43.5684 15.140161 C 45.024785 15.093573 46.569907 15.762211 47.76556 17.047538 C 49.069912 18.482322 49.200449 18.830085 48.983057 20.612695 C 48.678709 23.395307 46.852273 25.047567 44.069662 25.047567 C 42.374009 25.047567 41.852709 24.829975 40.591838 23.569104 C 39.374446 22.351711 39.113375 21.743105 39.113375 20.308321 C 39.113375 18.264841 40.026417 16.612932 41.678593 15.656409 C 42.262833 15.330322 42.906407 15.161338 43.5684 15.140161 z " />
</svg>
