<?xml version="1.0" encoding="UTF-8" standalone="no"?>
<svg
   width="256"
   height="256"
   viewBox="0 0 67.733332 67.733335"
   version="1.1"
   id="svg8"
   xmlns="http://www.w3.org/2000/svg"
   xmlns:svg="http://www.w3.org/2000/svg"
   xmlns:rdf="http://www.w3.org/1999/02/22-rdf-syntax-ns#"
   xmlns:cc="http://creativecommons.org/ns#"
   xmlns:dc="http://purl.org/dc/elements/1.1/">
  <defs
     id="defs2" />
  <metadata
     id="metadata5">
    <rdf:RDF>
      <cc:Work
         rdf:about="">
        <dc:format>image/svg+xml</dc:format>
        <dc:type
           rdf:resource="http://purl.org/dc/dcmitype/StillImage" />
        <dc:title />
      </cc:Work>
    </rdf:RDF>
  </metadata>
  <g
     id="layer1">
    <path
       id="rect833"
       style="opacity:1;fill:#ffffff;fill-opacity:0.7;stroke-width:1.09855;stroke-linecap:round;stroke-linejoin:round;stroke-opacity:0.995575"
       d="M 15.692065 0 C 6.9985218 1.2533184e-15 0 6.9985218 0 15.692065 L 0 52.041268 C 1.2533184e-15 60.734811 6.9985218 67.733333 15.692065 67.733333 L 52.041268 67.733333 C 60.734811 67.733333 67.733333 60.734811 67.733333 52.041268 L 67.733333 15.692065 C 67.733333 6.9985218 60.734811 0 52.041268 0 L 15.692065 0 z M 33.74161 8.6847412 C 36.138351 8.6793064 38.540825 8.8856134 40.127783 9.2986572 C 48.823443 11.559529 56.171221 18.907306 58.432092 27.602966 C 59.25818 30.863839 59.25818 36.86381 58.432092 40.124683 C 56.171221 48.820343 48.823443 56.16812 40.127783 58.428992 C 36.866911 59.255079 30.866423 59.255079 27.60555 58.428992 C 18.90989 56.16812 11.562113 48.820343 9.301241 40.124683 C 8.4751533 36.86381 8.4751533 30.863839 9.301241 27.602966 C 11.562113 19.037741 18.866762 11.646415 27.388509 9.3420654 C 28.953728 8.9072824 31.344868 8.690176 33.74161 8.6847412 z M 36.431885 13.733529 L 36.562109 15.864148 L 36.692851 17.950842 L 44.475321 22.429122 C 48.736195 24.907385 52.344845 26.820279 52.518758 26.689844 C 52.997019 26.211582 50.605864 22.385645 48.258036 19.863904 C 46.692817 18.124772 44.953663 16.864219 42.823226 15.82074 C 41.127572 14.951174 38.997025 14.168408 38.08398 13.994495 L 36.431885 13.733529 z M 30.30151 13.863753 C 29.736292 13.863753 28.127728 14.385807 26.692944 14.951025 C 25.25816 15.559722 24.040463 16.037781 23.996985 16.037781 C 23.910028 16.037781 23.86676 20.646474 23.86676 26.298653 C 23.86676 31.950832 24.040629 36.472849 24.214543 36.385893 C 24.431934 36.298936 26.083836 35.385569 27.909924 34.34209 L 31.25804 32.38562 L 31.25804 23.124687 L 31.25804 13.863753 L 30.30151 13.863753 z M 18.475358 20.820435 C 18.084053 20.820435 16.431687 23.472511 15.388208 25.689905 C 13.30125 30.255126 13.040398 36.211828 14.736051 40.646615 L 15.171167 41.73337 L 16.910079 40.733431 L 18.649508 39.733492 L 18.649508 30.255518 C 18.649508 25.0816 18.562315 20.820435 18.475358 20.820435 z M 36.68975 23.864176 C 36.561011 23.893745 36.475293 25.795412 36.475293 28.124898 L 36.475293 32.38562 L 44.040723 36.820492 C 48.214639 39.255276 51.866628 41.298701 52.170976 41.342179 C 52.736194 41.472614 53.562368 39.124623 54.040629 35.994185 L 54.345003 33.994307 L 45.606002 28.907279 C 40.823389 26.124668 36.823286 23.864176 36.692851 23.864176 C 36.691832 23.864176 36.690764 23.863944 36.68975 23.864176 z M 33.823258 36.907308 C 33.736302 36.907308 30.040389 38.994517 25.64908 41.559737 L 17.649052 46.21165 L 20.345011 48.733459 C 21.866752 50.168243 23.344854 51.25541 23.649202 51.168453 C 24.431812 50.99454 41.214468 41.516233 41.257947 41.255363 C 41.257947 41.124928 39.649383 40.125025 37.649382 38.951111 C 35.64938 37.820675 33.953693 36.907308 33.823258 36.907308 z M 46.649349 44.298588 C 46.214566 44.298588 31.257918 52.820601 30.6927 53.429297 C 29.953569 54.081471 33.910336 54.385635 36.953817 53.863896 C 40.910342 53.168243 45.301556 50.994515 47.910254 48.298861 L 50.040356 46.168241 L 48.519002 45.211711 C 47.692915 44.733449 46.86674 44.298588 46.649349 44.298588 z " />
  </g>
  <g
     id="ICON_LAYER"
     transform="matrix(0.434783,0,0,0.434783,3.4318567,3.4291915)">
    <metadata
       id="metadata1">
Created by potrace 1.16, written by Peter Selinger 2001-2019
</metadata>
    <g
       transform="matrix(0.1,0,0,-0.1,0,140)"
       fill="#000000"
       stroke="none"
       id="g1" />
  </g>
</svg>
