<?xml version="1.0" encoding="UTF-8" standalone="no"?>
<svg
   width="256"
   height="256"
   viewBox="0 0 67.733332 67.733335"
   version="1.1"
   id="svg8"
   sodipodi:docname="icon-m-kayaking.svg"
   inkscape:version="1.4.3 (0d15f75042, 2025-12-25)"
   xmlns:inkscape="http://www.inkscape.org/namespaces/inkscape"
   xmlns:sodipodi="http://sodipodi.sourceforge.net/DTD/sodipodi-0.dtd"
   xmlns="http://www.w3.org/2000/svg"
   xmlns:svg="http://www.w3.org/2000/svg"
   xmlns:rdf="http://www.w3.org/1999/02/22-rdf-syntax-ns#"
   xmlns:cc="http://creativecommons.org/ns#"
   xmlns:dc="http://purl.org/dc/elements/1.1/">
  <sodipodi:namedview
     id="namedview1"
     pagecolor="#ffffff"
     bordercolor="#000000"
     borderopacity="0.25"
     inkscape:showpageshadow="2"
     inkscape:pageopacity="0.0"
     inkscape:pagecheckerboard="true"
     inkscape:deskcolor="#d1d1d1"
     inkscape:zoom="3.0898438"
     inkscape:cx="127.83818"
     inkscape:cy="128"
     inkscape:window-width="1920"
     inkscape:window-height="1000"
     inkscape:window-x="1920"
     inkscape:window-y="27"
     inkscape:window-maximized="1"
     inkscape:current-layer="svg8" />
  <defs
     id="defs2" />
  <metadata
     id="metadata5">
    <rdf:RDF>
      <cc:Work
         rdf:about="">
        <dc:format>image/svg+xml</dc:format>
        <dc:type
           rdf:resource="http://purl.org/dc/dcmitype/StillImage" />
      </cc:Work>
    </rdf:RDF>
  </metadata>
  <path
     id="rect833"
     style="fill:#ffffff;fill-opacity:0.7;stroke-width:1.09855;stroke-linecap:round;stroke-linejoin:round;stroke-opacity:0.995575"
     d="M 15.692065 0 C 6.9985219 -2.5066369e-15 0 6.9985219 0 15.692065 L 0 52.041268 C -2.5066369e-15 60.734811 6.9985219 67.733333 15.692065 67.733333 L 52.041268 67.733333 C 60.734811 67.733333 67.733333 60.734811 67.733333 52.041268 L 67.733333 15.692065 C 67.733333 6.9985219 60.734811 0 52.041268 0 L 15.692065 0 z M 51.301262 7.3447713 C 51.475175 7.3447713 53.301393 8.1276775 55.388351 9.0842001 C 57.779658 10.171158 59.083943 11.040626 58.953508 11.388452 C 58.866551 11.649322 58.084022 13.345148 57.301412 15.127759 C 56.040542 17.91037 55.649116 18.432002 54.170854 19.040698 C 52.4752 19.779829 52.34497 19.953788 47.953662 29.910319 C 45.475399 35.519019 43.431974 40.21425 43.431974 40.431641 C 43.431974 40.605554 44.171026 40.909955 45.08407 41.040389 C 51.171032 42.04039 63.866903 45.69259 63.866903 46.475199 C 63.866903 46.95346 55.431934 49.95354 54.040629 49.95354 C 53.736281 49.95354 52.562579 49.257757 51.345186 48.431669 L 49.127751 46.953723 L 46.910315 48.431669 C 43.171181 50.953411 39.345089 50.866804 35.692912 48.214628 L 33.866667 46.910315 L 32.040422 48.214628 C 28.388245 50.866804 24.562222 50.953481 20.77961 48.388261 C 18.562217 46.909999 18.518969 46.910157 17.432011 47.649288 C 14.432009 49.823206 14.040453 49.997369 12.779582 49.736499 C 10.823059 49.388673 3.8664307 46.866504 3.8664307 46.475199 C 3.8664307 46.040416 13.996831 42.736191 17.996834 41.910103 C 19.909879 41.518799 21.475103 41.171202 21.518583 41.127722 C 21.562062 41.084244 22.431644 38.475498 23.431645 35.388538 C 26.170778 26.823313 27.301514 26.127656 33.823259 29.301571 L 37.866423 31.25804 L 41.344763 29.344979 L 44.823104 27.475326 L 46.953723 22.823413 C 49.040681 18.214713 49.040435 18.127515 48.388261 16.562297 C 47.736086 14.997078 47.779503 14.86655 49.3882 11.170894 C 50.257766 9.0404585 51.127349 7.3447713 51.301262 7.3447713 z M 33.30081 16.147335 C 34.652034 16.133068 36.388249 16.638602 37.170858 17.388603 C 40.649122 20.649476 38.605801 26.040788 33.866667 26.040788 C 30.388403 26.040788 27.997055 22.953587 29.084013 19.779671 C 29.562274 18.344887 30.910362 16.823 32.127755 16.344739 C 32.442972 16.214304 32.850402 16.15209 33.30081 16.147335 z M 33.342151 34.736381 C 33.116176 34.771104 31.692639 39.217091 31.692639 39.823409 C 31.692639 40.127757 33.127667 40.301344 35.388538 40.344824 L 39.127328 40.388233 L 40.171192 37.997164 C 40.779888 36.649337 41.257947 35.475498 41.257947 35.388538 C 41.257947 35.258104 40.388365 35.605771 39.344885 36.127511 L 37.431824 37.040633 L 35.475354 35.909953 C 34.388396 35.257779 33.431695 34.736381 33.344735 34.736381 C 33.344098 34.736381 33.34332 34.736362 33.342668 34.736381 L 33.342151 34.736381 z M 18.518766 53.04069 C 18.518766 52.997212 19.606003 53.475341 20.910352 54.084037 C 24.127746 55.5623 28.388429 55.605778 31.605823 54.084037 L 33.866667 53.04069 L 36.170919 54.084037 C 39.344834 55.5623 43.605658 55.5623 46.779574 54.084037 L 49.083826 53.04069 L 51.345186 54.084037 C 52.649535 54.649255 54.823281 55.214574 56.258065 55.301534 L 58.866691 55.475167 L 58.996916 57.953569 L 59.127657 60.388562 L 56.736072 60.388562 C 55.431723 60.388562 53.171161 59.997039 51.736377 59.562256 C 49.127679 58.736169 49.040489 58.736169 46.431791 59.562256 C 44.997007 59.997039 42.736376 60.388562 41.475505 60.388562 C 40.214634 60.388562 37.953485 59.997039 36.518701 59.562256 C 33.910003 58.736169 33.82333 58.736169 31.214632 59.562256 C 27.866803 60.605735 24.649371 60.605735 21.301542 59.562256 C 18.692844 58.736169 18.605654 58.736169 15.996956 59.562256 C 14.562173 59.997039 12.301611 60.388562 10.997262 60.388562 L 8.6056763 60.388562 L 8.7364177 57.953569 L 8.8666423 55.475167 L 11.475269 55.301534 C 12.953531 55.171099 15.04053 54.649255 16.257922 54.084037 C 17.475315 53.51882 18.475286 53.04069 18.518766 53.04069 z " />
</svg>
