<?xml version="1.0" encoding="UTF-8" standalone="no"?>
<svg
   width="256"
   height="256"
   viewBox="0 0 67.733332 67.733335"
   version="1.1"
   id="svg8"
   sodipodi:docname="icon-m-sleep.svg"
   inkscape:version="1.4.3 (0d15f75042, 2025-12-25)"
   xmlns:inkscape="http://www.inkscape.org/namespaces/inkscape"
   xmlns:sodipodi="http://sodipodi.sourceforge.net/DTD/sodipodi-0.dtd"
   xmlns="http://www.w3.org/2000/svg"
   xmlns:svg="http://www.w3.org/2000/svg"
   xmlns:rdf="http://www.w3.org/1999/02/22-rdf-syntax-ns#"
   xmlns:cc="http://creativecommons.org/ns#"
   xmlns:dc="http://purl.org/dc/elements/1.1/">
  <sodipodi:namedview
     id="namedview1"
     pagecolor="#ffffff"
     bordercolor="#000000"
     borderopacity="0.25"
     inkscape:showpageshadow="2"
     inkscape:pageopacity="0.0"
     inkscape:pagecheckerboard="true"
     inkscape:deskcolor="#d1d1d1"
     inkscape:zoom="3.0898438"
     inkscape:cx="127.83818"
     inkscape:cy="128"
     inkscape:window-width="1920"
     inkscape:window-height="1000"
     inkscape:window-x="1920"
     inkscape:window-y="27"
     inkscape:window-maximized="1"
     inkscape:current-layer="svg8" />
  <defs
     id="defs2" />
  <metadata
     id="metadata5">
    <rdf:RDF>
      <cc:Work
         rdf:about="">
        <dc:format>image/svg+xml</dc:format>
        <dc:type
           rdf:resource="http://purl.org/dc/dcmitype/StillImage" />
      </cc:Work>
    </rdf:RDF>
  </metadata>
  <path
     id="rect833"
     style="fill:#ffffff;fill-opacity:0.7;stroke-width:1.09855;stroke-linecap:round;stroke-linejoin:round;stroke-opacity:0.995575"
     d="M 15.692065 0 C 6.9985219 -2.5066369e-15 0 6.9985219 0 15.692065 L 0 52.041268 C -2.5066369e-15 60.734811 6.9985219 67.733333 15.692065 67.733333 L 52.041268 67.733333 C 60.734811 67.733333 67.733333 60.734811 67.733333 52.041268 L 67.733333 15.692065 C 67.733333 6.9985219 60.734811 0 52.041268 0 L 15.692065 0 z M 53.214323 14.274064 C 56.312152 14.274064 59.410038 14.524405 59.910038 15.024406 C 60.692648 15.807015 60.823179 17.632883 60.171004 19.328536 C 59.692743 20.545929 55.258188 26.024304 54.258187 26.633 C 53.432103 27.111261 53.475437 28.502609 54.345003 28.850435 C 54.736308 28.98087 56.040542 29.111401 57.301412 29.111401 C 58.562283 29.111401 59.779839 29.328468 60.084188 29.632817 C 60.77984 30.328469 60.77984 32.676471 60.084188 33.372123 C 59.345056 34.111254 47.084106 34.111254 46.344975 33.372123 C 45.692799 32.719949 45.649393 30.241531 46.301567 28.98066 C 46.866785 27.937181 50.562209 23.415635 52.214384 21.806938 C 53.736125 20.285197 52.909968 19.546094 49.692574 19.546094 C 47.99692 19.546094 46.953391 19.32879 46.518608 18.850529 C 45.649042 17.980963 45.649042 15.893972 46.518608 15.024406 C 47.018608 14.524405 50.116494 14.274064 53.214323 14.274064 z M 27.127543 24.328748 L 33.605701 24.328748 C 41.040494 24.328748 41.301399 24.415616 40.953573 27.589531 C 40.736181 29.241707 40.214574 30.111111 37.345007 33.45894 C 35.301527 35.893725 34.083944 37.632732 34.257857 38.024036 C 34.431771 38.502298 35.17076 38.676709 36.909892 38.676709 C 40.257721 38.676709 41.040389 39.154898 41.040389 41.285335 C 41.040389 42.546206 40.823297 43.11102 40.2146 43.458846 C 39.736339 43.676237 36.736279 43.893962 33.518884 43.893962 C 28.25801 43.893962 27.605637 43.806856 26.909985 43.024247 C 26.301288 42.372072 26.214587 41.763518 26.431978 40.372213 C 26.64937 38.937429 27.475561 37.676273 30.214693 34.458879 C 34.345132 29.632788 34.301251 29.24146 29.822986 29.024068 C 27.127331 28.893633 26.9101 28.806713 26.518795 27.719755 C 26.21445 26.937146 26.257784 26.198113 26.605611 25.415503 L 27.127543 24.328748 z M 14.301453 33.894055 C 21.51885 33.894055 21.692707 33.980642 21.388359 37.328471 C 21.214445 39.154559 20.823187 39.893924 18.475358 42.633057 C 16.997096 44.415668 15.518993 45.980822 15.171167 46.198214 C 14.388554 46.632997 14.344703 47.633014 15.083834 48.111275 C 15.344704 48.285188 16.866731 48.546181 18.43195 48.676616 L 21.258134 48.893657 L 21.388359 50.546269 C 21.60575 53.32888 21.258147 53.459269 14.51901 53.459269 C 11.214659 53.459269 8.2145998 53.328738 7.8232951 53.198303 C 7.3015555 52.980912 7.1277303 52.328739 7.1277303 50.633085 C 7.1277303 48.45917 7.2580234 48.154939 9.7797648 45.111458 C 11.258027 43.372326 12.823323 41.6765 13.258106 41.372152 C 14.214629 40.719977 14.345089 39.763202 13.56248 39.284941 C 13.258131 39.111028 11.736174 38.850552 10.170955 38.720117 L 7.3447713 38.459151 L 7.2145467 36.807056 C 7.1275901 35.894012 7.3013892 34.850114 7.6057373 34.502287 C 7.997042 34.024026 9.4753608 33.894055 14.301453 33.894055 z " />
</svg>
