<?xml version="1.0" encoding="UTF-8" standalone="no"?>
<svg
   width="256"
   height="256"
   viewBox="0 0 67.733332 67.733335"
   version="1.1"
   id="svg8"
   sodipodi:docname="icon-m-tennis.svg"
   inkscape:version="1.4.3 (0d15f75042, 2025-12-25)"
   xmlns:inkscape="http://www.inkscape.org/namespaces/inkscape"
   xmlns:sodipodi="http://sodipodi.sourceforge.net/DTD/sodipodi-0.dtd"
   xmlns="http://www.w3.org/2000/svg"
   xmlns:svg="http://www.w3.org/2000/svg"
   xmlns:rdf="http://www.w3.org/1999/02/22-rdf-syntax-ns#"
   xmlns:cc="http://creativecommons.org/ns#"
   xmlns:dc="http://purl.org/dc/elements/1.1/">
  <sodipodi:namedview
     id="namedview1"
     pagecolor="#ffffff"
     bordercolor="#000000"
     borderopacity="0.25"
     inkscape:showpageshadow="2"
     inkscape:pageopacity="0.0"
     inkscape:pagecheckerboard="true"
     inkscape:deskcolor="#d1d1d1"
     inkscape:zoom="3.0898438"
     inkscape:cx="127.83818"
     inkscape:cy="128"
     inkscape:window-width="1920"
     inkscape:window-height="1000"
     inkscape:window-x="1920"
     inkscape:window-y="27"
     inkscape:window-maximized="1"
     inkscape:current-layer="svg8" />
  <defs
     id="defs2" />
  <metadata
     id="metadata5">
    <rdf:RDF>
      <cc:Work
         rdf:about="">
        <dc:format>image/svg+xml</dc:format>
        <dc:type
           rdf:resource="http://purl.org/dc/dcmitype/StillImage" />
      </cc:Work>
    </rdf:RDF>
  </metadata>
  <path
     id="rect833"
     style="fill:#ffffff;fill-opacity:0.7;stroke-width:1.09855;stroke-linecap:round;stroke-linejoin:round;stroke-opacity:0.995575"
     d="M 15.692065 0 C 6.9985219 -2.5066369e-15 0 6.9985219 0 15.692065 L 0 52.041268 C -2.5066369e-15 60.734811 6.9985219 67.733333 15.692065 67.733333 L 52.041268 67.733333 C 60.734811 67.733333 67.733333 60.734811 67.733333 52.041268 L 67.733333 15.692065 C 67.733333 6.9985219 60.734811 0 52.041268 0 L 15.692065 0 z M 42.997892 5.9417562 C 48.839355 5.9274899 53.594993 9.0092215 55.953691 14.487488 C 58.214563 19.79184 55.997242 27.878354 50.779846 33.35662 C 45.56245 38.747929 42.692551 39.965711 33.996891 40.487451 C 25.692535 40.965712 25.170894 41.226227 17.910018 48.400147 L 12.127425 54.139331 L 10.388513 52.443827 L 8.6490845 50.748324 L 14.301453 45.052547 C 21.388416 37.878627 21.692996 37.226271 22.171257 29.139307 C 22.649518 20.574082 24.083938 17.095838 29.127421 12.139311 C 32.040467 9.269743 36.996855 6.6614165 40.431641 6.1396769 C 41.306641 6.009242 42.163398 5.9437942 42.997892 5.9417562 z M 42.986007 10.976591 C 42.105571 10.99833 41.171097 11.182736 39.910226 11.530562 C 33.562395 13.226216 28.040543 19.704772 27.475326 26.096082 C 27.170977 29.400432 27.866768 31.356759 29.953727 33.269804 C 36.605907 39.26981 50.47527 31.269836 51.562228 20.748088 C 51.997011 16.35678 49.605795 12.443818 45.736227 11.400338 C 44.692747 11.09599 43.866442 10.954852 42.986007 10.976591 z M 49.56235 41.921989 C 52.388439 42.008946 53.084089 42.182683 54.692786 43.313119 C 57.431919 45.182685 59.084249 48.313241 59.084249 51.574113 C 59.04077 57.443684 54.779483 61.791577 49.083826 61.791577 C 43.388168 61.791577 39.127399 57.443613 39.083919 51.617521 C 39.083919 47.617517 41.606043 43.791582 45.25822 42.226363 C 45.823438 42.008975 47.736261 41.835029 49.56235 41.921989 z M 49.083826 46.628679 C 48.279477 46.628679 47.475577 46.900137 46.562533 47.443616 C 44.562531 48.661008 43.60559 51.008956 44.257764 53.139392 C 44.953417 55.443742 46.562084 56.574325 49.083826 56.574325 C 51.605567 56.574325 53.214752 55.443742 53.910405 53.139392 C 54.562579 51.008956 53.605638 48.661008 51.605636 47.443616 C 50.692591 46.900137 49.888174 46.628679 49.083826 46.628679 z " />
</svg>
