<?xml version="1.0" encoding="UTF-8" standalone="no"?>
<svg
   width="256"
   height="256"
   viewBox="0 0 67.733332 67.733335"
   version="1.1"
   id="svg8"
   sodipodi:docname="icon-m-barbell.svg"
   inkscape:version="1.4.3 (0d15f75042, 2025-12-25)"
   xmlns:inkscape="http://www.inkscape.org/namespaces/inkscape"
   xmlns:sodipodi="http://sodipodi.sourceforge.net/DTD/sodipodi-0.dtd"
   xmlns="http://www.w3.org/2000/svg"
   xmlns:svg="http://www.w3.org/2000/svg"
   xmlns:rdf="http://www.w3.org/1999/02/22-rdf-syntax-ns#"
   xmlns:cc="http://creativecommons.org/ns#"
   xmlns:dc="http://purl.org/dc/elements/1.1/">
  <sodipodi:namedview
     id="namedview1"
     pagecolor="#ffffff"
     bordercolor="#000000"
     borderopacity="0.25"
     inkscape:showpageshadow="2"
     inkscape:pageopacity="0.0"
     inkscape:pagecheckerboard="true"
     inkscape:deskcolor="#d1d1d1"
     inkscape:zoom="1.5449219"
     inkscape:cx="71.848293"
     inkscape:cy="134.311"
     inkscape:window-width="1920"
     inkscape:window-height="1000"
     inkscape:window-x="1920"
     inkscape:window-y="27"
     inkscape:window-maximized="1"
     inkscape:current-layer="svg8" />
  <defs
     id="defs2" />
  <metadata
     id="metadata5">
    <rdf:RDF>
      <cc:Work
         rdf:about="">
        <dc:format>image/svg+xml</dc:format>
        <dc:type
           rdf:resource="http://purl.org/dc/dcmitype/StillImage" />
      </cc:Work>
    </rdf:RDF>
  </metadata>
  <path
     id="rect833"
     style="fill:#ffffff;fill-opacity:0.7;stroke-width:1.09855;stroke-linecap:round;stroke-linejoin:round;stroke-opacity:0.995575"
     d="M 15.692065 0 C 6.9985219 -2.5066369e-15 0 6.9985219 0 15.692065 L 0 52.041268 C -2.5066369e-15 60.734811 6.9985219 67.733333 15.692065 67.733333 L 52.041268 67.733333 C 60.734811 67.733333 67.733333 60.734811 67.733333 52.041268 L 67.733333 15.692065 C 67.733333 6.9985219 60.734811 0 52.041268 0 L 15.692065 0 z M 12.779582 10.779704 C 13.344797 10.779704 13.431738 11.866894 13.431738 18.649508 C 13.431738 25.866906 13.388417 26.475597 12.692765 26.345162 C 11.997112 26.214728 11.910078 25.475486 11.779643 19.040698 C 11.736168 15.127651 11.779499 11.649392 11.866459 11.345044 C 11.996894 11.040696 12.388277 10.779704 12.779582 10.779704 z M 16.040365 10.779704 C 16.822971 10.779704 16.910079 11.084128 16.910079 14.258044 C 16.910079 17.692828 16.909877 17.736385 17.996834 17.736385 C 18.953357 17.736385 19.084106 17.562341 19.084106 16.214514 C 19.084106 15.214513 19.344888 14.562182 19.779671 14.388269 C 20.649237 14.083921 21.258134 14.953669 21.258134 16.518888 L 21.258134 17.736385 L 33.866667 17.736385 L 46.475199 17.736385 L 46.475199 16.518888 C 46.475199 14.953669 47.084096 14.083921 47.953662 14.388269 C 48.388445 14.562182 48.649227 15.214513 48.649227 16.214514 C 48.649227 17.562341 48.779977 17.736385 49.736499 17.736385 C 50.823457 17.736385 50.823255 17.69283 50.823255 14.258044 C 50.823255 11.084128 50.910359 10.779704 51.692969 10.779704 C 52.519055 10.779704 52.562166 11.083837 52.562166 18.605583 C 52.562166 26.127329 52.519056 26.431978 51.692969 26.431978 C 50.910363 26.431978 50.823255 26.127554 50.823255 22.953638 C 50.823255 19.518854 50.823457 19.475297 49.736499 19.475297 L 48.649227 19.475297 L 48.649227 37.301599 L 48.649227 55.127385 L 49.736499 55.127385 C 50.779978 55.127385 51.692847 56.170924 51.127629 56.692664 C 50.823281 57.04049 44.301663 57.04049 43.997315 56.692664 C 43.432097 56.170924 44.344965 55.127385 45.388444 55.127385 L 46.475199 55.127385 L 46.475199 37.301599 L 46.475199 19.475297 L 33.866667 19.475297 L 21.258134 19.475297 L 21.258134 37.301599 L 21.258134 55.127385 L 22.344889 55.127385 C 23.388368 55.127385 24.301237 56.170924 23.736019 56.692664 C 23.431671 57.04049 16.910053 57.04049 16.605705 56.692664 C 16.040487 56.170924 16.953355 55.127385 17.996834 55.127385 L 19.084106 55.127385 L 19.084106 37.301599 L 19.084106 19.475297 L 17.996834 19.475297 C 16.909877 19.475297 16.910079 19.518852 16.910079 22.953638 C 16.910079 26.127554 16.822974 26.431978 16.040365 26.431978 C 15.214279 26.431978 15.171167 26.127329 15.171167 18.605583 C 15.171167 11.083837 15.214277 10.779704 16.040365 10.779704 z M 54.953235 10.852051 C 54.994155 10.852985 55.037781 10.858368 55.083976 10.86652 C 55.736147 10.996955 55.823466 11.736012 55.823466 18.605583 C 55.823466 25.475154 55.736151 26.214728 55.083976 26.345162 C 54.344847 26.475597 54.301595 25.866459 54.301595 18.605583 C 54.301595 11.798511 54.339433 10.838039 54.953235 10.852051 z M 9.5622071 12.953731 C 10.344815 12.953731 10.388513 13.30123 10.388513 18.605583 C 10.388513 23.953414 10.344886 24.257951 9.5187989 24.257951 C 8.7361899 24.257951 8.6490845 23.953771 8.6490845 21.910291 L 8.6490845 19.518705 L 6.3882406 19.388481 C 4.6491086 19.301525 4.0407208 19.083984 3.9537638 18.518766 C 3.8233289 17.91007 4.2142294 17.779487 6.1272746 17.649052 L 8.4320435 17.518827 L 8.5622681 15.214575 C 8.692703 13.301529 8.823076 12.953731 9.5622071 12.953731 z M 58.171126 12.953731 C 58.910257 12.953731 59.04063 13.301529 59.171065 15.214575 L 59.30129 17.518827 L 61.606059 17.649052 C 63.519104 17.779487 63.910005 17.91007 63.77957 18.518766 C 63.692613 19.083984 63.084225 19.301521 61.345093 19.388481 L 59.084249 19.518705 L 59.084249 21.910291 C 59.084249 23.953771 58.997144 24.257951 58.214535 24.257951 C 57.388449 24.257951 57.34482 23.953414 57.34482 18.605583 C 57.34482 13.30123 57.388517 12.953731 58.171126 12.953731 z " />
</svg>
