<?xml version="1.0" encoding="UTF-8" standalone="no"?>
<svg
   width="256"
   height="256"
   viewBox="0 0 67.733332 67.733335"
   version="1.1"
   id="svg8"
   xmlns="http://www.w3.org/2000/svg"
   xmlns:svg="http://www.w3.org/2000/svg"
   xmlns:rdf="http://www.w3.org/1999/02/22-rdf-syntax-ns#"
   xmlns:cc="http://creativecommons.org/ns#"
   xmlns:dc="http://purl.org/dc/elements/1.1/">
  <defs
     id="defs2" />
  <metadata
     id="metadata5">
    <rdf:RDF>
      <cc:Work
         rdf:about="">
        <dc:format>image/svg+xml</dc:format>
        <dc:type
           rdf:resource="http://purl.org/dc/dcmitype/StillImage" />
        <dc:title />
      </cc:Work>
    </rdf:RDF>
  </metadata>
  <g
     id="layer1">
    <path
       id="rect833"
       style="opacity:1;fill:#ffffff;fill-opacity:0.7;stroke-width:1.09855;stroke-linecap:round;stroke-linejoin:round;stroke-opacity:0.995575"
       d="M 15.692065 0 C 6.9985218 1.2533184e-15 0 6.9985218 0 15.692065 L 0 52.041268 C 1.2533184e-15 60.734811 6.9985218 67.733333 15.692065 67.733333 L 52.041268 67.733333 C 60.734811 67.733333 67.733333 60.734811 67.733333 52.041268 L 67.733333 15.692065 C 67.733333 6.9985218 60.734811 0 52.041268 0 L 15.692065 0 z M 33.666162 13.355257 C 39.614622 13.279765 43.994334 15.23886 48.407381 19.727995 C 50.842166 22.206258 51.755155 23.554353 52.929069 26.293486 C 54.233418 29.423923 54.407085 30.162673 54.363607 33.901807 C 54.363607 37.64094 54.233418 38.423685 52.929069 41.510645 C 51.711677 44.336734 50.885478 45.554113 48.189823 48.249768 C 45.494169 50.901944 44.276719 51.771691 41.494108 52.945605 C 38.407149 54.249954 37.667952 54.380143 33.841862 54.380143 C 30.015772 54.380143 29.276575 54.249954 26.189616 52.945605 C 23.363526 51.771691 22.190072 50.945423 19.494417 48.249768 C 16.798763 45.554113 15.972494 44.380142 14.79858 41.554053 C 13.450753 38.423615 13.363525 37.771656 13.363525 33.728174 C 13.363525 29.597735 13.450472 29.119242 14.972213 25.85837 C 18.015694 19.249668 24.711324 14.119499 31.015678 13.510803 C 31.934157 13.418412 32.816382 13.366042 33.666162 13.355257 z M 42.1566 20.066992 C 40.432944 20.10821 38.624516 21.399339 38.624516 23.162927 C 38.624516 24.467276 40.754959 26.510527 42.146265 26.510527 C 44.668006 26.510527 46.102973 22.684764 44.276884 20.858675 C 43.706231 20.288022 42.94008 20.048257 42.1566 20.066992 z M 47.060177 28.737781 C 46.105798 28.784688 45.198177 29.475568 44.53785 30.771765 C 43.711762 32.467419 44.407309 34.684827 45.885571 35.250045 C 49.450792 36.597872 51.928755 32.641324 49.276579 29.815234 C 48.572774 29.054364 47.802471 28.701298 47.060177 28.737781 z M 37.374463 29.124837 C 36.537506 29.162881 35.733132 29.55411 35.146175 30.293241 C 32.624434 33.467157 36.885698 37.423531 39.711788 34.553963 C 41.103094 33.206136 41.146432 31.336554 39.798604 30.075684 C 39.081212 29.40177 38.21142 29.086794 37.374463 29.124837 z " />
  </g>
  <g
     id="ICON_LAYER"
     transform="matrix(0.434783,0,0,0.434783,3.4072104,3.4671701)">
    <metadata
       id="metadata1">
Created by potrace 1.16, written by Peter Selinger 2001-2019
</metadata>
    <g
       transform="matrix(0.1,0,0,-0.1,0,140)"
       fill="#000000"
       stroke="none"
       id="g1" />
  </g>
</svg>
