<?xml version="1.0" encoding="UTF-8" standalone="no"?>
<svg
   width="256"
   height="256"
   viewBox="0 0 67.733332 67.733335"
   version="1.1"
   id="svg8"
   xmlns="http://www.w3.org/2000/svg"
   xmlns:svg="http://www.w3.org/2000/svg"
   xmlns:rdf="http://www.w3.org/1999/02/22-rdf-syntax-ns#"
   xmlns:cc="http://creativecommons.org/ns#"
   xmlns:dc="http://purl.org/dc/elements/1.1/">
  <defs
     id="defs2" />
  <metadata
     id="metadata5">
    <rdf:RDF>
      <cc:Work
         rdf:about="">
        <dc:format>image/svg+xml</dc:format>
        <dc:type
           rdf:resource="http://purl.org/dc/dcmitype/StillImage" />
        <dc:title />
      </cc:Work>
    </rdf:RDF>
  </metadata>
  <g
     id="layer1">
    <path
       id="rect833"
       style="opacity:1;fill:#ffffff;fill-opacity:0.7;stroke-width:1.09855;stroke-linecap:round;stroke-linejoin:round;stroke-opacity:0.995575"
       d="M 15.692065 0 C 6.9985218 1.2533184e-15 0 6.9985218 0 15.692065 L 0 52.041268 C 1.2533184e-15 60.734811 6.9985218 67.733333 15.692065 67.733333 L 52.041268 67.733333 C 60.734811 67.733333 67.733333 60.734811 67.733333 52.041268 L 67.733333 15.692065 C 67.733333 6.9985218 60.734811 0 52.041268 0 L 15.692065 0 z M 33.74161 8.6847412 C 36.138351 8.6793064 38.540825 8.8856134 40.127783 9.2986572 C 48.823443 11.559529 56.171221 18.907306 58.432092 27.602966 C 59.25818 30.863839 59.25818 36.86381 58.432092 40.124683 C 56.171221 48.820343 48.823443 56.16812 40.127783 58.428992 C 36.866911 59.255079 30.866423 59.255079 27.60555 58.428992 C 18.90989 56.16812 11.562113 48.820343 9.301241 40.124683 C 8.4751533 36.86381 8.4751533 30.863839 9.301241 27.602966 C 11.562113 19.037741 18.866762 11.646415 27.388509 9.3420654 C 28.953728 8.9072824 31.344868 8.690176 33.74161 8.6847412 z M 33.812406 13.636894 C 29.980881 13.65685 26.149223 14.70624 22.997046 16.689937 L 21.170801 17.820618 L 23.083862 19.863904 C 26.909953 23.950864 28.649414 28.29886 28.649414 33.864083 C 28.649414 39.429305 26.909953 43.777302 23.083862 47.864262 L 21.170801 49.907548 L 23.040454 51.037712 C 26.388283 53.168148 29.344923 53.951229 33.866667 53.951229 C 38.38841 53.951229 41.34505 53.168148 44.692879 51.037712 L 46.562533 49.907548 L 44.649471 47.864262 C 40.823381 43.777302 39.083919 39.429305 39.083919 33.864083 C 39.083919 28.29886 40.823381 23.950864 44.649471 19.863904 L 46.562533 17.820618 L 44.692879 16.689937 C 43.692878 16.037763 41.823253 15.168251 40.562382 14.733468 C 38.410206 13.983467 36.111322 13.62492 33.812406 13.636894 z M 50.021753 21.936129 C 49.732478 21.954567 49.336561 22.350536 48.431669 23.255428 C 47.518625 24.124994 46.214392 26.168489 45.47526 27.733708 C 43.127432 32.733712 43.736495 38.081604 47.171281 43.081608 C 47.823455 43.951174 48.779644 44.994626 49.301383 45.342452 C 50.301384 45.994626 50.344931 45.994208 51.823193 43.037683 C 54.692761 37.342026 54.866867 31.211649 52.345125 25.689905 C 51.779907 24.472512 51.040339 23.037678 50.692513 22.515938 C 50.407187 22.135503 50.246745 21.921788 50.021753 21.936129 z M 17.701762 22.035864 C 17.264718 22.022437 16.926445 22.657355 15.91014 24.689966 C 12.866659 30.73345 12.866659 36.994199 15.91014 43.037683 C 17.388402 45.994208 17.431949 45.994626 18.43195 45.342452 C 19.692821 44.516364 21.388463 42.081504 22.605855 39.298893 C 24.562379 34.907585 23.779447 29.298736 20.562052 24.646558 C 19.909878 23.776992 18.953689 22.73354 18.43195 22.385714 C 18.11945 22.181909 17.900418 22.041968 17.701762 22.035864 z " />
  </g>
  <g
     id="ICON_LAYER"
     transform="matrix(0.434783,0,0,0.434783,3.4318567,3.4291915)">
    <metadata
       id="metadata1">
Created by potrace 1.16, written by Peter Selinger 2001-2019
</metadata>
    <g
       transform="matrix(0.1,0,0,-0.1,0,140)"
       fill="#000000"
       stroke="none"
       id="g1" />
  </g>
</svg>
