<?xml version="1.0" encoding="UTF-8" standalone="no"?>
<svg
   width="256"
   height="256"
   viewBox="0 0 67.733332 67.733335"
   version="1.1"
   id="svg8"
   sodipodi:docname="icon-m-diving.svg"
   inkscape:version="1.4.3 (0d15f75042, 2025-12-25)"
   xmlns:inkscape="http://www.inkscape.org/namespaces/inkscape"
   xmlns:sodipodi="http://sodipodi.sourceforge.net/DTD/sodipodi-0.dtd"
   xmlns="http://www.w3.org/2000/svg"
   xmlns:svg="http://www.w3.org/2000/svg"
   xmlns:rdf="http://www.w3.org/1999/02/22-rdf-syntax-ns#"
   xmlns:cc="http://creativecommons.org/ns#"
   xmlns:dc="http://purl.org/dc/elements/1.1/">
  <sodipodi:namedview
     id="namedview1"
     pagecolor="#ffffff"
     bordercolor="#000000"
     borderopacity="0.25"
     inkscape:showpageshadow="2"
     inkscape:pageopacity="0.0"
     inkscape:pagecheckerboard="true"
     inkscape:deskcolor="#d1d1d1"
     inkscape:zoom="3.0898438"
     inkscape:cx="127.83818"
     inkscape:cy="128"
     inkscape:window-width="1920"
     inkscape:window-height="1000"
     inkscape:window-x="1920"
     inkscape:window-y="27"
     inkscape:window-maximized="1"
     inkscape:current-layer="svg8" />
  <defs
     id="defs2" />
  <metadata
     id="metadata5">
    <rdf:RDF>
      <cc:Work
         rdf:about="">
        <dc:format>image/svg+xml</dc:format>
        <dc:type
           rdf:resource="http://purl.org/dc/dcmitype/StillImage" />
      </cc:Work>
    </rdf:RDF>
  </metadata>
  <path
     id="rect833"
     style="fill:#ffffff;fill-opacity:0.7;stroke-width:1.09855;stroke-linecap:round;stroke-linejoin:round;stroke-opacity:0.995575"
     d="M 15.692065 0 C 6.9985219 -2.5066369e-15 0 6.9985219 0 15.692065 L 0 52.041268 C -2.5066369e-15 60.734811 6.9985219 67.733333 15.692065 67.733333 L 52.041268 67.733333 C 60.734811 67.733333 67.733333 60.734811 67.733333 52.041268 L 67.733333 15.692065 C 67.733333 6.9985219 60.734811 0 52.041268 0 L 15.692065 0 z M 59.084249 7.450708 C 59.214684 7.450708 59.866612 8.0160303 60.518787 8.6682048 L 61.692875 9.9291097 L 58.649133 13.450859 C 55.692608 16.842167 55.475221 17.320579 53.518697 22.972758 L 51.475411 28.972392 L 45.170886 33.363855 C 38.866532 37.755163 38.866839 37.755151 31.519006 40.102979 L 24.127726 42.450639 L 22.562447 46.581136 C 21.388533 49.755052 20.214342 51.754987 17.605644 55.276729 C 15.692599 57.79847 13.996843 60.016142 13.822929 60.233533 C 13.605538 60.450925 12.605634 59.92908 11.518677 59.016036 L 9.5187989 57.407349 L 13.170772 52.537879 L 16.823263 47.668408 L 17.779793 41.798482 C 18.910228 35.233259 19.431669 33.84223 21.170801 32.972664 C 21.822976 32.624838 27.779757 30.711428 34.475415 28.711426 L 46.562533 25.059452 L 49.171159 19.8422 C 51.388553 15.407414 52.345009 14.059346 55.301534 11.015865 C 57.214579 9.0593413 58.910335 7.450708 59.084249 7.450708 z M 35.214388 17.494023 C 35.562214 17.450545 37.475136 24.407322 37.214266 24.71167 C 36.779483 25.146453 25.953421 27.885636 24.69255 27.885636 C 22.866462 27.885636 21.258134 26.190116 21.258134 24.277071 C 21.258134 21.668373 22.214275 21.016132 28.866455 19.190043 C 32.214284 18.276999 35.083953 17.494023 35.214388 17.494023 z M 10.997262 30.10824 C 11.671175 30.102805 12.345062 30.320446 13.258106 30.755229 C 15.040717 31.624795 16.040365 33.320489 16.040365 35.537883 C 16.040365 36.755275 15.692854 37.450672 14.562419 38.581108 C 12.431982 40.711544 9.6493576 40.711544 7.5189209 38.581108 C 6.3884851 37.450672 6.0404582 36.755275 6.0404582 35.537883 C 6.0404582 33.363968 7.040764 31.624725 8.7364177 30.798637 C 9.649462 30.342114 10.323348 30.113675 10.997262 30.10824 z " />
</svg>
