<?xml version="1.0" encoding="UTF-8" standalone="no"?>
<svg
   width="256"
   height="256"
   viewBox="0 0 67.733332 67.733335"
   version="1.1"
   id="svg8"
   xmlns="http://www.w3.org/2000/svg"
   xmlns:svg="http://www.w3.org/2000/svg"
   xmlns:rdf="http://www.w3.org/1999/02/22-rdf-syntax-ns#"
   xmlns:cc="http://creativecommons.org/ns#"
   xmlns:dc="http://purl.org/dc/elements/1.1/">
  <defs
     id="defs2" />
  <metadata
     id="metadata5">
    <rdf:RDF>
      <cc:Work
         rdf:about="">
        <dc:format>image/svg+xml</dc:format>
        <dc:type
           rdf:resource="http://purl.org/dc/dcmitype/StillImage" />
        <dc:title />
      </cc:Work>
    </rdf:RDF>
  </metadata>
  <g
     id="layer1">
    <path
       id="rect833"
       style="opacity:1;fill:#ffffff;fill-opacity:0.7;stroke-width:1.09855;stroke-linecap:round;stroke-linejoin:round;stroke-opacity:0.995575"
       d="M 15.692065 0 C 6.9985218 1.2533184e-15 0 6.9985218 0 15.692065 L 0 52.041268 C 1.2533184e-15 60.734811 6.9985218 67.733333 15.692065 67.733333 L 52.041268 67.733333 C 60.734811 67.733333 67.733333 60.734811 67.733333 52.041268 L 67.733333 15.692065 C 67.733333 6.9985218 60.734811 0 52.041268 0 L 15.692065 0 z M 54.301595 3.4592204 L 56.475623 3.4592204 L 58.649133 3.4592204 L 58.649133 15.241964 C 58.649133 26.459365 58.69269 27.06822 59.562256 28.285612 C 60.301387 29.372569 60.736265 29.546517 62.38844 29.546517 L 64.301501 29.546517 L 64.301501 35.415926 L 64.301501 41.285335 L 62.38844 41.285335 C 60.779743 41.285335 60.301317 41.502831 59.605664 42.502832 C 58.866533 43.502833 58.692752 44.589988 58.562317 49.111731 C 58.47536 53.676952 58.258241 54.850766 57.432153 56.546419 C 54.345194 62.807294 46.99703 65.850999 40.649198 63.459692 C 35.99702 61.677082 32.475555 57.415812 31.823381 52.807113 L 31.562415 50.850643 L 33.736442 50.850643 L 35.953878 50.850643 L 36.388477 52.63348 C 36.953694 54.894351 38.388371 56.980982 40.301416 58.285331 C 41.605765 59.154897 42.388275 59.329195 45.170886 59.329195 C 48.040454 59.329195 48.736174 59.155108 50.257914 58.155107 C 52.562264 56.633366 54.301595 53.242274 54.301595 50.329228 L 54.301595 48.242017 L 52.562166 49.111731 C 49.605642 50.633471 41.258123 51.415739 39.866817 50.285303 C 39.518991 50.024433 38.084156 48.329053 36.692851 46.589921 C 35.345023 44.894267 34.04058 43.459363 33.866667 43.459363 C 33.692753 43.459363 32.38831 44.894267 31.040483 46.589921 C 29.649177 48.329053 28.214343 50.024433 27.866516 50.285303 C 26.388254 51.459217 18.084257 50.589757 14.823385 48.937581 C 12.736426 47.850624 9.9970259 45.28568 8.2578939 42.676982 C 7.3883279 41.459589 7.0405471 41.285335 5.3448934 41.285335 L 3.4318319 41.285335 L 3.4318319 35.415926 L 3.4318319 29.546517 L 5.3448934 29.546517 C 7.0405471 29.546517 7.3883279 29.372333 8.2578939 28.111462 C 9.9970259 25.546243 12.736216 22.981369 14.953609 21.807454 L 17.127637 20.633366 L 33.866667 20.633366 C 50.431899 20.633366 50.605783 20.633304 52.47535 21.633305 L 54.301595 22.589836 L 54.301595 13.024528 L 54.301595 3.4592204 z M 33.692517 24.763863 L 24.344767 34.068205 C 16.431717 41.981255 15.084096 43.502963 15.562358 44.024703 C 16.431924 45.11166 19.910297 46.067989 22.866821 46.067989 L 25.605672 46.067989 L 29.605945 41.068294 C 31.77986 38.329161 33.736232 36.068083 33.866667 36.068083 C 34.04058 36.068083 34.822969 36.850919 35.605579 37.85092 L 37.040633 39.63324 L 43.69294 32.980933 C 47.388596 29.285277 50.388656 26.155203 50.388656 26.024768 C 50.388656 25.850855 49.779549 25.50274 49.040417 25.24187 C 48.257808 24.981 44.605724 24.763863 40.649198 24.763863 L 33.692517 24.763863 z M 23.154659 24.823291 C 21.170962 24.893943 18.975403 25.111672 18.127576 25.41602 C 13.910181 26.93776 11.257711 30.80699 11.257711 35.241777 C 11.257711 36.633082 11.475435 38.2855 11.692826 38.937675 L 12.170833 40.155172 L 19.518705 32.8073 C 23.605665 28.72034 26.909985 25.285559 26.909985 25.111646 C 26.909985 24.829037 25.138356 24.752639 23.154659 24.823291 z M 54.345003 29.111401 C 53.866742 29.111401 39.953634 42.633389 39.953634 43.068172 C 39.953634 43.242085 40.475618 43.981137 41.084314 44.720268 C 42.127793 45.981138 42.432104 46.067989 44.953845 46.067989 C 49.910371 46.067989 53.475305 44.111487 55.38835 40.285396 C 56.779656 37.502785 56.866779 33.720258 55.605908 30.937646 C 55.171125 29.937646 54.562395 29.111401 54.345003 29.111401 z " />
  </g>
  <g
     id="ICON_LAYER"
     transform="matrix(0.434783,0,0,0.434783,3.4318567,3.4593942)">
    <metadata
       id="metadata1">
Created by potrace 1.16, written by Peter Selinger 2001-2019
</metadata>
    <g
       transform="matrix(0.1,0,0,-0.1,0,140)"
       fill="#000000"
       stroke="none"
       id="g1" />
  </g>
</svg>
