<?xml version="1.0" encoding="UTF-8" standalone="no"?>
<svg
   width="256"
   height="256"
   viewBox="0 0 67.733332 67.733335"
   version="1.1"
   id="svg8"
   sodipodi:docname="icon-m-football.svg"
   inkscape:version="1.4.3 (0d15f75042, 2025-12-25)"
   xmlns:inkscape="http://www.inkscape.org/namespaces/inkscape"
   xmlns:sodipodi="http://sodipodi.sourceforge.net/DTD/sodipodi-0.dtd"
   xmlns="http://www.w3.org/2000/svg"
   xmlns:svg="http://www.w3.org/2000/svg"
   xmlns:rdf="http://www.w3.org/1999/02/22-rdf-syntax-ns#"
   xmlns:cc="http://creativecommons.org/ns#"
   xmlns:dc="http://purl.org/dc/elements/1.1/">
  <sodipodi:namedview
     id="namedview1"
     pagecolor="#ffffff"
     bordercolor="#000000"
     borderopacity="0.25"
     inkscape:showpageshadow="2"
     inkscape:pageopacity="0.0"
     inkscape:pagecheckerboard="true"
     inkscape:deskcolor="#d1d1d1"
     inkscape:zoom="3.0898438"
     inkscape:cx="127.83818"
     inkscape:cy="128"
     inkscape:window-width="1920"
     inkscape:window-height="1000"
     inkscape:window-x="1920"
     inkscape:window-y="27"
     inkscape:window-maximized="1"
     inkscape:current-layer="svg8" />
  <defs
     id="defs2" />
  <metadata
     id="metadata5">
    <rdf:RDF>
      <cc:Work
         rdf:about="">
        <dc:format>image/svg+xml</dc:format>
        <dc:type
           rdf:resource="http://purl.org/dc/dcmitype/StillImage" />
      </cc:Work>
    </rdf:RDF>
  </metadata>
  <path
     id="rect833"
     style="fill:#ffffff;fill-opacity:0.7;stroke-width:1.09855;stroke-linecap:round;stroke-linejoin:round;stroke-opacity:0.995575"
     d="M 15.692065 0 C 6.9985219 -2.5066369e-15 0 6.9985219 0 15.692065 L 0 52.041268 C -2.5066369e-15 60.734811 6.9985219 67.733333 15.692065 67.733333 L 52.041268 67.733333 C 60.734811 67.733333 67.733333 60.734811 67.733333 52.041268 L 67.733333 15.692065 C 67.733333 6.9985219 60.734811 0 52.041268 0 L 15.692065 0 z M 43.986463 11.310421 C 47.301683 11.266942 50.573271 11.397228 52.095012 11.723315 C 54.70371 12.288533 55.399255 12.984105 56.007951 15.940629 C 56.703604 19.24498 56.616927 28.462659 55.834318 32.114836 C 53.269098 44.28876 46.399418 51.810492 34.747233 55.201799 C 28.312445 57.027888 14.616898 56.767202 12.877767 54.7672 C 11.269069 52.941112 10.703914 42.114948 11.877828 35.897551 C 14.399569 22.767104 22.312589 14.766962 35.616948 11.940873 C 37.312602 11.571308 40.671242 11.353899 43.986463 11.310421 z M 43.064555 16.070854 C 42.244581 16.090555 41.703914 16.158493 41.703914 16.288928 C 41.703914 16.810667 50.921115 26.027869 51.442855 26.027869 C 51.964594 26.027869 51.486658 17.375561 50.92144 16.810343 C 50.497526 16.386429 45.524476 16.01175 43.064555 16.070854 z M 34.747233 17.332275 C 33.834189 17.375753 29.530008 19.158415 27.269137 20.506242 C 24.356091 22.201896 20.964691 26.071283 19.312516 29.593026 C 16.703818 35.288683 16.268778 34.288796 24.92096 42.984456 L 32.529797 50.549369 L 35.529614 49.592839 C 38.790486 48.549359 42.964459 46.027806 44.790548 44.027804 C 46.747071 41.897367 48.616609 38.59332 49.61661 35.50636 L 50.573141 32.506026 L 43.008228 24.941113 C 38.834312 20.767197 35.09506 17.332275 34.747233 17.332275 z M 39.095288 25.158154 C 39.225723 25.158154 40.138714 25.94106 41.051758 26.897583 L 42.747262 28.636495 L 35.703764 35.723401 L 28.660266 42.766899 L 26.834021 40.897245 L 24.964885 39.071517 L 31.921049 32.114836 C 35.747139 28.288746 38.964853 25.158154 39.095288 25.158154 z M 16.312699 41.680143 C 15.79096 41.680143 16.312375 50.375929 16.834115 50.897669 C 17.399333 51.462888 26.05164 51.940824 26.05164 51.419084 C 26.05164 51.201693 23.9645 48.897276 21.355802 46.332056 C 18.790582 43.766836 16.530091 41.680143 16.312699 41.680143 z " />
</svg>
