<?xml version="1.0" encoding="UTF-8" standalone="no"?>
<svg
   width="256"
   height="256"
   viewBox="0 0 67.733332 67.733335"
   version="1.1"
   id="svg8"
   xmlns="http://www.w3.org/2000/svg"
   xmlns:svg="http://www.w3.org/2000/svg"
   xmlns:rdf="http://www.w3.org/1999/02/22-rdf-syntax-ns#"
   xmlns:cc="http://creativecommons.org/ns#"
   xmlns:dc="http://purl.org/dc/elements/1.1/">
  <defs
     id="defs2" />
  <metadata
     id="metadata5">
    <rdf:RDF>
      <cc:Work
         rdf:about="">
        <dc:format>image/svg+xml</dc:format>
        <dc:type
           rdf:resource="http://purl.org/dc/dcmitype/StillImage" />
        <dc:title />
      </cc:Work>
    </rdf:RDF>
  </metadata>
  <g
     id="layer1">
    <path
       id="rect833"
       style="opacity:1;fill:#ffffff;fill-opacity:0.7;stroke-width:1.09855;stroke-linecap:round;stroke-linejoin:round;stroke-opacity:0.995575"
       d="M 15.692065 0 C 6.9985218 1.2533184e-15 0 6.9985218 0 15.692065 L 0 52.041268 C 1.2533184e-15 60.734811 6.9985218 67.733333 15.692065 67.733333 L 52.041268 67.733333 C 60.734811 67.733333 67.733333 60.734811 67.733333 52.041268 L 67.733333 15.692065 C 67.733333 6.9985218 60.734811 0 52.041268 0 L 15.692065 0 z M 43.785958 10.047449 C 49.570355 10.016538 55.434201 13.697133 56.803768 18.64279 C 57.455942 21.077575 57.499281 25.72965 56.890584 28.642696 C 56.281888 31.425307 54.803349 33.990811 51.933781 37.121248 C 47.368559 42.164731 42.02109 44.425598 33.760213 44.816903 C 30.847167 44.990816 27.977472 45.338204 27.107906 45.729508 C 26.281818 46.077335 22.977358 48.903596 19.803442 52.034033 C 15.020829 56.686211 13.760016 57.686401 12.716536 57.686401 C 11.368709 57.686401 10.412284 56.42513 10.412284 54.729476 C 10.412284 54.294693 12.673293 51.729941 15.455904 48.990808 C 22.368954 42.121237 22.977601 40.816513 23.499341 32.555636 C 23.847167 26.599108 23.93407 26.16455 25.455811 23.121069 C 27.803639 18.338456 33.020966 13.207805 36.716622 12.033891 C 37.673145 11.729543 38.673188 11.294752 38.934058 11.07736 C 39.238406 10.859969 40.281647 10.51237 41.325126 10.294979 C 42.134909 10.131935 42.959615 10.051864 43.785958 10.047449 z M 43.188062 15.214575 C 41.85518 15.259412 40.999014 15.610022 38.455534 16.816545 C 35.455531 18.20785 32.716543 20.729535 30.673063 23.903451 C 29.151323 26.338235 28.977323 26.947313 28.80341 30.077751 C 28.586018 34.425581 29.281608 35.990444 32.368567 37.990446 C 35.151178 39.816535 37.629427 39.903517 41.672909 38.29482 C 47.107696 36.120905 50.934227 31.860144 51.977706 26.686226 C 52.977707 21.860135 52.107976 18.773208 49.19493 16.729728 C 47.629711 15.686249 46.629625 15.338222 44.760059 15.251265 C 44.129623 15.218657 43.632355 15.19963 43.188062 15.214575 z " />
  </g>
  <g
     id="ICON_LAYER"
     transform="matrix(0.434783,0,0,0.434783,3.4556811,4.642722)">
    <metadata
       id="metadata1">
Created by potrace 1.16, written by Peter Selinger 2001-2019
</metadata>
    <g
       transform="matrix(0.1,0,0,-0.1,0,140)"
       fill="#000000"
       stroke="none"
       id="g1" />
  </g>
</svg>
