<?xml version="1.0" encoding="UTF-8" standalone="no"?>
<svg
   width="256"
   height="256"
   viewBox="0 0 67.733332 67.733335"
   version="1.1"
   id="svg8"
   sodipodi:docname="icon-m-roller_skating.svg"
   inkscape:version="1.4.3 (0d15f75042, 2025-12-25)"
   xmlns:inkscape="http://www.inkscape.org/namespaces/inkscape"
   xmlns:sodipodi="http://sodipodi.sourceforge.net/DTD/sodipodi-0.dtd"
   xmlns="http://www.w3.org/2000/svg"
   xmlns:svg="http://www.w3.org/2000/svg"
   xmlns:rdf="http://www.w3.org/1999/02/22-rdf-syntax-ns#"
   xmlns:cc="http://creativecommons.org/ns#"
   xmlns:dc="http://purl.org/dc/elements/1.1/">
  <sodipodi:namedview
     id="namedview1"
     pagecolor="#ffffff"
     bordercolor="#000000"
     borderopacity="0.25"
     inkscape:showpageshadow="2"
     inkscape:pageopacity="0.0"
     inkscape:pagecheckerboard="true"
     inkscape:deskcolor="#d1d1d1"
     inkscape:zoom="3.0898438"
     inkscape:cx="127.83818"
     inkscape:cy="128"
     inkscape:window-width="1920"
     inkscape:window-height="1000"
     inkscape:window-x="1920"
     inkscape:window-y="27"
     inkscape:window-maximized="1"
     inkscape:current-layer="svg8" />
  <defs
     id="defs2" />
  <metadata
     id="metadata5">
    <rdf:RDF>
      <cc:Work
         rdf:about="">
        <dc:format>image/svg+xml</dc:format>
        <dc:type
           rdf:resource="http://purl.org/dc/dcmitype/StillImage" />
      </cc:Work>
    </rdf:RDF>
  </metadata>
  <path
     id="rect833"
     style="fill:#ffffff;fill-opacity:0.7;stroke-width:1.09855;stroke-linecap:round;stroke-linejoin:round;stroke-opacity:0.995575"
     d="M 15.692065 0 C 6.9985219 -2.5066369e-15 0 6.9985219 0 15.692065 L 0 52.041268 C -2.5066369e-15 60.734811 6.9985219 67.733333 15.692065 67.733333 L 52.041268 67.733333 C 60.734811 67.733333 67.733333 60.734811 67.733333 52.041268 L 67.733333 15.692065 C 67.733333 6.9985219 60.734811 0 52.041268 0 L 15.692065 0 z M 13.436389 6.0378744 L 24.958167 6.0378744 L 36.479944 6.0378744 L 36.479944 12.429216 C 36.479944 20.864006 36.65374 21.212202 42.001571 22.777421 C 48.436359 24.690466 49.697146 25.255603 51.349321 26.994735 C 53.653671 29.342563 54.305729 31.951289 54.305729 38.516512 L 54.305729 43.863989 L 33.871318 43.863989 L 13.436389 43.863989 L 13.436389 24.950932 L 13.436389 6.0378744 z M 25.131799 10.907861 C 21.914405 10.864382 19.131929 10.951059 18.958016 11.081494 C 18.784102 11.255407 18.653642 17.646603 18.653642 25.255306 L 18.653642 39.081852 L 33.914726 39.081852 L 49.175293 39.081852 L 49.045068 35.385954 C 48.827677 30.516385 48.305758 29.994605 41.784013 28.038082 C 36.653574 26.516341 34.392979 25.168657 32.958195 22.820829 C 32.219064 21.603436 31.914709 21.472942 29.436446 21.25555 C 26.871226 21.038158 26.697079 20.951238 26.697079 19.951237 C 26.697079 18.951236 26.87106 18.864174 29.218888 18.73374 C 31.305847 18.646783 31.740533 18.473099 31.523141 17.951359 C 31.392706 17.560055 31.262175 16.994802 31.262175 16.690454 C 31.262175 16.255671 30.56655 16.037924 29.001331 15.950964 C 27.175242 15.864008 26.653814 15.646608 26.566854 14.994434 C 26.349463 13.907476 27.175574 13.429154 29.436446 13.429154 C 31.219058 13.429154 31.305793 13.386089 31.175358 12.212175 L 31.045134 11.038086 L 25.131799 10.907861 z M 51.916728 46.525326 C 53.827395 46.584769 55.593938 47.451322 57.088505 49.081759 C 58.91459 51.081761 59.262437 52.25575 59.001567 55.125318 C 58.740697 57.690537 57.392837 59.690141 55.175444 60.820577 C 50.740657 63.081449 45.566693 60.777128 44.305823 55.994515 C 43.392778 52.603207 45.175589 48.777184 48.349504 47.298922 C 49.572331 46.744574 50.770327 46.48966 51.916728 46.525326 z M 16.340605 46.593539 C 22.422217 46.803967 26.202613 53.913112 21.827608 59.125073 C 18.784127 62.733772 12.653773 62.429231 9.9146403 58.603141 C 8.9146398 57.168357 8.3491069 53.820989 8.8273682 51.907943 C 9.2186729 50.299246 12.001325 47.385922 13.610022 46.951139 C 14.555675 46.673965 15.471803 46.563477 16.340605 46.593539 z M 34.065104 46.611109 C 36.770153 46.697863 39.417129 48.154881 40.523108 50.516297 C 41.436156 52.429342 41.480007 56.125177 40.610441 57.777352 C 40.262615 58.473005 39.218646 59.60358 38.34908 60.255754 C 37.001253 61.299233 36.349581 61.472734 33.871318 61.472734 C 31.393054 61.472734 30.740865 61.299233 29.393038 60.255754 C 27.045209 58.473144 26.349463 56.864179 26.566854 53.690263 C 26.784246 50.42939 27.827617 48.733566 30.479793 47.385738 C 31.593925 46.815086 32.835537 46.571674 34.065104 46.611109 z M 33.871318 51.690385 C 32.566969 51.690385 31.262175 52.994593 31.262175 54.34242 C 31.262175 56.211987 34.436104 57.168403 35.740454 55.690141 C 36.6535 54.69014 36.653428 53.907786 35.783862 52.646916 C 35.349079 52.038219 34.653927 51.690385 33.871318 51.690385 z M 16.072404 51.69762 C 15.268586 51.697047 14.490861 52.086852 14.001729 52.820549 C 13.349551 53.864028 13.349178 54.081839 13.914396 55.125318 C 15.131788 57.299233 18.653642 56.603125 18.653642 54.124862 C 18.653642 53.559644 18.306044 52.820663 17.871261 52.429358 C 17.338652 51.934792 16.697596 51.698065 16.072404 51.69762 z M 51.676432 51.709505 C 50.379302 51.708656 49.088477 52.663281 49.088477 54.212195 C 49.088477 56.603502 52.61033 57.299233 53.827722 55.125318 C 54.392936 54.081839 54.39308 53.864028 53.740906 52.820549 C 53.23547 52.054244 52.454711 51.710015 51.676432 51.709505 z " />
</svg>
