<?xml version="1.0" encoding="UTF-8" standalone="no"?>
<svg
   width="256"
   height="256"
   viewBox="0 0 67.733332 67.733335"
   version="1.1"
   id="svg8"
   sodipodi:docname="icon-m-yoga.svg"
   inkscape:version="1.4.3 (0d15f75042, 2025-12-25)"
   xmlns:inkscape="http://www.inkscape.org/namespaces/inkscape"
   xmlns:sodipodi="http://sodipodi.sourceforge.net/DTD/sodipodi-0.dtd"
   xmlns="http://www.w3.org/2000/svg"
   xmlns:svg="http://www.w3.org/2000/svg"
   xmlns:rdf="http://www.w3.org/1999/02/22-rdf-syntax-ns#"
   xmlns:cc="http://creativecommons.org/ns#"
   xmlns:dc="http://purl.org/dc/elements/1.1/">
  <sodipodi:namedview
     id="namedview1"
     pagecolor="#ffffff"
     bordercolor="#000000"
     borderopacity="0.25"
     inkscape:showpageshadow="2"
     inkscape:pageopacity="0.0"
     inkscape:pagecheckerboard="true"
     inkscape:deskcolor="#d1d1d1"
     inkscape:zoom="3.0898438"
     inkscape:cx="127.83818"
     inkscape:cy="128"
     inkscape:window-width="1920"
     inkscape:window-height="1000"
     inkscape:window-x="1920"
     inkscape:window-y="27"
     inkscape:window-maximized="1"
     inkscape:current-layer="svg8" />
  <defs
     id="defs2" />
  <metadata
     id="metadata5">
    <rdf:RDF>
      <cc:Work
         rdf:about="">
        <dc:format>image/svg+xml</dc:format>
        <dc:type
           rdf:resource="http://purl.org/dc/dcmitype/StillImage" />
      </cc:Work>
    </rdf:RDF>
  </metadata>
  <path
     id="rect833"
     style="fill:#ffffff;fill-opacity:0.7;stroke-width:1.09855;stroke-linecap:round;stroke-linejoin:round;stroke-opacity:0.995575"
     d="M 15.692065 0 C 6.9985219 -2.5066369e-15 0 6.9985219 0 15.692065 L 0 52.041268 C -2.5066369e-15 60.734811 6.9985219 67.733333 15.692065 67.733333 L 52.041268 67.733333 C 60.734811 67.733333 67.733333 60.734811 67.733333 52.041268 L 67.733333 15.692065 C 67.733333 6.9985219 60.734811 0 52.041268 0 L 15.692065 0 z M 33.526119 14.51591 C 35.178294 14.51591 35.786621 14.733125 36.960535 15.907039 C 38.960538 17.863562 38.960466 20.168084 37.003943 22.211564 C 35.830029 23.428957 35.308659 23.646102 33.569527 23.646102 C 31.786917 23.646102 31.351917 23.472058 30.178003 22.124231 C 28.351914 20.037272 28.351914 18.124222 30.178003 16.037264 C 31.351916 14.732915 31.786987 14.51591 33.526119 14.51591 z M 30.482377 26.689844 L 33.699752 26.689844 L 36.960535 26.689844 L 41.265182 31.08079 C 44.65649 34.515576 46.221677 35.733323 48.656462 36.950716 C 50.352116 37.733325 52.352202 38.428662 53.091333 38.428662 C 55.439161 38.428662 56.569264 40.646113 55.221436 42.559159 C 54.699697 43.211336 54.221384 43.298414 52.047469 43.1245 C 50.656163 42.994066 48.786985 42.47208 47.960897 41.993819 C 47.13481 41.515557 45.960451 40.99416 45.351754 40.820247 C 44.743058 40.646333 43.221617 39.602436 41.960746 38.515479 C 40.656397 37.428521 39.482625 36.733324 39.308712 36.950716 C 38.482624 37.86376 38.39536 39.646307 39.17797 40.515873 C 40.221449 41.776744 43.916971 43.645915 45.351754 43.645915 C 46.003929 43.645915 47.004419 44.080706 47.613115 44.602446 C 48.221811 45.167664 49.134661 45.950569 49.656401 46.341874 C 50.308576 46.907092 50.569523 47.602883 50.569523 48.820276 C 50.569523 50.211581 50.308523 50.733065 49.047652 51.863501 L 47.482373 53.211222 L 38.656555 53.211222 C 28.873938 53.211222 28.352047 53.081166 29.134656 50.733338 C 29.743353 48.950728 31.178308 48.428569 35.439181 48.428569 C 39.743533 48.428569 40.569617 48.211283 40.569617 47.080847 C 40.569617 45.950413 39.221408 45.689884 34.395317 45.907276 L 30.352153 46.0375 L 28.569316 47.81982 C 27.395402 48.993734 26.656534 50.167866 26.482621 51.211345 C 26.134795 53.03743 25.221332 53.428755 21.612634 53.124406 C 19.960458 52.993972 18.960828 52.64604 18.178219 51.906909 C 17.047783 50.819952 16.439122 48.907128 16.873905 47.602779 C 17.221731 46.472344 20.960722 43.645915 22.091158 43.645915 C 23.134637 43.645915 28.004238 41.211149 28.482499 40.42854 C 29.004239 39.689409 28.873708 38.211473 28.221533 37.341907 C 27.699794 36.602775 27.482491 36.689487 24.96075 38.776445 C 23.482487 40.037316 22.004246 41.037289 21.743376 41.037289 C 21.439028 41.037289 20.395576 41.428672 19.482532 41.950411 C 18.26514 42.602586 16.87396 42.90687 14.917436 42.95035 L 12.091252 42.993758 L 11.96051 41.341663 C 11.786597 39.254705 12.438743 38.428662 14.221354 38.428662 C 14.960485 38.428662 17.00391 37.732878 18.743042 36.906791 C 21.308262 35.689398 22.743461 34.559124 26.178247 31.037382 L 30.482377 26.689844 z " />
</svg>
