<?xml version="1.0" encoding="UTF-8" standalone="no"?>
<svg
   width="256"
   height="256"
   viewBox="0 0 67.733332 67.733335"
   version="1.1"
   id="svg8"
   xmlns="http://www.w3.org/2000/svg"
   xmlns:svg="http://www.w3.org/2000/svg"
   xmlns:rdf="http://www.w3.org/1999/02/22-rdf-syntax-ns#"
   xmlns:cc="http://creativecommons.org/ns#"
   xmlns:dc="http://purl.org/dc/elements/1.1/">
  <defs
     id="defs2" />
  <metadata
     id="metadata5">
    <rdf:RDF>
      <cc:Work
         rdf:about="">
        <dc:format>image/svg+xml</dc:format>
        <dc:type
           rdf:resource="http://purl.org/dc/dcmitype/StillImage" />
        <dc:title />
      </cc:Work>
    </rdf:RDF>
  </metadata>
  <g
     id="layer1">
    <path
       id="rect833"
       style="opacity:1;fill:#ffffff;fill-opacity:0.7;stroke-width:1.09855;stroke-linecap:round;stroke-linejoin:round;stroke-opacity:0.995575"
       d="M 15.692065 0 C 6.9985218 1.2533184e-15 0 6.9985218 0 15.692065 L 0 52.041268 C 1.2533184e-15 60.734811 6.9985218 67.733333 15.692065 67.733333 L 52.041268 67.733333 C 60.734811 67.733333 67.733333 60.734811 67.733333 52.041268 L 67.733333 15.692065 C 67.733333 6.9985218 60.734811 0 52.041268 0 L 15.692065 0 z M 34.518823 8.7855103 C 38.95361 8.9159452 40.170953 9.0898225 42.56226 10.089823 C 44.127479 10.741998 45.605581 11.393856 45.866451 11.567769 C 51.040369 14.915598 52.779494 16.654724 56.127323 21.828642 C 56.301237 22.089512 56.953612 23.568131 57.605786 25.13335 C 58.51883 27.4377 58.779594 28.872549 58.953507 32.785596 C 59.170899 37.698644 59.040614 38.567993 57.258004 43.176693 C 55.953655 46.568 55.171137 47.698623 51.432003 51.394279 C 47.736347 55.133413 46.605724 55.915931 43.214417 57.22028 C 38.605717 59.00289 37.736367 59.133175 32.823319 58.915784 C 28.910272 58.74187 27.475423 58.481107 25.171073 57.568062 C 23.605855 56.915888 22.127752 56.263513 21.866882 56.0896 C 16.692965 52.741771 14.953839 51.002645 11.60601 45.828727 C 11.432097 45.567857 10.779722 44.089755 10.127547 42.524536 C 9.2145029 40.220186 8.953739 38.785337 8.7798258 34.87229 C 8.5624343 29.959242 8.6927193 29.089893 10.47533 24.481193 C 11.605765 21.568147 14.431764 17.263766 16.301331 15.524634 C 18.518724 13.524632 21.866758 11.394295 23.86676 10.655164 C 24.953718 10.263859 26.605619 9.6547519 27.562142 9.3069255 C 28.909969 8.7851859 30.51882 8.6550754 34.518823 8.7855103 z M 40.176359 15.176851 C 39.442663 15.20946 38.758174 15.480901 37.910347 16.002641 C 36.692955 16.741772 36.475293 17.133145 36.475293 18.524451 C 36.475293 19.959235 36.736319 20.394068 38.301538 21.698417 C 39.301539 22.524505 40.736303 23.567816 41.518913 24.046077 C 42.301522 24.524339 43.344763 25.26346 43.909981 25.654765 C 45.73607 26.915636 47.86674 27.046543 49.214567 26.003064 C 51.475439 24.220454 50.388387 21.089925 46.388383 18.046444 C 45.257947 17.176878 43.605976 16.176904 42.73641 15.7856 C 41.69293 15.350817 40.910055 15.144243 40.176359 15.176851 z M 27.142013 15.236796 C 25.559555 15.29539 23.779665 16.182382 21.388359 18.003035 C 17.344877 21.089995 16.257895 24.220454 18.518766 26.003064 C 19.866594 27.046543 21.997263 26.915636 23.823352 25.654765 C 24.38857 25.26346 25.431811 24.524339 26.214421 24.046077 C 26.99703 23.567816 28.431794 22.524505 29.431795 21.698417 C 30.997014 20.394068 31.25804 19.959235 31.25804 18.524451 C 31.25804 17.133145 31.040825 16.741772 29.866911 16.002641 C 28.970171 15.464597 28.091487 15.20164 27.142013 15.236796 z M 33.855815 25.964823 C 32.562335 25.91591 31.388371 26.437461 30.040544 27.524418 C 28.997064 28.350506 27.779814 29.133412 27.388509 29.263847 C 26.953726 29.394282 26.301281 30.133263 25.953455 30.959351 C 25.30128 32.307178 25.301306 32.611663 26.257829 36.00297 C 27.736091 41.220366 28.040574 41.437781 33.866667 41.437781 C 39.692759 41.437781 39.997242 41.220366 41.475505 36.00297 C 42.432027 32.655141 42.431983 32.307038 41.823287 31.046167 C 41.431982 30.263558 39.953573 28.91575 38.388354 27.828792 C 36.562266 26.633139 35.149294 26.013736 33.855815 25.964823 z M 16.19281 31.585152 C 15.356076 31.601127 14.624822 31.891547 14.301453 32.481222 C 13.388408 34.263832 13.779721 38.350751 15.257983 41.481189 C 17.040594 45.394236 17.997061 46.437476 19.779671 46.437476 C 20.866629 46.437476 21.431749 46.133093 22.083923 45.176571 C 23.214359 43.611352 23.214736 42.480963 22.171257 39.698352 C 21.692995 38.524438 21.127296 36.741935 20.866427 35.785413 C 20.605557 34.82889 19.91036 33.524657 19.301664 32.829004 C 18.519055 31.997481 17.268611 31.564613 16.19281 31.585152 z M 50.996887 31.654915 C 49.12732 31.654915 47.519081 33.220263 46.866907 35.742004 C 46.606037 36.742005 45.953662 38.698684 45.388444 40.133468 C 44.649313 42.133469 44.518756 43.002762 44.823104 43.828849 C 45.475278 45.61146 46.518808 46.437476 47.99707 46.437476 C 49.779681 46.437476 50.823104 45.306973 52.518758 41.350448 C 54.083977 37.741749 54.388307 33.567873 53.170915 32.35048 C 52.823088 31.959175 51.822975 31.654915 50.996887 31.654915 z M 33.937463 46.464864 C 31.138548 46.43769 28.344918 46.524458 27.7797 46.74185 C 26.823177 47.133154 26.475387 47.785187 26.475387 49.393884 C 26.475387 52.741713 28.475357 53.959497 33.866667 53.959497 C 39.344932 53.959497 41.257947 52.785192 41.257947 49.393884 C 41.257947 47.524317 41.127784 47.220418 40.127783 46.872591 C 39.540826 46.63346 36.736379 46.492038 33.937463 46.464864 z " />
  </g>
  <g
     id="ICON_LAYER"
     transform="matrix(0.434783,0,0,0.434783,3.4318567,3.3940966)">
    <metadata
       id="metadata1">
Created by potrace 1.16, written by Peter Selinger 2001-2019
</metadata>
    <g
       transform="matrix(0.1,0,0,-0.1,0,140)"
       fill="#000000"
       stroke="none"
       id="g1" />
  </g>
</svg>
