<?xml version="1.0" encoding="UTF-8" standalone="no"?>
<svg
   width="256"
   height="256"
   viewBox="0 0 67.733332 67.733335"
   version="1.1"
   id="svg8"
   xmlns="http://www.w3.org/2000/svg"
   xmlns:svg="http://www.w3.org/2000/svg"
   xmlns:rdf="http://www.w3.org/1999/02/22-rdf-syntax-ns#"
   xmlns:cc="http://creativecommons.org/ns#"
   xmlns:dc="http://purl.org/dc/elements/1.1/">
  <defs
     id="defs2" />
  <metadata
     id="metadata5">
    <rdf:RDF>
      <cc:Work
         rdf:about="">
        <dc:format>image/svg+xml</dc:format>
        <dc:type
           rdf:resource="http://purl.org/dc/dcmitype/StillImage" />
        <dc:title />
      </cc:Work>
    </rdf:RDF>
  </metadata>
  <g
     id="layer1">
    <path
       id="rect833"
       style="opacity:1;fill:#ffffff;fill-opacity:0.7;stroke-width:1.09855;stroke-linecap:round;stroke-linejoin:round;stroke-opacity:0.995575"
       d="M 15.692065 0 C 6.9985218 1.2533184e-15 0 6.9985218 0 15.692065 L 0 52.041268 C 1.2533184e-15 60.734811 6.9985218 67.733333 15.692065 67.733333 L 52.041268 67.733333 C 60.734811 67.733333 67.733333 60.734811 67.733333 52.041268 L 67.733333 15.692065 C 67.733333 6.9985218 60.734811 0 52.041268 0 L 15.692065 0 z M 34.518823 8.7855103 C 38.95361 8.9159452 40.170953 9.0898225 42.56226 10.089823 C 44.127479 10.741998 45.605581 11.393856 45.866451 11.567769 C 51.040369 14.915598 52.779494 16.654724 56.127323 21.828642 C 56.301237 22.089512 56.953612 23.568131 57.605786 25.13335 C 58.51883 27.4377 58.779594 28.872549 58.953507 32.785596 C 59.170899 37.698644 59.040614 38.567993 57.258004 43.176693 C 55.953655 46.568 55.171137 47.698623 51.432003 51.394279 C 47.736347 55.133413 46.605724 55.915931 43.214417 57.22028 C 38.605717 59.00289 37.736367 59.133175 32.823319 58.915784 C 28.910272 58.74187 27.475423 58.481107 25.171073 57.568062 C 23.605855 56.915888 22.127752 56.263513 21.866882 56.0896 C 16.692965 52.741771 14.953839 51.002645 11.60601 45.828727 C 11.432097 45.567857 10.779722 44.089755 10.127547 42.524536 C 9.2145029 40.220186 8.953739 38.785337 8.7798258 34.87229 C 8.5624343 29.959242 8.6927193 29.089893 10.47533 24.481193 C 11.605765 21.568147 14.431764 17.263766 16.301331 15.524634 C 18.518724 13.524632 21.866758 11.394295 23.86676 10.655164 C 24.953718 10.263859 26.605619 9.6547519 27.562142 9.3069255 C 28.909969 8.7851859 30.51882 8.6550754 34.518823 8.7855103 z M 38.040572 13.82913 C 36.649267 13.82913 36.475293 14.915951 36.475293 22.568132 C 36.475293 31.176835 36.562274 31.39437 39.344885 31.1335 C 40.605756 31.046544 41.127608 30.742091 41.518913 29.916003 C 43.084132 26.611653 43.866573 24.785235 43.866573 24.350452 C 43.866573 24.13306 44.562356 23.089609 45.388444 22.089608 C 47.779751 19.22004 46.953867 17.741861 41.736471 15.307076 C 39.997339 14.480988 38.301442 13.82913 38.040572 13.82913 z M 29.732035 13.898893 C 29.026362 13.900167 27.942797 14.345049 25.82323 15.350484 C 20.95366 17.654834 19.953417 19.350449 22.127332 21.785234 C 22.822984 22.611321 23.431645 23.437636 23.431645 23.56807 C 23.431645 23.872419 24.779637 26.916001 26.214421 29.916003 C 26.605725 30.742091 27.127577 31.046544 28.388448 31.1335 C 31.171059 31.39437 31.25804 31.176835 31.25804 22.568132 C 31.25804 17.176822 31.083935 14.698372 30.736108 14.350545 C 30.44263 14.057067 30.155439 13.898129 29.732035 13.898893 z M 17.334342 24.293091 C 16.76127 24.267053 16.111315 24.997164 15.214575 26.611296 C 13.736313 29.133037 13.60566 29.915775 14.388269 30.698385 C 15.1274 31.437516 19.170791 31.350699 20.21427 30.611568 C 21.040358 29.959394 20.997064 29.916031 19.779671 27.65516 C 19.084018 26.394289 18.345037 25.089915 18.084167 24.785567 C 17.839602 24.473067 17.59483 24.304926 17.334342 24.293091 z M 50.496659 24.345284 C 49.84157 24.371972 49.182393 25.437157 48.083887 27.611751 C 47.040408 29.69871 46.997184 29.915985 47.60588 30.56816 C 48.127619 31.0899 48.953828 31.220457 50.736438 31.1335 C 54.127745 30.959587 54.475518 30.176472 52.692908 26.959078 C 51.724157 25.211114 51.112047 24.320214 50.496659 24.345284 z M 29.205969 36.418966 C 28.09481 36.337868 26.790368 36.687578 26.301237 37.3941 C 25.909932 37.91584 25.605672 38.654891 25.605672 39.046195 C 25.605672 39.4375 25.34468 40.089805 25.040332 40.568066 C 24.735984 41.046328 24.171108 42.133047 23.86676 42.959135 C 23.518934 43.785223 22.736168 45.133451 22.040515 45.91606 C 19.953557 48.350845 21.127696 50.176544 26.38857 52.567851 C 31.084227 54.654809 30.997311 54.785511 31.171224 45.35072 C 31.258181 40.046368 31.127343 37.437622 30.779517 37.046318 C 30.469734 36.671317 29.872665 36.467624 29.205969 36.418966 z M 17.187065 36.448421 C 15.953368 36.426682 14.757835 36.589936 14.388269 36.959501 C 13.60566 37.742111 13.736313 38.524332 15.214575 41.046073 C 17.084142 44.350424 17.475321 44.2636 19.779671 40.002726 C 20.997064 37.741855 21.040358 37.698492 20.21427 37.046318 C 19.69253 36.676752 18.420761 36.47016 17.187065 36.448421 z M 49.771639 36.473743 C 48.826495 36.517051 47.98088 36.714725 47.60588 37.089726 C 46.997184 37.7419 47.040504 38.002987 48.344853 40.48125 C 50.170941 43.959514 50.910297 43.959164 52.692908 40.698291 C 53.823344 38.698289 53.997335 38.046204 53.60603 37.437508 C 53.198421 36.75816 51.346878 36.401562 49.771639 36.473743 z M 38.470003 36.507332 C 37.744459 36.537903 37.214687 36.709431 36.953817 37.002909 C 36.60599 37.437692 36.475153 39.872454 36.562109 45.35072 C 36.736023 54.56812 36.77991 54.698314 40.475566 52.872225 C 41.736436 52.263529 43.171201 51.61153 43.69294 51.481095 C 44.823376 51.133269 46.258044 49.568 46.649349 48.307129 C 46.86674 47.611476 46.606003 46.95961 45.606002 45.872652 C 44.910349 45.046564 44.301689 44.22025 44.301689 44.089815 C 44.301689 43.785467 42.953697 40.741885 41.518913 37.741882 C 41.127608 36.872316 40.649374 36.611342 39.258069 36.524386 C 38.97546 36.502646 38.711851 36.497142 38.470003 36.507332 z " />
  </g>
  <g
     id="ICON_LAYER"
     transform="matrix(0.434783,0,0,0.434783,3.4318567,3.3940966)">
    <metadata
       id="metadata1">
Created by potrace 1.16, written by Peter Selinger 2001-2019
</metadata>
    <g
       transform="matrix(0.1,0,0,-0.1,0,140)"
       fill="#000000"
       stroke="none"
       id="g1" />
  </g>
</svg>
