<?xml version="1.0" encoding="UTF-8" standalone="no"?>
<svg
   width="256"
   height="256"
   viewBox="0 0 67.733332 67.733335"
   version="1.1"
   id="svg8"
   sodipodi:docname="icon-m-atv.svg"
   inkscape:version="1.4.3 (0d15f75042, 2025-12-25)"
   xmlns:inkscape="http://www.inkscape.org/namespaces/inkscape"
   xmlns:sodipodi="http://sodipodi.sourceforge.net/DTD/sodipodi-0.dtd"
   xmlns="http://www.w3.org/2000/svg"
   xmlns:svg="http://www.w3.org/2000/svg"
   xmlns:rdf="http://www.w3.org/1999/02/22-rdf-syntax-ns#"
   xmlns:cc="http://creativecommons.org/ns#"
   xmlns:dc="http://purl.org/dc/elements/1.1/">
  <sodipodi:namedview
     id="namedview1"
     pagecolor="#ffffff"
     bordercolor="#000000"
     borderopacity="0.25"
     inkscape:showpageshadow="2"
     inkscape:pageopacity="0.0"
     inkscape:pagecheckerboard="true"
     inkscape:deskcolor="#d1d1d1"
     inkscape:zoom="3.0898438"
     inkscape:cx="141.10746"
     inkscape:cy="127.35272"
     inkscape:window-width="1920"
     inkscape:window-height="1000"
     inkscape:window-x="1920"
     inkscape:window-y="27"
     inkscape:window-maximized="1"
     inkscape:current-layer="svg8" />
  <defs
     id="defs2" />
  <metadata
     id="metadata5">
    <rdf:RDF>
      <cc:Work
         rdf:about="">
        <dc:format>image/svg+xml</dc:format>
        <dc:type
           rdf:resource="http://purl.org/dc/dcmitype/StillImage" />
      </cc:Work>
    </rdf:RDF>
  </metadata>
  <path
     id="rect833"
     style="fill:#ffffff;fill-opacity:0.7;stroke-width:1.09855;stroke-linecap:round;stroke-linejoin:round;stroke-opacity:0.995575"
     d="M 15.692065 0 C 6.9985219 -2.5066369e-15 0 6.9985219 0 15.692065 L 0 52.041268 C -2.5066369e-15 60.734811 6.9985219 67.733333 15.692065 67.733333 L 52.041268 67.733333 C 60.734811 67.733333 67.733333 60.734811 67.733333 52.041268 L 67.733333 15.692065 C 67.733333 6.9985219 60.734811 0 52.041268 0 L 15.692065 0 z M 37.398751 12.25765 C 37.529186 12.25765 37.96346 12.605765 38.354765 13.040548 C 39.050418 13.77968 38.96397 13.953284 37.398751 15.475024 L 35.659322 17.170528 L 36.833411 18.605583 L 38.006983 20.084045 L 46.615759 20.084045 C 59.398379 20.084045 59.094068 19.779585 59.094068 31.692639 C 59.094068 40.083951 59.094242 40.083568 60.268156 41.866178 C 61.789897 44.170528 62.137494 47.953258 61.050537 50.127173 C 59.267926 53.648916 56.6158 55.431687 53.007101 55.475167 C 48.398401 55.518646 45.094327 52.69228 44.181283 47.953145 L 43.659351 45.257703 L 37.398751 45.387927 L 31.137634 45.518669 L 30.528886 47.344914 C 30.181059 48.344915 29.050556 50.170827 28.007076 51.301262 C 25.485335 54.127352 22.441938 55.431759 18.659326 55.431759 C 7.7027948 55.431759 2.0071519 42.648819 9.3549846 34.474898 C 13.094119 30.300982 18.87681 29.170662 24.050728 31.51849 C 26.05073 32.431534 27.267934 32.692578 29.615763 32.692578 C 34.876637 32.692578 36.485628 30.953547 36.485628 25.25789 C 36.485628 22.257887 36.398331 21.996696 35.093982 20.648869 L 33.702852 19.214331 L 31.920016 20.953243 L 30.137695 22.73608 L 29.311389 21.822957 C 28.485302 20.909913 28.528857 20.866578 32.78973 16.605705 C 35.181037 14.214399 37.224838 12.25765 37.398751 12.25765 z M 17.963761 22.692672 L 23.094198 22.692672 L 24.572144 24.170618 C 25.398232 24.996706 26.050606 26.083801 26.050606 26.649019 L 26.050606 27.692367 L 19.268075 27.60555 C 14.963723 27.518593 12.268099 27.30115 11.876794 26.996802 C 11.007228 26.257671 11.093905 23.692419 12.050427 23.170679 C 12.441732 22.90981 15.094193 22.692672 17.963761 22.692672 z M 48.050814 25.301298 C 44.57255 25.301298 41.659616 25.431759 41.572656 25.605672 C 41.485699 25.823064 41.35517 26.909713 41.31169 28.040149 C 41.181255 33.170588 37.572528 37.040475 32.355131 37.779606 C 31.268174 37.910041 30.398661 38.083837 30.398661 38.170797 C 30.398661 38.214275 30.57239 38.779598 30.83326 39.388294 L 31.267859 40.518457 L 39.050846 40.518457 C 43.876937 40.518457 46.963778 40.344728 47.137691 40.083858 C 47.702909 39.170814 50.876848 37.909831 52.572502 37.909831 L 54.311414 37.909831 L 54.311414 31.605306 L 54.311414 25.301298 L 48.050814 25.301298 z M 18.638656 35.395256 C 16.172504 35.386382 13.83351 36.513002 12.398726 38.605396 C 11.485681 39.953223 11.268046 40.779536 11.268046 42.953451 C 11.268046 45.170844 11.485471 45.866652 12.528951 47.344914 C 14.702866 50.301439 18.485253 51.257793 21.963517 49.692574 C 24.572215 48.51866 25.746399 46.562176 25.96379 43.257825 C 26.137704 40.82304 26.00726 40.301356 25.007259 38.736137 C 24.268128 37.649179 23.093884 36.64925 22.006926 36.127511 C 20.906381 35.63838 19.759634 35.399289 18.638656 35.395256 z M 18.659326 39.214144 C 19.963675 39.214144 20.572536 39.474908 21.442102 40.561865 C 22.050798 41.300996 22.572266 42.344825 22.572266 42.910042 C 22.572266 43.47526 22.050798 44.518572 21.442102 45.257703 C 19.833405 47.170748 17.485247 47.170748 15.87655 45.257703 C 14.441766 43.562049 14.441766 42.257519 15.87655 40.561865 C 16.746116 39.474908 17.354977 39.214144 18.659326 39.214144 z M 52.816931 43.105379 C 51.844104 43.127119 50.876569 43.496964 50.180916 44.214356 C 48.659176 45.692618 48.746369 47.6058 50.355066 49.257975 C 52.007241 50.866672 53.920424 50.953348 55.398686 49.431608 C 56.876952 47.996824 56.876808 45.387963 55.485502 44.083614 C 54.76811 43.4097 53.789758 43.08364 52.816931 43.105379 z " />
</svg>
