<?xml version="1.0" encoding="UTF-8" standalone="no"?>
<svg
   width="256"
   height="256"
   viewBox="0 0 67.733332 67.733335"
   version="1.1"
   id="svg8"
   xmlns="http://www.w3.org/2000/svg"
   xmlns:svg="http://www.w3.org/2000/svg"
   xmlns:rdf="http://www.w3.org/1999/02/22-rdf-syntax-ns#"
   xmlns:cc="http://creativecommons.org/ns#"
   xmlns:dc="http://purl.org/dc/elements/1.1/">
  <defs
     id="defs2" />
  <metadata
     id="metadata5">
    <rdf:RDF>
      <cc:Work
         rdf:about="">
        <dc:format>image/svg+xml</dc:format>
        <dc:type
           rdf:resource="http://purl.org/dc/dcmitype/StillImage" />
        <dc:title />
      </cc:Work>
    </rdf:RDF>
  </metadata>
  <g
     id="layer1">
    <path
       id="rect833"
       style="opacity:1;fill:#ffffff;fill-opacity:0.7;stroke-width:1.09855;stroke-linecap:round;stroke-linejoin:round;stroke-opacity:0.995575"
       d="M 15.692065 0 C 6.9985218 1.2533184e-15 0 6.9985218 0 15.692065 L 0 52.041268 C 1.2533184e-15 60.734811 6.9985218 67.733333 15.692065 67.733333 L 52.041268 67.733333 C 60.734811 67.733333 67.733333 60.734811 67.733333 52.041268 L 67.733333 15.692065 C 67.733333 6.9985218 60.734811 0 52.041268 0 L 15.692065 0 z M 9.8882853 9.9048218 C 9.8882853 9.8613435 14.93184 9.8613435 21.06228 9.9048218 L 32.279683 9.9916382 L 32.497241 16.513204 C 32.801589 25.339299 32.584297 25.078571 41.410392 27.643791 C 44.845178 28.68727 45.584078 29.078555 47.32321 30.861165 C 49.844951 33.469863 50.323027 35.29598 50.323027 42.382943 L 50.323027 47.861161 L 46.410087 47.861161 L 42.453739 47.861161 L 42.583964 50.339563 L 42.714705 52.861373 L 45.323332 52.991597 C 49.018987 53.165511 51.323122 52.426381 53.149211 50.426379 C 53.975298 49.513335 54.758134 48.208962 54.932048 47.556787 C 55.062482 46.861134 55.236211 46.078745 55.366646 45.817875 C 55.453603 45.42657 56.366576 45.252535 57.975273 45.252535 L 60.453674 45.252535 L 60.236117 47.165597 C 59.931768 49.817773 58.236126 52.904727 56.062211 54.861251 C 52.627425 57.861254 52.714548 57.861068 28.714526 57.861068 L 7.279659 57.861068 L 7.279659 55.469999 L 7.279659 53.078414 L 12.279871 53.078414 L 17.279565 53.078414 L 17.279565 50.469788 L 17.279565 47.904569 L 13.584184 47.774345 L 9.8882853 47.643604 L 9.8882853 28.817879 L 9.8882853 9.9048218 z M 14.670939 14.8177 L 14.670939 28.730546 L 14.670939 42.643909 L 29.888615 42.643909 L 45.105774 42.643909 L 45.105774 39.600167 C 45.105774 34.513206 44.279551 33.643855 37.496936 31.774288 C 32.409975 30.339504 31.714547 29.90476 28.06237 25.339539 C 27.8015 24.991712 26.888483 24.774128 25.801526 24.817607 C 22.62761 24.948042 22.410238 24.904625 22.584151 23.817668 C 22.714586 22.99158 23.018792 22.861347 25.236186 22.730912 C 27.236188 22.643956 27.714587 22.469894 27.714587 21.861198 C 27.714587 20.513371 27.062318 20.078571 24.888403 19.948136 C 22.888402 19.817701 22.714376 19.730641 22.714376 18.73064 C 22.714376 17.730639 22.888191 17.643578 25.018628 17.513143 C 27.192543 17.382708 27.279472 17.339476 27.279472 16.078605 L 27.279472 14.8177 L 20.975464 14.8177 L 14.670939 14.8177 z M 22.497335 47.861161 L 22.497335 50.469788 L 22.497335 53.078414 L 30.01884 52.991597 L 37.496936 52.861373 L 37.627677 50.339563 L 37.757902 47.861161 L 30.105656 47.861161 L 22.497335 47.861161 z " />
  </g>
  <g
     id="ICON_LAYER"
     transform="matrix(0.434783,0,0,0.434783,2.0622902,2.2090295)">
    <metadata
       id="metadata1">
Created by potrace 1.16, written by Peter Selinger 2001-2019
</metadata>
    <g
       transform="matrix(0.1,0,0,-0.1,0,140)"
       fill="#000000"
       stroke="none"
       id="g1" />
  </g>
</svg>
