<?xml version="1.0" encoding="UTF-8" standalone="no"?>
<svg
   width="256"
   height="256"
   viewBox="0 0 67.733332 67.733335"
   version="1.1"
   id="svg8"
   sodipodi:docname="icon-m-meditation.svg"
   inkscape:version="1.4.3 (0d15f75042, 2025-12-25)"
   xmlns:inkscape="http://www.inkscape.org/namespaces/inkscape"
   xmlns:sodipodi="http://sodipodi.sourceforge.net/DTD/sodipodi-0.dtd"
   xmlns="http://www.w3.org/2000/svg"
   xmlns:svg="http://www.w3.org/2000/svg"
   xmlns:rdf="http://www.w3.org/1999/02/22-rdf-syntax-ns#"
   xmlns:cc="http://creativecommons.org/ns#"
   xmlns:dc="http://purl.org/dc/elements/1.1/">
  <sodipodi:namedview
     id="namedview1"
     pagecolor="#ffffff"
     bordercolor="#000000"
     borderopacity="0.25"
     inkscape:showpageshadow="2"
     inkscape:pageopacity="0.0"
     inkscape:pagecheckerboard="true"
     inkscape:deskcolor="#d1d1d1"
     inkscape:zoom="3.0898438"
     inkscape:cx="127.83818"
     inkscape:cy="128"
     inkscape:window-width="1920"
     inkscape:window-height="1000"
     inkscape:window-x="1920"
     inkscape:window-y="27"
     inkscape:window-maximized="1"
     inkscape:current-layer="svg8" />
  <defs
     id="defs2" />
  <metadata
     id="metadata5">
    <rdf:RDF>
      <cc:Work
         rdf:about="">
        <dc:format>image/svg+xml</dc:format>
        <dc:type
           rdf:resource="http://purl.org/dc/dcmitype/StillImage" />
      </cc:Work>
    </rdf:RDF>
  </metadata>
  <path
     id="rect833"
     style="fill:#ffffff;fill-opacity:0.7;stroke-width:1.09855;stroke-linecap:round;stroke-linejoin:round;stroke-opacity:0.995575"
     d="M 15.692065 0 C 6.9985219 -2.5066369e-15 0 6.9985219 0 15.692065 L 0 52.041268 C -2.5066369e-15 60.734811 6.9985219 67.733333 15.692065 67.733333 L 52.041268 67.733333 C 60.734811 67.733333 67.733333 60.734811 67.733333 52.041268 L 67.733333 15.692065 C 67.733333 6.9985219 60.734811 0 52.041268 0 L 15.692065 0 z M 33.775716 13.559379 C 35.850446 13.4962 37.790695 14.833605 38.605912 17.148824 C 39.17113 18.714043 39.127486 19.018021 38.388355 20.58324 C 37.214441 22.974546 34.866704 24.105077 32.562354 23.409424 C 28.084089 22.061597 27.5622 16.235519 31.692639 14.105082 C 32.377422 13.757256 33.08414 13.580439 33.775716 13.559379 z M 33.307528 26.229407 C 34.475328 26.227369 36.138178 26.365928 37.214266 26.626799 C 37.736005 26.757233 39.388424 28.365867 40.910164 30.191956 C 45.344951 35.583265 48.519034 37.539722 54.910344 38.887549 L 56.605847 39.235848 L 56.605847 41.409359 C 56.605847 43.539796 56.562545 43.583176 55.214718 43.713611 C 51.388628 44.104916 45.345074 41.626981 41.475505 38.06176 L 39.083919 35.887732 L 39.083919 38.670508 L 39.083919 41.496692 L 43.95339 43.409754 C 46.649045 44.453233 49.344704 45.757536 50.040357 46.322754 C 51.605576 47.627103 51.997335 49.757256 51.040812 51.626823 C 49.82342 54.01813 48.475293 54.279068 38.08398 54.148633 L 28.866455 54.018408 L 28.953788 52.539946 C 29.084223 49.800813 30.171264 49.279067 35.953878 49.018197 C 41.040839 48.800805 41.040389 48.800841 41.040389 47.713884 L 41.040389 46.627128 L 35.73632 46.627128 C 31.084141 46.627128 30.301642 46.713646 29.258163 47.539734 C 27.432074 48.887561 26.519005 50.365935 26.38857 52.27898 L 26.214421 54.018408 L 23.344828 54.148633 C 18.388302 54.366025 15.562339 52.278973 16.214514 48.757231 C 16.605819 46.713751 18.214722 45.583669 23.779944 43.409754 L 28.649414 41.496692 L 28.649414 38.670508 L 28.649414 35.887732 L 26.257829 38.06176 C 22.388261 41.626981 16.344707 44.104916 12.518616 43.713611 C 11.170791 43.583176 11.127486 43.539796 11.127486 41.409359 L 11.127486 39.235848 L 12.82299 38.887549 C 19.214301 37.539722 22.388383 35.583265 26.823169 30.191956 C 28.34491 28.365867 29.997327 26.757233 30.519067 26.626799 C 31.040806 26.539842 31.866535 26.365976 32.344796 26.279016 C 32.583927 26.246407 32.918261 26.230086 33.307528 26.229407 z " />
</svg>
