<?xml version="1.0" encoding="UTF-8" standalone="no"?>
<svg
   width="256"
   height="256"
   viewBox="0 0 67.733332 67.733335"
   version="1.1"
   id="svg8"
   sodipodi:docname="icon-m-sledding.svg"
   inkscape:version="1.4.3 (0d15f75042, 2025-12-25)"
   xmlns:inkscape="http://www.inkscape.org/namespaces/inkscape"
   xmlns:sodipodi="http://sodipodi.sourceforge.net/DTD/sodipodi-0.dtd"
   xmlns="http://www.w3.org/2000/svg"
   xmlns:svg="http://www.w3.org/2000/svg"
   xmlns:rdf="http://www.w3.org/1999/02/22-rdf-syntax-ns#"
   xmlns:cc="http://creativecommons.org/ns#"
   xmlns:dc="http://purl.org/dc/elements/1.1/">
  <sodipodi:namedview
     id="namedview1"
     pagecolor="#ffffff"
     bordercolor="#000000"
     borderopacity="0.25"
     inkscape:showpageshadow="2"
     inkscape:pageopacity="0.0"
     inkscape:pagecheckerboard="true"
     inkscape:deskcolor="#d1d1d1"
     inkscape:zoom="3.0898438"
     inkscape:cx="127.83818"
     inkscape:cy="128"
     inkscape:window-width="1920"
     inkscape:window-height="1000"
     inkscape:window-x="1920"
     inkscape:window-y="27"
     inkscape:window-maximized="1"
     inkscape:current-layer="svg8" />
  <defs
     id="defs2" />
  <metadata
     id="metadata5">
    <rdf:RDF>
      <cc:Work
         rdf:about="">
        <dc:format>image/svg+xml</dc:format>
        <dc:type
           rdf:resource="http://purl.org/dc/dcmitype/StillImage" />
      </cc:Work>
    </rdf:RDF>
  </metadata>
  <g
     id="layer1">
    <path
       id="rect833"
       style="opacity:1;fill:#ffffff;fill-opacity:0.7;stroke-width:1.09855;stroke-linecap:round;stroke-linejoin:round;stroke-opacity:0.995575"
       d="M 15.692065 0 C 6.9985219 -2.5066369e-15 0 6.9985219 0 15.692065 L 0 52.041268 C -2.5066369e-15 60.734811 6.9985219 67.733333 15.692065 67.733333 L 52.041268 67.733333 C 60.734811 67.733333 67.733333 60.734811 67.733333 52.041268 L 67.733333 15.692065 C 67.733333 6.9985219 60.734811 0 52.041268 0 L 15.692065 0 z M 33.668746 7.9969279 C 38.538316 7.9969279 40.538158 13.345139 36.972937 16.736446 C 35.407718 18.214708 32.103407 18.214708 30.538188 16.736446 C 28.103407 14.475575 28.146741 10.736139 30.625004 8.9100505 C 31.364135 8.3448326 32.494832 8.0404059 33.668746 7.9969279 z M 29.930473 19.384863 C 30.877909 19.425879 31.521805 19.806757 32.190283 20.475236 C 33.972893 22.257846 34.016398 23.301628 32.494657 28.301632 C 31.712048 30.823373 31.190134 32.953851 31.320569 33.084286 C 31.407526 33.214721 32.885698 33.08419 34.581352 32.82332 C 37.103093 32.432016 37.973051 32.431805 39.146965 32.953544 C 40.842619 33.649197 40.842405 33.649315 44.407625 41.214539 L 47.016252 46.822982 L 49.190279 47.562472 C 51.233758 48.258125 51.363934 48.388672 51.276974 49.736499 C 51.190017 52.040849 50.711925 52.127296 46.364095 50.692513 L 42.407748 49.344792 L 42.059965 50.301323 C 40.973008 53.214369 40.755482 52.953558 45.66853 54.43182 C 50.712013 55.997039 52.755453 56.127316 54.668498 55.170793 C 58.668502 53.083835 58.668502 46.388648 54.668498 44.301689 C 53.451106 43.692993 53.407409 43.562235 53.842192 42.257886 C 54.537844 40.170928 54.798783 39.997261 56.364002 40.823348 C 62.277051 43.866829 63.36419 52.34486 58.494621 56.997038 C 56.581575 58.823127 54.277239 59.736406 51.755497 59.736406 C 50.277235 59.736406 43.53792 57.73632 28.146602 52.736316 C 16.277026 48.910225 6.4511195 45.605765 6.233728 45.431852 C 5.9728582 45.170983 6.5813262 42.605616 7.0161092 41.99692 C 7.0595875 41.953441 9.2334734 42.605887 11.842171 43.431974 C 14.450869 44.258062 16.711877 44.953845 16.885791 44.953845 C 17.14666 44.953845 17.84225 42.692923 17.88573 41.779879 C 17.88573 41.562488 15.799038 40.736314 13.233818 39.910226 C 10.451207 38.997182 8.5379802 38.17084 8.5379802 37.823014 C 8.5379802 37.518666 8.7556341 36.649084 9.0165039 35.909953 L 9.4511027 34.562232 L 11.23394 35.214388 C 12.190462 35.562214 13.060041 35.823136 13.147001 35.823136 C 13.233954 35.823136 13.320634 33.605983 13.320634 30.86685 C 13.320634 27.345107 13.494669 25.779726 13.885974 25.518856 C 14.146844 25.344943 17.450857 23.866771 21.146513 22.258073 C 25.929126 20.192854 28.351412 19.316504 29.930473 19.384863 z M 23.112801 27.129093 C 22.774577 27.143707 22.000779 27.442089 20.625098 28.084074 L 18.537887 28.997197 L 18.537887 33.301327 C 18.537887 37.344808 18.581303 37.605929 19.537826 37.953756 C 20.45087 38.301582 20.494382 38.17106 20.798731 36.084102 C 20.929165 34.866709 21.581681 32.431903 22.190377 30.649292 C 22.799073 28.866682 23.32054 27.344728 23.32054 27.257768 C 23.32054 27.181681 23.274677 27.138279 23.174813 27.130127 C 23.156088 27.128598 23.135349 27.128119 23.112801 27.129093 z M 36.625155 38.475171 C 34.886023 38.562128 27.885969 40.388329 28.320752 40.649199 C 29.103362 41.127461 39.885657 44.605757 40.05957 44.475322 C 40.103049 44.388365 39.581652 42.996938 38.885999 41.344763 C 37.84252 39.040413 37.364286 38.431691 36.625155 38.475171 z M 21.929411 42.779818 C 21.538107 42.779818 20.755349 46.040697 21.059697 46.301567 C 21.451002 46.692872 36.277144 51.475411 37.059754 51.475411 C 37.494537 51.475411 38.538216 49.388192 38.538216 48.431669 C 38.538216 48.257756 34.842374 46.910114 30.32063 45.431852 C 25.798887 43.95359 22.016371 42.779818 21.929411 42.779818 z " />
  </g>
</svg>
