<?xml version="1.0" encoding="UTF-8" standalone="no"?>
<svg
   width="256"
   height="256"
   viewBox="0 0 67.733332 67.733335"
   version="1.1"
   id="svg8"
   sodipodi:docname="icon-m-paragliding.svg"
   inkscape:version="1.4.3 (0d15f75042, 2025-12-25)"
   xmlns:inkscape="http://www.inkscape.org/namespaces/inkscape"
   xmlns:sodipodi="http://sodipodi.sourceforge.net/DTD/sodipodi-0.dtd"
   xmlns="http://www.w3.org/2000/svg"
   xmlns:svg="http://www.w3.org/2000/svg"
   xmlns:rdf="http://www.w3.org/1999/02/22-rdf-syntax-ns#"
   xmlns:cc="http://creativecommons.org/ns#"
   xmlns:dc="http://purl.org/dc/elements/1.1/">
  <sodipodi:namedview
     id="namedview1"
     pagecolor="#ffffff"
     bordercolor="#000000"
     borderopacity="0.25"
     inkscape:showpageshadow="2"
     inkscape:pageopacity="0.0"
     inkscape:pagecheckerboard="true"
     inkscape:deskcolor="#d1d1d1"
     inkscape:zoom="3.0898438"
     inkscape:cx="127.83818"
     inkscape:cy="128"
     inkscape:window-width="1920"
     inkscape:window-height="1000"
     inkscape:window-x="1920"
     inkscape:window-y="27"
     inkscape:window-maximized="1"
     inkscape:current-layer="svg8" />
  <defs
     id="defs2" />
  <metadata
     id="metadata5">
    <rdf:RDF>
      <cc:Work
         rdf:about="">
        <dc:format>image/svg+xml</dc:format>
        <dc:type
           rdf:resource="http://purl.org/dc/dcmitype/StillImage" />
      </cc:Work>
    </rdf:RDF>
  </metadata>
  <path
     id="rect833"
     style="fill:#ffffff;fill-opacity:0.7;stroke-width:1.09855;stroke-linecap:round;stroke-linejoin:round;stroke-opacity:0.995575"
     d="M 15.692065 0 C 6.9985219 -2.5066369e-15 0 6.9985219 0 15.692065 L 0 52.041268 C -2.5066369e-15 60.734811 6.9985219 67.733333 15.692065 67.733333 L 26.055257 67.733333 L 25.923999 63.274691 L 25.785506 58.518392 L 23.569104 57.317949 C 20.429066 55.655576 18.443701 53.484916 17.05839 50.437232 C 15.950141 47.943672 14.933972 44.01852 14.933972 42.079085 C 14.933972 41.340253 15.303658 41.202136 17.704863 41.202136 L 20.475236 41.202136 L 20.475236 42.725558 C 20.475236 45.034409 21.630007 48.405334 22.969141 50.206238 C 25.508877 53.530985 32.111756 55.331998 37.652999 54.177572 C 43.148066 53.023146 46.565481 49.282907 47.119605 43.834017 L 47.39659 41.202136 L 50.07498 41.202136 C 53.168841 41.202136 53.122383 41.155846 52.337374 45.357955 C 51.275302 50.991553 48.551047 54.962921 44.164229 57.317949 L 41.947827 58.518392 L 41.809334 63.274691 L 41.678076 67.733333 L 52.041268 67.733333 C 60.734811 67.733333 67.733333 60.734811 67.733333 52.041268 L 67.733333 15.692065 C 67.733333 6.9985219 60.734811 0 52.041268 0 L 15.692065 0 z M 35.47122 3.5388021 C 40.1351 3.625384 44.718029 3.9601629 47.211589 4.4911987 C 54.876976 6.1997488 61.29595 9.3397497 62.727437 12.110372 C 63.235385 13.080089 63.419902 15.01975 63.419902 19.406567 C 63.419902 24.716926 63.327631 25.455434 62.496444 26.194267 C 61.665258 26.979279 60.510831 26.979608 58.756104 26.240776 C 58.155802 25.963714 57.509061 27.117712 55.338741 32.151009 L 52.70686 38.431246 L 50.028471 38.431246 L 47.350598 38.431246 L 45.318681 30.027108 L 43.332756 21.576461 L 41.48584 21.253483 C 39.084634 20.837889 28.648699 20.837889 26.247494 21.253483 L 24.400578 21.576461 L 22.414653 30.027108 L 20.382735 38.431246 L 17.704863 38.431246 L 15.026473 38.431246 L 12.394592 32.151009 C 10.224271 27.117712 9.5775312 25.963714 8.9772298 26.240776 C 7.2225027 26.979605 6.0680762 26.979276 5.2368897 26.194267 C 4.4057031 25.455434 4.3134318 24.71678 4.3134318 19.314067 C 4.3134318 14.234594 4.4520651 13.033988 5.1908976 11.833386 C 7.0841558 8.7395251 14.703375 5.4610311 23.246126 4.0757202 C 26.062925 3.6139499 30.80734 3.4522202 35.47122 3.5388021 z M 33.624304 8.9472575 C 29.595359 8.9472575 25.578105 9.154882 23.107634 9.5704753 C 18.212869 10.401662 12.348357 12.479954 10.732161 14.003796 C 9.67009 14.973514 9.3927084 15.666176 9.3927084 17.097664 C 9.3927084 18.159736 9.5774867 19.083035 9.7621948 19.221566 C 9.99308 19.360097 11.747916 18.944586 13.733529 18.298108 C 24.261891 14.973362 38.623039 14.557704 50.213473 17.282149 C 52.476148 17.790096 55.062042 18.529172 55.893229 18.898588 C 57.925018 19.729775 58.340625 19.406515 58.340625 17.097664 C 58.340625 15.666176 58.063243 14.973514 57.001172 14.003796 C 55.338799 12.433777 49.52058 10.401662 44.210221 9.5704753 C 41.693573 9.154882 37.65325 8.9472575 33.624304 8.9472575 z M 19.579683 22.3113 C 19.556212 22.311322 19.531761 22.312548 19.505786 22.315434 C 18.489892 22.361611 14.287615 23.700763 13.872022 24.116357 C 13.502605 24.439596 16.78092 32.889982 17.288867 32.889982 C 17.427398 32.889982 17.982026 30.904376 18.582328 28.50317 C 19.182629 26.101965 19.736742 23.700847 19.875273 23.1929 C 20.005145 22.630117 19.931761 22.310959 19.579683 22.3113 z M 48.094739 22.327319 C 47.592564 22.315776 47.696441 22.592783 47.858061 23.146908 C 47.996592 23.701032 48.55122 26.101965 49.151522 28.50317 C 49.751823 30.904376 50.305935 32.889982 50.444466 32.889982 C 50.906237 32.889982 54.230875 24.53195 53.953813 24.116357 C 53.815282 23.885471 52.891428 23.469777 51.967887 23.238892 C 49.705213 22.638592 48.596914 22.338863 48.094739 22.327319 z M 33.866667 38.431246 C 35.344332 38.431246 36.083203 38.754396 37.468514 40.001176 C 38.992356 41.386487 39.176937 41.848258 39.176937 43.741516 C 39.176937 45.634774 38.992356 46.096545 37.468514 47.481856 C 36.083203 48.728635 35.344332 49.051786 33.866667 49.051786 C 32.389002 49.051786 31.65013 48.728635 30.264819 47.481856 C 28.740977 46.096545 28.556397 45.634774 28.556397 43.741516 C 28.556397 41.848258 28.740977 41.386487 30.264819 40.001176 C 31.65013 38.754396 32.389002 38.431246 33.866667 38.431246 z " />
</svg>
