<?xml version="1.0" encoding="UTF-8" standalone="no"?>
<svg
   width="256"
   height="256"
   viewBox="0 0 67.733332 67.733335"
   version="1.1"
   id="svg8"
   xmlns="http://www.w3.org/2000/svg"
   xmlns:svg="http://www.w3.org/2000/svg"
   xmlns:rdf="http://www.w3.org/1999/02/22-rdf-syntax-ns#"
   xmlns:cc="http://creativecommons.org/ns#"
   xmlns:dc="http://purl.org/dc/elements/1.1/">
  <defs
     id="defs2" />
  <metadata
     id="metadata5">
    <rdf:RDF>
      <cc:Work
         rdf:about="">
        <dc:format>image/svg+xml</dc:format>
        <dc:type
           rdf:resource="http://purl.org/dc/dcmitype/StillImage" />
        <dc:title />
      </cc:Work>
    </rdf:RDF>
  </metadata>
  <g
     id="layer1">
    <path
       id="rect833"
       style="opacity:1;fill:#ffffff;fill-opacity:0.7;stroke-width:1.09855;stroke-linecap:round;stroke-linejoin:round;stroke-opacity:0.995575"
       d="M 15.692065 0 C 6.9985218 1.2533184e-15 0 6.9985218 0 15.692065 L 0 52.041268 C 1.2533184e-15 60.734811 6.9985218 67.733333 15.692065 67.733333 L 52.041268 67.733333 C 60.734811 67.733333 67.733333 60.734811 67.733333 52.041268 L 67.733333 15.692065 C 67.733333 6.9985218 60.734811 0 52.041268 0 L 15.692065 0 z M 44.084131 10.062435 L 46.475199 10.062435 L 46.475199 15.192871 L 46.475199 20.366715 L 48.127295 21.410063 C 49.953384 22.583977 51.692969 25.627699 51.692969 27.671179 C 51.692969 29.627703 49.95376 32.714457 48.214628 33.888371 L 46.692757 34.88831 L 46.475199 41.062093 C 46.257808 46.714272 46.127619 47.410209 45.040662 49.540645 C 43.475443 52.49717 40.736297 55.236246 37.997164 56.627551 C 36.127597 57.540596 35.214566 57.670898 31.25804 57.670898 C 27.17108 57.670898 26.47551 57.540806 24.475509 56.497327 C 21.12768 54.714716 17.997036 51.06244 16.910079 47.584176 C 16.170948 45.149391 16.040365 43.540456 16.040365 36.192623 L 16.040365 27.671179 L 22.431706 34.06252 L 28.823047 40.49727 L 27.127543 42.236182 L 25.432039 43.97561 L 23.30142 41.931807 L 21.170801 39.845113 L 21.34495 42.931746 C 21.562342 46.888272 23.127461 49.627408 26.214421 51.583931 C 28.040509 52.714367 28.779847 52.888245 31.214632 52.888245 C 34.388548 52.844766 36.736135 51.88864 38.736137 49.758203 C 40.649182 47.758201 41.301451 45.540516 41.562321 40.32312 L 41.779879 35.497058 L 39.736076 33.801554 C 35.344768 30.149377 35.301359 25.192981 39.692668 21.540804 L 41.736471 19.844784 L 41.692546 15.279687 C 41.649067 12.757946 41.649137 10.584201 41.649137 10.366809 C 41.692616 10.192896 42.779782 10.062435 44.084131 10.062435 z M 43.980778 25.301298 C 43.27969 25.268689 42.584043 25.43196 42.214478 25.801526 C 41.518825 26.497179 41.518825 28.84518 42.214478 29.540833 C 42.953609 30.279964 44.997025 30.192771 45.779635 29.366683 C 46.649201 28.497117 46.649201 26.844725 45.779635 25.975159 C 45.38833 25.562115 44.681866 25.333907 43.980778 25.301298 z " />
  </g>
  <g
     id="ICON_LAYER"
     transform="matrix(0.434783,0,0,0.434783,3.4318567,4.8449014)">
    <metadata
       id="metadata1">
Created by potrace 1.16, written by Peter Selinger 2001-2019
</metadata>
    <g
       transform="matrix(0.1,0,0,-0.1,0,140)"
       fill="#000000"
       stroke="none"
       id="g1" />
  </g>
</svg>
