<?xml version="1.0" encoding="UTF-8" standalone="no"?>
<svg
   width="256"
   height="256"
   viewBox="0 0 67.733332 67.733335"
   version="1.1"
   id="svg8"
   sodipodi:docname="icon-m-esports.svg"
   inkscape:version="1.4.3 (0d15f75042, 2025-12-25)"
   xmlns:inkscape="http://www.inkscape.org/namespaces/inkscape"
   xmlns:sodipodi="http://sodipodi.sourceforge.net/DTD/sodipodi-0.dtd"
   xmlns="http://www.w3.org/2000/svg"
   xmlns:svg="http://www.w3.org/2000/svg"
   xmlns:rdf="http://www.w3.org/1999/02/22-rdf-syntax-ns#"
   xmlns:cc="http://creativecommons.org/ns#"
   xmlns:dc="http://purl.org/dc/elements/1.1/">
  <sodipodi:namedview
     id="namedview1"
     pagecolor="#ffffff"
     bordercolor="#000000"
     borderopacity="0.25"
     inkscape:showpageshadow="2"
     inkscape:pageopacity="0.0"
     inkscape:pagecheckerboard="true"
     inkscape:deskcolor="#d1d1d1"
     inkscape:zoom="3.0898438"
     inkscape:cx="253.73451"
     inkscape:cy="128"
     inkscape:window-width="1920"
     inkscape:window-height="1000"
     inkscape:window-x="1920"
     inkscape:window-y="27"
     inkscape:window-maximized="1"
     inkscape:current-layer="svg8" />
  <defs
     id="defs2" />
  <metadata
     id="metadata5">
    <rdf:RDF>
      <cc:Work
         rdf:about="">
        <dc:format>image/svg+xml</dc:format>
        <dc:type
           rdf:resource="http://purl.org/dc/dcmitype/StillImage" />
      </cc:Work>
    </rdf:RDF>
  </metadata>
  <path
     id="rect833"
     style="fill:#ffffff;fill-opacity:0.7;stroke-width:1.09855;stroke-linecap:round;stroke-linejoin:round;stroke-opacity:0.995575"
     d="M 15.692065 0 C 6.9985219 -2.5066369e-15 0 6.9985219 0 15.692065 L 0 52.041268 C -2.5066369e-15 60.734811 6.9985219 67.733333 15.692065 67.733333 L 52.041268 67.733333 C 60.734811 67.733333 67.733333 60.734811 67.733333 52.041268 L 67.733333 15.692065 C 67.733333 6.9985219 60.734811 0 52.041268 0 L 15.692065 0 z M 33.866667 16.081706 C 49.084072 16.081706 49.866678 16.169082 52.779724 18.386475 C 55.4319 20.429955 56.040568 22.255912 57.605786 33.212443 C 58.388396 38.690709 59.040769 44.038524 59.084249 45.082003 C 59.084249 48.342876 57.040702 50.951534 53.997221 51.516752 C 51.345044 52.038491 49.562177 51.125459 45.823043 47.342847 L 42.344702 43.864506 L 33.866667 43.864506 L 25.388631 43.864506 L 21.910291 47.342847 C 18.171157 51.125459 16.388289 52.038491 13.736113 51.516752 C 10.692632 50.951534 8.6490845 48.342876 8.6490845 45.082003 C 8.6925628 44.038524 9.3449379 38.690709 10.127547 33.212443 C 11.692766 22.255912 12.301433 20.429955 14.953609 18.386475 C 15.779697 17.777779 17.214602 16.994873 18.084168 16.647046 C 19.345038 16.212263 23.171005 16.081706 33.866667 16.081706 z M 33.953483 21.256067 C 20.127384 21.256067 19.605794 21.299107 18.475358 22.168673 C 17.866662 22.646935 17.12747 23.42991 16.910079 23.864693 C 16.344861 24.95165 13.431765 45.081774 13.736113 45.864384 C 14.257852 47.212211 15.82312 46.342972 19.475297 42.777751 L 23.258012 39.081852 L 33.866667 39.081852 L 44.475322 39.081852 L 48.258036 42.777751 C 51.866735 46.299494 53.475481 47.212141 53.997221 45.907792 C 54.084177 45.646922 53.518925 40.864737 52.736316 35.386471 C 51.953706 29.864727 51.257853 25.125643 51.257853 24.777816 C 51.257853 24.473468 50.605995 23.560101 49.779907 22.734013 L 48.301445 21.256067 L 33.953483 21.256067 z M 22.997046 23.864693 L 24.953516 23.864693 L 26.909985 23.864693 L 26.909985 26.038204 L 26.909985 28.212232 L 29.084013 28.212232 L 31.25804 28.212232 L 31.25804 30.168701 L 31.25804 32.125171 L 29.084013 32.125171 L 26.909985 32.125171 L 26.909985 34.299198 L 26.909985 36.473226 L 24.953516 36.473226 L 22.997046 36.473226 L 22.997046 34.299198 L 22.997046 32.125171 L 20.823018 32.125171 L 18.649508 32.125171 L 18.649508 30.168701 L 18.649508 28.212232 L 20.823018 28.212232 L 22.997046 28.212232 L 22.997046 26.038204 L 22.997046 23.864693 z M 41.475505 23.864693 C 42.236375 23.864693 42.997331 24.038282 43.345158 24.386108 C 43.649506 24.690456 43.866573 25.516631 43.866573 26.255762 C 43.866573 26.994894 43.649506 27.821067 43.345158 28.125415 C 43.04081 28.429763 42.214636 28.647347 41.475505 28.647347 C 40.736374 28.647347 39.910199 28.429763 39.605851 28.125415 C 38.910198 27.429763 38.910198 25.08176 39.605851 24.386108 C 39.953678 24.038282 40.714634 23.864693 41.475505 23.864693 z M 46.562533 31.255973 C 47.606012 31.255973 49.083826 32.777642 49.083826 33.8646 C 49.083826 34.951557 47.606012 36.473226 46.562533 36.473226 C 44.34514 36.473226 43.214713 33.125593 44.953845 31.864722 C 45.388628 31.516896 46.12775 31.255973 46.562533 31.255973 z " />
</svg>
