<?xml version="1.0" encoding="UTF-8" standalone="no"?>
<svg
   width="256"
   height="256"
   viewBox="0 0 67.733332 67.733335"
   version="1.1"
   id="svg8"
   sodipodi:docname="icon-m-martial_arts.svg"
   inkscape:version="1.4.3 (0d15f75042, 2025-12-25)"
   xmlns:inkscape="http://www.inkscape.org/namespaces/inkscape"
   xmlns:sodipodi="http://sodipodi.sourceforge.net/DTD/sodipodi-0.dtd"
   xmlns="http://www.w3.org/2000/svg"
   xmlns:svg="http://www.w3.org/2000/svg"
   xmlns:rdf="http://www.w3.org/1999/02/22-rdf-syntax-ns#"
   xmlns:cc="http://creativecommons.org/ns#"
   xmlns:dc="http://purl.org/dc/elements/1.1/">
  <sodipodi:namedview
     id="namedview1"
     pagecolor="#ffffff"
     bordercolor="#000000"
     borderopacity="0.25"
     inkscape:showpageshadow="2"
     inkscape:pageopacity="0.0"
     inkscape:pagecheckerboard="true"
     inkscape:deskcolor="#d1d1d1"
     inkscape:zoom="3.0898438"
     inkscape:cx="127.83818"
     inkscape:cy="128"
     inkscape:window-width="1920"
     inkscape:window-height="1000"
     inkscape:window-x="1920"
     inkscape:window-y="27"
     inkscape:window-maximized="1"
     inkscape:current-layer="svg8" />
  <defs
     id="defs2" />
  <metadata
     id="metadata5">
    <rdf:RDF>
      <cc:Work
         rdf:about="">
        <dc:format>image/svg+xml</dc:format>
        <dc:type
           rdf:resource="http://purl.org/dc/dcmitype/StillImage" />
      </cc:Work>
    </rdf:RDF>
  </metadata>
  <g
     id="layer1">
    <path
       id="rect833"
       style="opacity:1;fill:#ffffff;fill-opacity:0.7;stroke-width:1.09855;stroke-linecap:round;stroke-linejoin:round;stroke-opacity:0.995575"
       d="M 15.692065 0 C 6.9985219 -2.5066369e-15 0 6.9985219 0 15.692065 L 0 52.041268 C -2.5066369e-15 60.734811 6.9985219 67.733333 15.692065 67.733333 L 52.041268 67.733333 C 60.734811 67.733333 67.733333 60.734811 67.733333 52.041268 L 67.733333 15.692065 C 67.733333 6.9985219 60.734811 0 52.041268 0 L 15.692065 0 z M 27.571961 7.3447713 C 27.702396 7.3447713 30.354411 9.9101101 33.44137 13.040548 C 39.919637 19.518815 39.919663 18.562321 33.745744 21.997107 L 30.180587 24.040393 L 31.354675 25.25789 C 32.00685 25.910064 32.745901 26.475387 33.006771 26.475387 C 33.267641 26.475387 38.050204 22.736205 43.615426 18.170984 L 53.746074 9.8665812 L 54.832829 10.909928 C 57.311093 13.214277 57.702533 12.605766 46.093827 24.257951 L 35.397839 34.953422 L 34.745683 47.127356 C 34.397856 53.823015 34.093526 59.562352 34.093526 59.823222 C 34.093526 60.214527 33.267511 60.388562 31.4849 60.388562 C 28.919682 60.388562 28.876274 60.344979 28.876274 59.171065 C 28.876274 56.953671 27.963431 39.301329 27.789518 38.431763 C 27.572126 37.475241 20.485142 33.214396 19.78949 33.605701 C 19.572098 33.779614 19.267838 34.431849 19.093925 35.17098 C 18.876533 36.170981 19.267504 37.214483 21.224028 40.60579 C 22.571855 42.91014 23.659021 44.953494 23.659021 45.170886 C 23.659021 45.518712 19.702507 47.910088 19.485116 47.692696 C 19.441637 47.60574 18.006732 45.21434 16.354557 42.301294 L 13.267407 37.084041 L 14.789278 31.649231 L 16.354557 26.171012 L 23.354647 22.127332 C 27.224216 19.909939 30.484817 17.996978 30.571777 17.910018 C 30.702212 17.823061 29.22397 16.214498 27.354403 14.301453 L 23.919987 10.823112 L 25.615491 9.0842001 C 26.528535 8.1276775 27.441526 7.3447713 27.571961 7.3447713 z M 16.224333 12.562541 C 18.659118 12.562541 20.180829 13.562356 21.050395 15.562358 C 22.746049 19.649318 18.093577 23.953701 14.18053 21.953699 C 12.267485 20.953698 11.485087 19.60562 11.485087 17.30127 C 11.485087 15.562138 11.702372 14.99722 12.832808 13.910262 C 13.963243 12.779826 14.485201 12.562541 16.224333 12.562541 z " />
  </g>
</svg>
