<?xml version="1.0" encoding="UTF-8" standalone="no"?>
<svg
   width="256"
   height="256"
   viewBox="0 0 67.733332 67.733335"
   version="1.1"
   id="svg8"
   sodipodi:docname="icon-m-windsurfing.svg"
   inkscape:version="1.4.3 (0d15f75042, 2025-12-25)"
   xmlns:inkscape="http://www.inkscape.org/namespaces/inkscape"
   xmlns:sodipodi="http://sodipodi.sourceforge.net/DTD/sodipodi-0.dtd"
   xmlns="http://www.w3.org/2000/svg"
   xmlns:svg="http://www.w3.org/2000/svg"
   xmlns:rdf="http://www.w3.org/1999/02/22-rdf-syntax-ns#"
   xmlns:cc="http://creativecommons.org/ns#"
   xmlns:dc="http://purl.org/dc/elements/1.1/">
  <sodipodi:namedview
     id="namedview1"
     pagecolor="#ffffff"
     bordercolor="#000000"
     borderopacity="0.25"
     inkscape:showpageshadow="2"
     inkscape:pageopacity="0.0"
     inkscape:pagecheckerboard="true"
     inkscape:deskcolor="#d1d1d1"
     inkscape:zoom="3.0898438"
     inkscape:cx="127.83818"
     inkscape:cy="128"
     inkscape:window-width="1920"
     inkscape:window-height="1000"
     inkscape:window-x="1920"
     inkscape:window-y="27"
     inkscape:window-maximized="1"
     inkscape:current-layer="svg8" />
  <defs
     id="defs2" />
  <metadata
     id="metadata5">
    <rdf:RDF>
      <cc:Work
         rdf:about="">
        <dc:format>image/svg+xml</dc:format>
        <dc:type
           rdf:resource="http://purl.org/dc/dcmitype/StillImage" />
      </cc:Work>
    </rdf:RDF>
  </metadata>
  <path
     id="rect833"
     style="fill:#ffffff;fill-opacity:0.7;stroke-width:1.09855;stroke-linecap:round;stroke-linejoin:round;stroke-opacity:0.995575"
     d="M 15.692065 0 C 6.9985219 -2.5066369e-15 0 6.9985219 0 15.692065 L 0 52.041268 C -2.5066369e-15 60.734811 6.9985219 67.733333 15.692065 67.733333 L 52.041268 67.733333 C 60.734811 67.733333 67.733333 60.734811 67.733333 52.041268 L 67.733333 15.692065 C 67.733333 6.9985219 60.734811 0 52.041268 0 L 15.692065 0 z M 21.859648 5.5221436 C 23.714269 5.4127685 31.394437 7.6670208 35.579224 9.7213705 C 45.187929 14.373548 52.100491 20.677637 55.752669 28.155904 C 57.75267 32.286343 59.100567 37.895063 58.274479 38.721151 C 57.665783 39.329847 39.144074 51.02552 39.013639 50.895085 C 38.883204 50.76465 34.492043 39.503945 28.665951 24.503931 C 25.62247 16.721315 22.752801 9.4168218 22.318018 8.2429077 C 21.839757 7.0689936 21.448303 5.9384893 21.448303 5.7210978 C 21.448303 5.6015325 21.594702 5.5377686 21.859648 5.5221436 z M 12.636955 27.119792 C 14.23474 27.124579 15.796452 28.430403 15.796452 30.37334 C 15.796452 31.938558 14.230972 33.634123 12.75271 33.634123 C 12.317927 33.634123 11.491822 33.243256 10.839648 32.721517 C 9.4048648 31.591081 9.2748503 29.28662 10.579199 27.982271 C 11.177026 27.384445 11.910689 27.117616 12.636955 27.119792 z M 39.707654 28.276827 C 36.289578 28.428773 33.513919 29.090704 33.70957 30.068966 C 33.840005 30.677666 34.231046 30.764811 35.796265 30.590898 C 36.883222 30.460467 39.709483 30.37334 42.100789 30.37334 C 46.18775 30.37334 46.709598 30.504045 49.405253 31.808394 C 51.361776 32.764917 52.97054 34.025751 54.492281 35.677926 C 56.187935 37.63445 56.79642 38.025699 57.187724 37.634395 C 57.622507 37.199612 57.535525 36.764577 56.88335 35.547184 C 55.318132 32.634138 51.53577 29.895324 47.753158 28.938802 C 46.4162 28.601845 44.848121 28.395219 43.253691 28.302149 C 42.057867 28.232345 40.847013 28.226178 39.707654 28.276827 z M 27.926978 32.03112 C 28.676978 32.069163 29.100926 32.460393 29.187883 33.199524 C 29.318318 34.156047 28.926962 34.504108 26.013916 35.938892 C 23.666088 37.069328 22.187522 37.547579 20.752738 37.547579 C 18.926649 37.547579 18.796366 37.591065 19.057235 38.50411 C 19.231149 39.069328 19.883522 40.460683 20.535697 41.678076 L 21.665861 43.851587 L 25.274426 43.982328 L 28.883508 44.112553 L 32.361332 47.416744 C 35.926553 50.85153 36.492006 52.025659 35.1007 53.373486 C 33.970264 54.503922 33.231303 54.199391 30.187822 51.242867 L 27.230896 48.4172 L 22.361426 48.4172 C 15.709246 48.4172 15.578895 48.330097 13.013676 42.417049 C 11.318019 38.504002 11.057162 37.504093 11.404989 36.591048 C 12.187598 34.50409 13.404907 34.069238 18.18752 34.069238 C 21.883176 34.069238 22.840036 33.89501 24.709603 32.981966 C 26.100909 32.308052 27.176977 31.993076 27.926978 32.03112 z M 27.187488 55.80848 C 28.100533 55.80848 29.579222 56.11281 30.448788 56.460637 C 32.405311 57.286724 35.274795 57.286724 37.231319 56.460637 C 39.231321 55.634549 41.927033 55.634549 43.927035 56.460637 C 45.927037 57.286723 48.752903 57.286794 50.796383 56.417228 C 52.622472 55.678097 55.013702 55.764564 58.535445 56.721086 L 60.579248 57.329834 L 60.579248 59.851644 C 60.579248 62.069034 60.491932 62.373287 59.839758 62.155896 C 59.404975 62.068939 57.926873 61.59067 56.535567 61.199365 C 54.40513 60.547191 53.752731 60.504062 52.187512 60.982324 C 47.013594 62.504064 47.318201 62.460332 44.013851 61.460331 C 40.7095 60.416852 40.752765 60.417185 35.491891 61.895447 C 33.839715 62.373708 33.274666 62.329967 30.579012 61.416923 C 27.361618 60.373444 27.448501 60.373637 21.970235 61.938855 C 20.361538 62.373638 19.796445 62.329828 17.405139 61.50374 C 14.05731 60.373301 13.665992 60.373444 10.361641 61.416923 C 8.9268585 61.895184 7.579146 62.112839 7.4052328 61.895447 C 7.1878413 61.721534 7.100718 60.634297 7.187675 59.503862 L 7.3178996 57.417167 L 9.7094849 56.677678 C 12.752966 55.677677 14.752937 55.634549 17.100765 56.460637 C 18.100766 56.808463 19.7094 57.112793 20.665922 57.112793 C 21.578967 57.112793 23.057139 56.808463 23.926705 56.460637 C 24.752793 56.11281 26.230966 55.80848 27.187488 55.80848 z " />
</svg>
